<svg width="512" height="512" viewBox="0 0 512 512" fill="none" xmlns="http://www.w3.org/2000/svg">
<g filter="url(#filter0_d_1_10)">
<mask id="path-1-outside-1_1_10" maskUnits="userSpaceOnUse" x="83" y="19" width="370" height="466" fill="black">
<rect fill="white" x="83" y="19" width="370" height="466"/>
<path d="M376.586 49.952L378.634 50.464C387.167 55.584 394.506 61.3866 400.65 67.872C407.135 74.016 412.938 80.672 418.058 87.84C423.519 94.6667 427.786 102.176 430.858 110.368C443.829 141.771 432.565 176.928 397.066 215.84C382.047 232.224 365.151 246.219 346.378 257.824C351.157 261.237 355.594 263.797 359.69 265.504C364.127 266.869 370.271 269.771 378.122 274.208C385.973 278.304 391.093 286.325 393.482 298.272C395.871 309.877 395.189 323.019 391.434 337.696C388.021 352.373 381.535 367.563 371.978 383.264C362.762 398.624 350.645 412.448 335.626 424.736C301.493 453.067 261.898 465.013 216.842 460.576C210.357 460.576 206.261 460.064 204.554 459.04C202.847 458.016 201.482 457.163 200.458 456.48C199.434 455.797 197.215 455.285 193.802 454.944C185.269 461.771 175.541 466.037 164.618 467.744C153.695 469.451 143.285 468.597 133.386 465.184C123.829 461.771 115.637 455.968 108.81 447.776C102.325 439.584 99.082 428.832 99.082 415.52C100.106 406.645 101.813 399.648 104.202 394.528C103.178 391.456 102.666 387.701 102.666 383.264C114.271 321.483 125.194 274.208 135.434 241.44C156.255 176.245 178.783 127.093 203.018 93.984C222.815 65.9946 250.293 47.904 285.45 39.712C319.242 31.8613 349.621 35.2746 376.586 49.952ZM217.354 407.328C221.45 406.304 224.863 406.133 227.594 406.816C230.666 407.157 234.25 406.987 238.346 406.304C248.245 405.28 261.557 399.136 278.282 387.872C288.863 377.291 294.495 366.88 295.178 356.64C295.861 346.4 294.325 339.915 290.57 337.184C286.815 334.112 281.695 332.576 275.21 332.576C269.066 332.576 262.069 333.6 254.218 335.648C246.709 337.355 239.37 338.379 232.202 338.72V339.744C230.495 346.571 228.789 352.544 227.082 357.664C225.375 362.784 223.839 367.733 222.474 372.512C219.402 383.776 217.013 395.381 215.306 407.328H217.354ZM312.586 141.088C302.346 139.723 291.253 147.744 279.306 165.152C271.797 176.075 265.994 192.629 261.898 214.816C269.066 211.744 276.063 209.184 282.89 207.136C290.058 204.747 296.714 202.187 302.858 199.456C317.877 192.971 328.629 185.12 335.114 175.904C342.623 167.029 345.013 159.52 342.282 153.376C338.186 147.915 331.53 142.965 322.314 138.528C319.583 140.917 316.341 141.771 312.586 141.088ZM304.906 139.04H306.442H304.906Z"/>
</mask>
<path d="M376.586 49.952L378.634 50.464C387.167 55.584 394.506 61.3866 400.65 67.872C407.135 74.016 412.938 80.672 418.058 87.84C423.519 94.6667 427.786 102.176 430.858 110.368C443.829 141.771 432.565 176.928 397.066 215.84C382.047 232.224 365.151 246.219 346.378 257.824C351.157 261.237 355.594 263.797 359.69 265.504C364.127 266.869 370.271 269.771 378.122 274.208C385.973 278.304 391.093 286.325 393.482 298.272C395.871 309.877 395.189 323.019 391.434 337.696C388.021 352.373 381.535 367.563 371.978 383.264C362.762 398.624 350.645 412.448 335.626 424.736C301.493 453.067 261.898 465.013 216.842 460.576C210.357 460.576 206.261 460.064 204.554 459.04C202.847 458.016 201.482 457.163 200.458 456.48C199.434 455.797 197.215 455.285 193.802 454.944C185.269 461.771 175.541 466.037 164.618 467.744C153.695 469.451 143.285 468.597 133.386 465.184C123.829 461.771 115.637 455.968 108.81 447.776C102.325 439.584 99.082 428.832 99.082 415.52C100.106 406.645 101.813 399.648 104.202 394.528C103.178 391.456 102.666 387.701 102.666 383.264C114.271 321.483 125.194 274.208 135.434 241.44C156.255 176.245 178.783 127.093 203.018 93.984C222.815 65.9946 250.293 47.904 285.45 39.712C319.242 31.8613 349.621 35.2746 376.586 49.952ZM217.354 407.328C221.45 406.304 224.863 406.133 227.594 406.816C230.666 407.157 234.25 406.987 238.346 406.304C248.245 405.28 261.557 399.136 278.282 387.872C288.863 377.291 294.495 366.88 295.178 356.64C295.861 346.4 294.325 339.915 290.57 337.184C286.815 334.112 281.695 332.576 275.21 332.576C269.066 332.576 262.069 333.6 254.218 335.648C246.709 337.355 239.37 338.379 232.202 338.72V339.744C230.495 346.571 228.789 352.544 227.082 357.664C225.375 362.784 223.839 367.733 222.474 372.512C219.402 383.776 217.013 395.381 215.306 407.328H217.354ZM312.586 141.088C302.346 139.723 291.253 147.744 279.306 165.152C271.797 176.075 265.994 192.629 261.898 214.816C269.066 211.744 276.063 209.184 282.89 207.136C290.058 204.747 296.714 202.187 302.858 199.456C317.877 192.971 328.629 185.12 335.114 175.904C342.623 167.029 345.013 159.52 342.282 153.376C338.186 147.915 331.53 142.965 322.314 138.528C319.583 140.917 316.341 141.771 312.586 141.088ZM304.906 139.04H306.442H304.906Z" fill="url(#paint0_radial_1_10)" shape-rendering="crispEdges"/>
<path d="M376.586 49.952L368.937 64.0051L370.728 64.9798L372.705 65.4743L376.586 49.952ZM378.634 50.464L386.866 36.7441L384.824 35.5191L382.515 34.9417L378.634 50.464ZM400.65 67.872L389.035 78.8759L389.332 79.1898L389.646 79.4872L400.65 67.872ZM418.058 87.84L405.038 97.1398L405.292 97.4946L405.564 97.8351L418.058 87.84ZM430.858 110.368L415.877 115.986L415.969 116.233L416.07 116.476L430.858 110.368ZM397.066 215.84L408.86 226.652L408.873 226.638L408.886 226.623L397.066 215.84ZM346.378 257.824L337.965 244.214L317.505 256.863L337.078 270.844L346.378 257.824ZM359.69 265.504L353.536 280.273L354.248 280.57L354.985 280.796L359.69 265.504ZM378.122 274.208L370.249 288.137L370.483 288.269L370.721 288.393L378.122 274.208ZM393.482 298.272L377.793 301.41L377.802 301.454L377.811 301.498L393.482 298.272ZM391.434 337.696L375.933 333.731L375.89 333.901L375.85 334.072L391.434 337.696ZM371.978 383.264L358.311 374.945L358.284 374.988L358.258 375.032L371.978 383.264ZM335.626 424.736L325.494 412.353L325.451 412.388L325.407 412.424L335.626 424.736ZM216.842 460.576L218.41 444.653L217.628 444.576H216.842V460.576ZM204.554 459.04L196.322 472.76L196.322 472.76L204.554 459.04ZM200.458 456.48L209.333 443.167L209.333 443.167L200.458 456.48ZM193.802 454.944L195.394 439.023L188.902 438.374L183.807 442.45L193.802 454.944ZM164.618 467.744L162.148 451.936L164.618 467.744ZM133.386 465.184L128.005 480.252L128.087 480.281L128.17 480.31L133.386 465.184ZM108.81 447.776L96.2653 457.707L96.3899 457.865L96.5185 458.019L108.81 447.776ZM99.082 415.52L83.1875 413.686L83.082 414.6V415.52H99.082ZM104.202 394.528L118.701 401.294L121.397 395.517L119.381 389.468L104.202 394.528ZM102.666 383.264L86.941 380.31L86.666 381.774V383.264H102.666ZM135.434 241.44L120.192 236.572L120.177 236.62L120.162 236.668L135.434 241.44ZM203.018 93.984L215.929 103.434L216.006 103.329L216.081 103.223L203.018 93.984ZM285.45 39.712L281.829 24.127L281.819 24.1294L285.45 39.712ZM217.354 407.328V423.328H219.324L221.235 422.85L217.354 407.328ZM227.594 406.816L223.713 422.338L224.757 422.599L225.827 422.718L227.594 406.816ZM238.346 406.304L236.7 390.389L236.206 390.44L235.716 390.522L238.346 406.304ZM278.282 387.872L287.22 401.143L288.502 400.279L289.596 399.186L278.282 387.872ZM290.57 337.184L280.438 349.567L280.791 349.856L281.159 350.124L290.57 337.184ZM254.218 335.648L257.764 351.25L258.011 351.194L258.257 351.13L254.218 335.648ZM232.202 338.72L231.441 322.738L216.202 323.464V338.72H232.202ZM232.202 339.744L247.724 343.625L248.202 341.714V339.744H232.202ZM227.082 357.664L242.261 362.724L242.261 362.724L227.082 357.664ZM222.474 372.512L207.09 368.116L207.063 368.209L207.038 368.302L222.474 372.512ZM215.306 407.328L199.467 405.065L196.858 423.328H215.306V407.328ZM312.586 141.088L315.448 125.346L315.076 125.278L314.701 125.228L312.586 141.088ZM279.306 165.152L292.491 174.216L292.498 174.205L279.306 165.152ZM261.898 214.816L246.164 211.911L240.74 241.291L268.201 229.522L261.898 214.816ZM282.89 207.136L287.488 222.461L287.72 222.392L287.95 222.315L282.89 207.136ZM302.858 199.456L296.515 184.767L296.437 184.801L296.36 184.835L302.858 199.456ZM335.114 175.904L322.9 165.569L322.439 166.113L322.029 166.696L335.114 175.904ZM342.282 153.376L356.903 146.878L356.168 145.224L355.082 143.776L342.282 153.376ZM322.314 138.528L329.255 124.112L319.732 119.527L311.778 126.487L322.314 138.528ZM376.586 49.952L372.705 65.4743L374.753 65.9863L378.634 50.464L382.515 34.9417L380.467 34.4297L376.586 49.952ZM378.634 50.464L370.402 64.1839C377.829 68.6403 383.996 73.5575 389.035 78.8759L400.65 67.872L412.265 56.8681C405.016 49.2158 396.505 42.5277 386.866 36.7441L378.634 50.464ZM400.65 67.872L389.646 79.4872C395.397 84.9358 400.523 90.8182 405.038 97.1398L418.058 87.84L431.078 78.5402C425.353 70.5258 418.873 63.0961 411.654 56.2567L400.65 67.872ZM418.058 87.84L405.564 97.8351C409.97 103.342 413.397 109.374 415.877 115.986L430.858 110.368L445.839 104.75C442.175 94.9781 437.069 85.9912 430.552 77.8449L418.058 87.84ZM430.858 110.368L416.07 116.476C425.505 139.32 419.125 167.919 385.246 205.057L397.066 215.84L408.886 226.623C446.004 185.937 462.152 144.222 445.646 104.26L430.858 110.368ZM397.066 215.84L385.272 205.028C371.239 220.337 355.479 233.388 337.965 244.214L346.378 257.824L354.791 271.434C374.824 259.05 392.856 244.111 408.86 226.652L397.066 215.84ZM346.378 257.824L337.078 270.844C342.542 274.746 348.038 277.983 353.536 280.273L359.69 265.504L365.844 250.735C363.15 249.612 359.771 247.728 355.678 244.804L346.378 257.824ZM359.69 265.504L354.985 280.796C357.722 281.639 362.65 283.842 370.249 288.137L378.122 274.208L385.995 260.279C377.893 255.699 370.532 252.1 364.395 250.212L359.69 265.504ZM378.122 274.208L370.721 288.393C372.822 289.49 375.975 292.321 377.793 301.41L393.482 298.272L409.171 295.134C406.21 280.329 399.123 267.118 385.523 260.023L378.122 274.208ZM393.482 298.272L377.811 301.498C379.593 310.157 379.248 320.772 375.933 333.731L391.434 337.696L406.935 341.661C411.129 325.265 412.149 309.598 409.153 295.046L393.482 298.272ZM391.434 337.696L375.85 334.072C372.896 346.774 367.171 360.389 358.311 374.945L371.978 383.264L385.645 391.583C395.9 374.737 403.146 357.972 407.018 341.32L391.434 337.696ZM371.978 383.264L358.258 375.032C350.066 388.685 339.206 401.134 325.494 412.353L335.626 424.736L345.758 437.119C362.084 423.762 375.458 408.563 385.698 391.496L371.978 383.264ZM335.626 424.736L325.407 412.424C294.638 437.963 259.311 448.681 218.41 444.653L216.842 460.576L215.274 476.499C264.485 481.346 308.347 468.171 345.845 437.048L335.626 424.736ZM216.842 460.576V444.576C213.934 444.576 212.02 444.457 210.891 444.316C210.335 444.246 210.206 444.2 210.376 444.245C210.474 444.271 210.733 444.343 211.105 444.488C211.467 444.629 212.064 444.887 212.786 445.32L204.554 459.04L196.322 472.76C200.22 475.099 204.532 475.77 206.921 476.068C209.888 476.439 213.264 476.576 216.842 476.576V460.576ZM204.554 459.04L212.786 445.32C211.182 444.358 210.058 443.651 209.333 443.167L200.458 456.48L191.583 469.793C192.906 470.675 194.513 471.674 196.322 472.76L204.554 459.04ZM200.458 456.48L209.333 443.167C206.379 441.198 203.295 440.379 201.624 439.994C199.613 439.53 197.474 439.231 195.394 439.023L193.802 454.944L192.21 470.865C192.846 470.928 193.352 470.992 193.741 471.051C194.137 471.111 194.355 471.157 194.428 471.174C194.52 471.195 194.323 471.157 193.935 471.013C193.731 470.938 193.426 470.817 193.049 470.635C192.677 470.455 192.168 470.183 191.583 469.793L200.458 456.48ZM193.802 454.944L183.807 442.45C177.477 447.514 170.35 450.654 162.148 451.936L164.618 467.744L167.088 483.552C180.731 481.42 193.061 476.027 203.797 467.438L193.802 454.944ZM164.618 467.744L162.148 451.936C153.656 453.263 145.894 452.573 138.602 450.058L133.386 465.184L128.17 480.31C140.675 484.622 153.735 485.639 167.088 483.552L164.618 467.744ZM133.386 465.184L138.767 450.116C132.042 447.714 126.194 443.644 121.102 437.533L108.81 447.776L96.5185 458.019C105.079 468.292 115.615 475.827 128.005 480.252L133.386 465.184ZM108.81 447.776L121.355 437.845C117.659 433.177 115.082 426.23 115.082 415.52H99.082H83.082C83.082 431.434 86.9902 445.991 96.2653 457.707L108.81 447.776ZM99.082 415.52L114.977 417.354C115.904 409.316 117.335 404.221 118.701 401.294L104.202 394.528L89.7031 387.762C86.2903 395.075 84.3079 403.975 83.1875 413.686L99.082 415.52ZM104.202 394.528L119.381 389.468C119.06 388.507 118.666 386.572 118.666 383.264H102.666H86.666C86.666 388.83 87.2956 394.405 89.0231 399.588L104.202 394.528ZM102.666 383.264L118.391 386.218C129.959 324.636 140.746 278.084 150.706 246.212L135.434 241.44L120.162 236.668C109.642 270.332 98.5839 318.329 86.941 380.31L102.666 383.264ZM135.434 241.44L150.676 246.308C171.273 181.813 193.168 134.53 215.929 103.434L203.018 93.984L190.107 84.5337C164.399 119.656 141.237 170.678 120.192 236.572L135.434 241.44ZM203.018 93.984L216.081 103.223C233.489 78.6118 257.517 62.6492 289.081 55.2946L285.45 39.712L281.819 24.1294C243.068 33.1587 212.142 53.3774 189.955 84.7445L203.018 93.984ZM285.45 39.712L289.071 55.2969C319.577 48.2096 345.865 51.4468 368.937 64.0051L376.586 49.952L384.235 35.8989C353.377 19.1025 318.907 15.513 281.829 24.127L285.45 39.712ZM217.354 407.328L221.235 422.85C222.498 422.534 223.327 422.435 223.785 422.412C224.242 422.389 224.163 422.451 223.713 422.338L227.594 406.816L231.475 391.294C225.237 389.734 218.945 390.438 213.473 391.806L217.354 407.328ZM227.594 406.816L225.827 422.718C230.767 423.267 235.891 422.934 240.976 422.086L238.346 406.304L235.716 390.522C232.609 391.039 230.565 391.048 229.361 390.914L227.594 406.816ZM238.346 406.304L239.992 422.219C254.035 420.766 270.118 412.661 287.22 401.143L278.282 387.872L269.344 374.601C252.996 385.611 242.454 389.794 236.7 390.389L238.346 406.304ZM278.282 387.872L289.596 399.186C301.687 387.094 310.106 373.252 311.143 357.704L295.178 356.64L279.213 355.576C278.885 360.508 276.04 367.487 266.968 376.558L278.282 387.872ZM295.178 356.64L311.143 357.704C311.539 351.752 311.386 345.807 310.107 340.409C308.835 335.039 306.058 328.664 299.981 324.244L290.57 337.184L281.159 350.124C278.837 348.435 278.705 346.668 278.969 347.783C279.226 348.87 279.499 351.288 279.213 355.576L295.178 356.64ZM290.57 337.184L300.702 324.801C293.253 318.706 284.141 316.576 275.21 316.576V332.576V348.576C279.25 348.576 280.378 349.518 280.438 349.567L290.57 337.184ZM275.21 332.576V316.576C267.348 316.576 258.954 317.877 250.179 320.166L254.218 335.648L258.257 351.13C265.183 349.323 270.784 348.576 275.21 348.576V332.576ZM254.218 335.648L250.672 320.046C244.012 321.56 237.606 322.445 231.441 322.738L232.202 338.72L232.963 354.702C241.134 354.313 249.405 353.15 257.764 351.25L254.218 335.648ZM232.202 338.72H216.202V339.744H232.202H248.202V338.72H232.202ZM232.202 339.744L216.68 335.863C215.044 342.405 213.448 347.969 211.903 352.604L227.082 357.664L242.261 362.724C244.129 357.119 245.946 350.737 247.724 343.625L232.202 339.744ZM227.082 357.664L211.903 352.604C210.129 357.926 208.524 363.097 207.09 368.116L222.474 372.512L237.858 376.908C239.155 372.37 240.621 367.642 242.261 362.724L227.082 357.664ZM222.474 372.512L207.038 368.302C203.785 380.227 201.264 392.484 199.467 405.065L215.306 407.328L231.145 409.591C232.761 398.279 235.019 387.325 237.91 376.722L222.474 372.512ZM215.306 407.328V423.328H217.354V407.328V391.328H215.306V407.328ZM312.586 141.088L314.701 125.228C304.343 123.847 294.968 127.505 287.211 133.114C279.598 138.619 272.625 146.611 266.114 156.098L279.306 165.152L292.498 174.205C297.934 166.285 302.481 161.562 305.961 159.046C307.637 157.834 308.82 157.314 309.511 157.098C310.139 156.902 310.404 156.939 310.471 156.948L312.586 141.088ZM279.306 165.152L266.121 156.088C256.745 169.726 250.421 188.854 246.164 211.911L261.898 214.816L277.632 217.721C281.567 196.404 286.848 182.423 292.491 174.216L279.306 165.152ZM261.898 214.816L268.201 229.522C274.864 226.667 281.292 224.32 287.488 222.461L282.89 207.136L278.292 191.811C270.835 194.048 263.268 196.821 255.595 200.11L261.898 214.816ZM282.89 207.136L287.95 222.315C295.547 219.782 302.689 217.04 309.356 214.077L302.858 199.456L296.36 184.835C290.739 187.333 284.569 189.711 277.83 191.957L282.89 207.136ZM302.858 199.456L309.201 214.145C325.776 206.988 339.414 197.596 348.199 185.112L335.114 175.904L322.029 166.696C317.844 172.644 309.977 178.954 296.515 184.767L302.858 199.456ZM335.114 175.904L347.328 186.239C355.757 176.278 363.592 161.929 356.903 146.878L342.282 153.376L327.661 159.874C327.476 159.457 327.384 159.003 327.375 158.64C327.367 158.316 327.43 158.327 327.291 158.765C326.965 159.791 325.882 162.044 322.9 165.569L335.114 175.904ZM342.282 153.376L355.082 143.776C348.871 135.494 339.724 129.153 329.255 124.112L322.314 138.528L315.373 152.944C323.336 156.778 327.501 160.335 329.482 162.976L342.282 153.376ZM322.314 138.528L311.778 126.487C312.117 126.19 312.8 125.74 313.762 125.487C314.698 125.24 315.341 125.327 315.448 125.346L312.586 141.088L309.724 156.83C317.988 158.333 326.236 156.356 332.85 150.569L322.314 138.528ZM304.906 139.04V155.04H306.442V139.04V123.04H304.906V139.04ZM306.442 139.04V123.04H304.906V139.04V155.04H306.442V139.04Z" fill="black" mask="url(#path-1-outside-1_1_10)"/>
</g>
<defs>
<filter id="filter0_d_1_10" x="79.082" y="19.61" width="377.024" height="472.987" filterUnits="userSpaceOnUse" color-interpolation-filters="sRGB">
<feFlood flood-opacity="0" result="BackgroundImageFix"/>
<feColorMatrix in="SourceAlpha" type="matrix" values="0 0 0 0 0 0 0 0 0 0 0 0 0 0 0 0 0 0 127 0" result="hardAlpha"/>
<feOffset dy="4"/>
<feGaussianBlur stdDeviation="2"/>
<feComposite in2="hardAlpha" operator="out"/>
<feColorMatrix type="matrix" values="0 0 0 0 0 0 0 0 0 0 0 0 0 0 0 0 0 0 0.25 0"/>
<feBlend mode="normal" in2="BackgroundImageFix" result="effect1_dropShadow_1_10"/>
<feBlend mode="normal" in="SourceGraphic" in2="effect1_dropShadow_1_10" result="shape"/>
</filter>
<radialGradient id="paint0_radial_1_10" cx="0" cy="0" r="1" gradientUnits="userSpaceOnUse" gradientTransform="translate(256 285.461) rotate(90) scale(530.297 1174.72)">
<stop stop-color="#FFBB00"/>
<stop offset="1" stop-color="#FF9500" stop-opacity="0"/>
</radialGradient>
</defs>
</svg>
