<svg width="482" height="179" viewBox="0 0 482 179" fill="none" xmlns="http://www.w3.org/2000/svg">
<g filter="url(#filter0_d_1_3)">
<mask id="path-1-outside-1_1_3" maskUnits="userSpaceOnUse" x="3.79201" y="-0.903545" width="474" height="171" fill="black">
<rect fill="white" x="3.79201" y="-0.903545" width="474" height="171"/>
<path d="M87.376 17.5845L87.888 17.7125C90.0213 18.9925 91.856 20.4431 93.392 22.0644C95.0133 23.6004 96.464 25.2645 97.744 27.0565C99.1093 28.7631 100.176 30.6405 100.944 32.6884C104.187 40.5391 101.371 49.3285 92.496 59.0565C88.7413 63.1525 84.5173 66.6511 79.824 69.5525C81.0187 70.4058 82.128 71.0458 83.152 71.4725C84.2613 71.8138 85.7973 72.5391 87.76 73.6485C89.7227 74.6725 91.0027 76.6778 91.6 79.6645C92.1973 82.5658 92.0267 85.8511 91.088 89.5205C90.2347 93.1898 88.6133 96.9871 86.224 100.912C83.92 104.752 80.8907 108.208 77.136 111.28C68.6027 118.363 58.704 121.35 47.44 120.24C45.8187 120.24 44.7947 120.112 44.368 119.856C43.9413 119.6 43.6 119.387 43.344 119.216C43.088 119.046 42.5333 118.918 41.68 118.832C39.5467 120.539 37.1147 121.606 34.384 122.032C31.6533 122.459 29.0507 122.246 26.576 121.392C24.1867 120.539 22.1387 119.088 20.432 117.04C18.8107 114.992 18 112.304 18 108.976C18.256 106.758 18.6827 105.008 19.28 103.728C19.024 102.96 18.896 102.022 18.896 100.912C21.7973 85.4671 24.528 73.6485 27.088 65.4565C32.2933 49.1578 37.9253 36.8698 43.984 28.5924C48.9333 21.5951 55.8027 17.0724 64.592 15.0244C73.04 13.0618 80.6347 13.9151 87.376 17.5845ZM47.568 106.928C48.592 106.672 49.4453 106.63 50.128 106.8C50.896 106.886 51.792 106.843 52.816 106.672C55.2907 106.416 58.6187 104.88 62.8 102.064C65.4453 99.4191 66.8533 96.8165 67.024 94.2565C67.1947 91.6965 66.8107 90.0751 65.872 89.3925C64.9333 88.6245 63.6533 88.2405 62.032 88.2405C60.496 88.2405 58.7467 88.4965 56.784 89.0085C54.9067 89.4351 53.072 89.6911 51.28 89.7765V90.0325C50.8533 91.7391 50.4267 93.2325 50 94.5125C49.5733 95.7925 49.1893 97.0298 48.848 98.2245C48.08 101.04 47.4827 103.942 47.056 106.928H47.568ZM71.376 40.3685C68.816 40.0271 66.0427 42.0324 63.056 46.3844C61.1787 49.1151 59.728 53.2538 58.704 58.8005C60.496 58.0325 62.2453 57.3925 63.952 56.8805C65.744 56.2831 67.408 55.6431 68.944 54.9605C72.6987 53.3391 75.3867 51.3765 77.008 49.0725C78.8853 46.8538 79.4827 44.9764 78.8 43.4404C77.776 42.0751 76.112 40.8378 73.808 39.7285C73.1253 40.3258 72.3147 40.5391 71.376 40.3685ZM69.456 39.8564H69.84H69.456ZM111.307 57.9045C113.696 55.6005 116.342 54.2778 119.243 53.9365C122.23 53.5098 124.832 53.8085 127.051 54.8325C129.355 55.8565 131.019 57.5205 132.043 59.8245C133.152 62.0431 133.024 64.6031 131.659 67.5045C128.758 71.7711 126.454 76.3791 124.747 81.3285C123.04 86.2778 121.462 91.2698 120.011 96.3045C127.862 91.3551 134.432 83.9738 139.723 74.1605C141.259 71.2591 142.923 68.3151 144.715 65.3285L146.635 61.7445L150.475 55.6005C150.987 53.9791 151.883 52.9551 153.163 52.5285C154.443 52.0165 155.808 51.7605 157.259 51.7605C158.795 51.7605 160.331 51.8031 161.867 51.8885C163.403 51.8885 164.811 51.4618 166.091 50.6085C167.371 49.7551 168.864 49.4565 170.571 49.7125C172.363 49.8831 173.942 50.4378 175.307 51.3765C176.758 52.3151 177.824 53.4671 178.507 54.8325C179.275 56.1125 179.36 57.3925 178.763 58.6725C175.179 66.3525 170.272 80.6458 164.043 101.552C162.592 106.246 161.227 110.171 159.947 113.328C157.814 115.974 155.126 117.766 151.883 118.704C148.64 119.643 145.568 119.899 142.667 119.472C139.851 119.131 137.59 118.15 135.883 116.528C134.176 114.992 133.792 113.03 134.731 110.64C132.342 112.603 129.867 114.395 127.307 116.016C124.747 117.638 121.632 118.704 117.963 119.216C114.379 119.728 110.923 119.558 107.595 118.704C104.267 117.936 101.408 116.4 99.019 114.096C96.715 111.792 95.4777 108.72 95.307 104.88C94.795 91.3978 100.128 75.7391 111.307 57.9045ZM190.084 58.4165C190.255 56.7951 191.279 55.4725 193.156 54.4485C195.033 53.4245 197.124 52.9125 199.428 52.9125C201.732 52.9125 203.951 53.4671 206.084 54.5765C208.303 55.6005 209.796 57.3925 210.564 59.9525C217.817 53.6378 224.431 51.2058 230.404 52.6565C232.452 53.0831 234.201 54.2778 235.652 56.2405C240.004 52.0591 244.825 49.3284 250.116 48.0485C256.772 47.7924 261.551 49.3284 264.452 52.6565C264.879 53.0831 265.305 53.5525 265.732 54.0645C266.927 55.3445 267.609 56.1978 267.78 56.6245C269.316 59.0138 269.743 64.5178 269.06 73.1365C268.121 84.3151 265.988 95.5365 262.66 106.8C260.868 112.518 259.247 115.462 257.796 115.632C256.943 115.803 256.132 115.803 255.364 115.632C254.681 115.462 254.041 115.334 253.444 115.248C252.932 115.248 252.633 115.76 252.548 116.784C250.841 119.003 248.239 120.112 244.74 120.112C241.327 120.112 238.425 119.046 236.036 116.912C233.391 114.694 232.452 112.091 233.22 109.104C234.073 106.032 235.012 102.918 236.036 99.7605C237.06 96.5178 238.169 93.1898 239.364 89.7765C241.412 83.8031 243.673 77.5738 246.148 71.0885C244.356 73.1365 241.924 77.0191 238.852 82.7365C235.78 88.3685 233.86 91.7391 233.092 92.8485C231.641 95.7498 230.447 98.0538 229.508 99.7605C228.569 101.382 227.289 102.704 225.668 103.728C224.132 104.667 222.681 105.264 221.316 105.52C220.036 105.776 218.799 105.819 217.604 105.648C214.788 105.222 212.783 104.027 211.588 102.064C211.332 101.382 211.076 100.699 210.82 100.016C210.564 99.3338 210.351 98.3951 210.18 97.2005C209.924 94.5551 210.265 90.2458 211.204 84.2725L210.948 84.6565C211.972 83.6325 212.313 83.3765 211.972 83.8885C208.559 88.7525 206.511 91.8671 205.828 93.2325C205.145 94.5978 204.42 96.1338 203.652 97.8405C202.884 99.4618 201.988 101.382 200.964 103.6C199.94 105.734 199.129 107.654 198.532 109.36C197.935 111.067 197.209 112.731 196.356 114.352C192.516 121.008 185.775 123.696 176.132 122.416C174.084 122.16 172.335 121.648 170.884 120.88C169.433 120.198 168.836 119.131 169.092 117.68C169.775 114.267 171.353 108.592 173.828 100.656C178.692 84.9551 181.593 74.8431 182.532 70.3205C183.129 68.7845 183.641 67.2058 184.068 65.5845C184.58 63.9631 185.092 62.5551 185.604 61.3605C186.628 58.5445 188.121 57.5631 190.084 58.4165ZM234.5 90.0325V90.2885C234.671 89.9471 234.671 89.8618 234.5 90.0325ZM301.265 61.7445C305.532 55.3445 311.462 51.5045 319.057 50.2245C321.532 49.7978 324.561 49.4991 328.145 49.3284C331.814 49.1578 334.929 49.9685 337.489 51.7605C340.134 53.5525 342.097 55.8565 343.377 58.6725C345.596 63.7071 345.937 69.8938 344.401 77.2325C343.548 81.2431 342.524 85.6805 341.329 90.5445C340.134 95.3231 338.342 100.059 335.953 104.752C333.564 109.446 330.449 113.84 326.609 117.936C322.769 122.032 317.777 125.275 311.633 127.664C307.964 129.115 304.721 129.627 301.905 129.2C299.174 128.859 297.126 128.304 295.761 127.536C294.396 126.768 293.457 125.659 292.945 124.208C291.238 129.072 289.617 133.979 288.081 138.928C286.63 143.963 284.668 148.742 282.193 153.264C280.486 154.374 278.396 155.184 275.921 155.696C273.446 156.294 271.014 156.166 268.625 155.312C266.236 154.544 264.529 153.094 263.505 150.96C262.396 148.912 261.841 146.651 261.841 144.176C261.841 140.848 262.652 136.795 264.273 132.016C266.662 124.934 268.625 119.472 270.161 115.632C271.612 111.792 272.55 109.318 272.977 108.208C273.404 107.014 273.83 105.776 274.257 104.496C276.134 99.5471 277.5 95.5365 278.353 92.4645C279.292 89.3071 280.145 86.5765 280.913 84.2725V84.1445C281.766 80.3898 283.089 76.4218 284.881 72.2405C286.758 67.9738 288.038 65.3711 288.721 64.4325C290.172 62.9818 291.665 62.0858 293.201 61.7445C294.737 61.4031 296.486 61.1898 298.449 61.1045H298.833L301.265 61.7445ZM310.993 83.1205C309.969 84.9125 308.262 86.5765 305.873 88.1125L304.721 90.8005C303.868 93.0191 303.057 95.2805 302.289 97.5845C301.521 99.8885 300.668 102.15 299.729 104.368C300.582 105.222 301.222 106.032 301.649 106.8C306.428 102.619 310.78 97.1151 314.705 90.2885C316.241 87.4725 317.222 84.6565 317.649 81.8405C318.161 79.0245 318.289 77.2325 318.033 76.4645C317.777 75.6965 317.35 75.3125 316.753 75.3125C316.241 75.3125 315.686 75.4831 315.089 75.8245C314.577 76.0805 314.15 76.3791 313.809 76.7205C313.553 76.9765 313.596 76.9765 313.937 76.7205C312.998 77.8298 312.316 78.8111 311.889 79.6645C311.462 80.4325 311.164 81.5845 310.993 83.1205ZM390.339 95.1525C388.718 95.9205 387.139 96.5178 385.603 96.9445C384.067 97.3711 382.275 97.7978 380.227 98.2245C374.851 99.3338 370.968 99.9738 368.579 100.144C368.835 100.998 370.115 102.022 372.419 103.216C373.955 103.472 375.619 103.259 377.411 102.576C379.288 101.808 381.208 101.126 383.171 100.528C385.219 99.8458 387.182 99.4618 389.059 99.3765C391.022 99.2911 392.856 100.016 394.563 101.552C395.246 103.088 395.8 103.984 396.227 104.24C396.654 104.496 397.038 104.624 397.379 104.624C397.72 104.624 398.104 104.752 398.531 105.008C398.958 105.264 399.555 106.246 400.323 107.952C401.176 109.659 400.963 111.28 399.683 112.816C398.488 114.352 396.611 115.675 394.051 116.784C391.491 117.894 388.504 118.79 385.091 119.472C381.678 120.155 378.264 120.624 374.851 120.88C367.171 121.478 361.326 120.88 357.315 119.088C351.512 117.126 347.758 113.243 346.051 107.44C343.832 99.7605 345.07 90.8005 349.763 80.5605C351.896 75.7818 355.267 70.6618 359.875 65.2005C363.886 60.4218 368.366 56.9658 373.315 54.8325C379.032 52.3578 385.006 51.2058 391.235 51.3765C397.891 51.5471 402.499 54.4485 405.059 60.0805C406.339 63.0671 406.595 67.2485 405.827 72.6245C404.462 79.6218 402.67 84.5711 400.451 87.4725C398.232 90.2885 394.862 92.8485 390.339 95.1525ZM382.915 74.9285C378.392 73.9898 374.851 76.5498 372.291 82.6085C371.523 84.2298 370.926 85.9365 370.499 87.7285C373.4 88.0698 376.472 86.4485 379.715 82.8645C380.91 81.4138 381.806 79.9631 382.403 78.5125C383 76.9765 383.171 75.7818 382.915 74.9285ZM420.729 61.1045C421.924 58.0325 423.588 55.7285 425.721 54.1925C427.94 52.5711 430.03 51.5898 431.993 51.2485C434.041 50.8218 435.705 51.0351 436.985 51.8885C438.35 52.7418 438.82 54.0645 438.393 55.8565C440.014 54.2351 442.361 52.7418 445.433 51.3765C448.505 50.0111 450.937 49.0725 452.729 48.5605C454.521 48.0485 456.057 47.7925 457.337 47.7925C460.153 47.9631 460.964 49.4991 459.769 52.4005C461.22 52.6565 462.286 53.5951 462.969 55.2165C463.652 56.8378 463.737 58.6298 463.225 60.5925C462.713 62.5551 461.561 64.4751 459.769 66.3525C457.977 68.2298 455.545 69.5098 452.473 70.1925C449.486 70.8751 446.969 72.4538 444.921 74.9285C442.958 77.3178 441.209 80.3045 439.673 83.8885C437.113 89.9471 434.809 98.5231 432.761 109.616C432.078 113.627 429.305 116.998 424.441 119.728C419.833 122.374 415.609 123.142 411.769 122.032C407.417 120.838 405.497 117.638 406.009 112.432C406.18 108.763 407.289 103.899 409.337 97.8405C411.385 91.6965 412.964 87.0885 414.073 84.0165C415.182 80.8591 415.95 78.4698 416.377 76.8485L420.729 61.1045Z"/>
</mask>
<path d="M87.376 17.5845L87.888 17.7125C90.0213 18.9925 91.856 20.4431 93.392 22.0644C95.0133 23.6004 96.464 25.2645 97.744 27.0565C99.1093 28.7631 100.176 30.6405 100.944 32.6884C104.187 40.5391 101.371 49.3285 92.496 59.0565C88.7413 63.1525 84.5173 66.6511 79.824 69.5525C81.0187 70.4058 82.128 71.0458 83.152 71.4725C84.2613 71.8138 85.7973 72.5391 87.76 73.6485C89.7227 74.6725 91.0027 76.6778 91.6 79.6645C92.1973 82.5658 92.0267 85.8511 91.088 89.5205C90.2347 93.1898 88.6133 96.9871 86.224 100.912C83.92 104.752 80.8907 108.208 77.136 111.28C68.6027 118.363 58.704 121.35 47.44 120.24C45.8187 120.24 44.7947 120.112 44.368 119.856C43.9413 119.6 43.6 119.387 43.344 119.216C43.088 119.046 42.5333 118.918 41.68 118.832C39.5467 120.539 37.1147 121.606 34.384 122.032C31.6533 122.459 29.0507 122.246 26.576 121.392C24.1867 120.539 22.1387 119.088 20.432 117.04C18.8107 114.992 18 112.304 18 108.976C18.256 106.758 18.6827 105.008 19.28 103.728C19.024 102.96 18.896 102.022 18.896 100.912C21.7973 85.4671 24.528 73.6485 27.088 65.4565C32.2933 49.1578 37.9253 36.8698 43.984 28.5924C48.9333 21.5951 55.8027 17.0724 64.592 15.0244C73.04 13.0618 80.6347 13.9151 87.376 17.5845ZM47.568 106.928C48.592 106.672 49.4453 106.63 50.128 106.8C50.896 106.886 51.792 106.843 52.816 106.672C55.2907 106.416 58.6187 104.88 62.8 102.064C65.4453 99.4191 66.8533 96.8165 67.024 94.2565C67.1947 91.6965 66.8107 90.0751 65.872 89.3925C64.9333 88.6245 63.6533 88.2405 62.032 88.2405C60.496 88.2405 58.7467 88.4965 56.784 89.0085C54.9067 89.4351 53.072 89.6911 51.28 89.7765V90.0325C50.8533 91.7391 50.4267 93.2325 50 94.5125C49.5733 95.7925 49.1893 97.0298 48.848 98.2245C48.08 101.04 47.4827 103.942 47.056 106.928H47.568ZM71.376 40.3685C68.816 40.0271 66.0427 42.0324 63.056 46.3844C61.1787 49.1151 59.728 53.2538 58.704 58.8005C60.496 58.0325 62.2453 57.3925 63.952 56.8805C65.744 56.2831 67.408 55.6431 68.944 54.9605C72.6987 53.3391 75.3867 51.3765 77.008 49.0725C78.8853 46.8538 79.4827 44.9764 78.8 43.4404C77.776 42.0751 76.112 40.8378 73.808 39.7285C73.1253 40.3258 72.3147 40.5391 71.376 40.3685ZM69.456 39.8564H69.84H69.456ZM111.307 57.9045C113.696 55.6005 116.342 54.2778 119.243 53.9365C122.23 53.5098 124.832 53.8085 127.051 54.8325C129.355 55.8565 131.019 57.5205 132.043 59.8245C133.152 62.0431 133.024 64.6031 131.659 67.5045C128.758 71.7711 126.454 76.3791 124.747 81.3285C123.04 86.2778 121.462 91.2698 120.011 96.3045C127.862 91.3551 134.432 83.9738 139.723 74.1605C141.259 71.2591 142.923 68.3151 144.715 65.3285L146.635 61.7445L150.475 55.6005C150.987 53.9791 151.883 52.9551 153.163 52.5285C154.443 52.0165 155.808 51.7605 157.259 51.7605C158.795 51.7605 160.331 51.8031 161.867 51.8885C163.403 51.8885 164.811 51.4618 166.091 50.6085C167.371 49.7551 168.864 49.4565 170.571 49.7125C172.363 49.8831 173.942 50.4378 175.307 51.3765C176.758 52.3151 177.824 53.4671 178.507 54.8325C179.275 56.1125 179.36 57.3925 178.763 58.6725C175.179 66.3525 170.272 80.6458 164.043 101.552C162.592 106.246 161.227 110.171 159.947 113.328C157.814 115.974 155.126 117.766 151.883 118.704C148.64 119.643 145.568 119.899 142.667 119.472C139.851 119.131 137.59 118.15 135.883 116.528C134.176 114.992 133.792 113.03 134.731 110.64C132.342 112.603 129.867 114.395 127.307 116.016C124.747 117.638 121.632 118.704 117.963 119.216C114.379 119.728 110.923 119.558 107.595 118.704C104.267 117.936 101.408 116.4 99.019 114.096C96.715 111.792 95.4777 108.72 95.307 104.88C94.795 91.3978 100.128 75.7391 111.307 57.9045ZM190.084 58.4165C190.255 56.7951 191.279 55.4725 193.156 54.4485C195.033 53.4245 197.124 52.9125 199.428 52.9125C201.732 52.9125 203.951 53.4671 206.084 54.5765C208.303 55.6005 209.796 57.3925 210.564 59.9525C217.817 53.6378 224.431 51.2058 230.404 52.6565C232.452 53.0831 234.201 54.2778 235.652 56.2405C240.004 52.0591 244.825 49.3284 250.116 48.0485C256.772 47.7924 261.551 49.3284 264.452 52.6565C264.879 53.0831 265.305 53.5525 265.732 54.0645C266.927 55.3445 267.609 56.1978 267.78 56.6245C269.316 59.0138 269.743 64.5178 269.06 73.1365C268.121 84.3151 265.988 95.5365 262.66 106.8C260.868 112.518 259.247 115.462 257.796 115.632C256.943 115.803 256.132 115.803 255.364 115.632C254.681 115.462 254.041 115.334 253.444 115.248C252.932 115.248 252.633 115.76 252.548 116.784C250.841 119.003 248.239 120.112 244.74 120.112C241.327 120.112 238.425 119.046 236.036 116.912C233.391 114.694 232.452 112.091 233.22 109.104C234.073 106.032 235.012 102.918 236.036 99.7605C237.06 96.5178 238.169 93.1898 239.364 89.7765C241.412 83.8031 243.673 77.5738 246.148 71.0885C244.356 73.1365 241.924 77.0191 238.852 82.7365C235.78 88.3685 233.86 91.7391 233.092 92.8485C231.641 95.7498 230.447 98.0538 229.508 99.7605C228.569 101.382 227.289 102.704 225.668 103.728C224.132 104.667 222.681 105.264 221.316 105.52C220.036 105.776 218.799 105.819 217.604 105.648C214.788 105.222 212.783 104.027 211.588 102.064C211.332 101.382 211.076 100.699 210.82 100.016C210.564 99.3338 210.351 98.3951 210.18 97.2005C209.924 94.5551 210.265 90.2458 211.204 84.2725L210.948 84.6565C211.972 83.6325 212.313 83.3765 211.972 83.8885C208.559 88.7525 206.511 91.8671 205.828 93.2325C205.145 94.5978 204.42 96.1338 203.652 97.8405C202.884 99.4618 201.988 101.382 200.964 103.6C199.94 105.734 199.129 107.654 198.532 109.36C197.935 111.067 197.209 112.731 196.356 114.352C192.516 121.008 185.775 123.696 176.132 122.416C174.084 122.16 172.335 121.648 170.884 120.88C169.433 120.198 168.836 119.131 169.092 117.68C169.775 114.267 171.353 108.592 173.828 100.656C178.692 84.9551 181.593 74.8431 182.532 70.3205C183.129 68.7845 183.641 67.2058 184.068 65.5845C184.58 63.9631 185.092 62.5551 185.604 61.3605C186.628 58.5445 188.121 57.5631 190.084 58.4165ZM234.5 90.0325V90.2885C234.671 89.9471 234.671 89.8618 234.5 90.0325ZM301.265 61.7445C305.532 55.3445 311.462 51.5045 319.057 50.2245C321.532 49.7978 324.561 49.4991 328.145 49.3284C331.814 49.1578 334.929 49.9685 337.489 51.7605C340.134 53.5525 342.097 55.8565 343.377 58.6725C345.596 63.7071 345.937 69.8938 344.401 77.2325C343.548 81.2431 342.524 85.6805 341.329 90.5445C340.134 95.3231 338.342 100.059 335.953 104.752C333.564 109.446 330.449 113.84 326.609 117.936C322.769 122.032 317.777 125.275 311.633 127.664C307.964 129.115 304.721 129.627 301.905 129.2C299.174 128.859 297.126 128.304 295.761 127.536C294.396 126.768 293.457 125.659 292.945 124.208C291.238 129.072 289.617 133.979 288.081 138.928C286.63 143.963 284.668 148.742 282.193 153.264C280.486 154.374 278.396 155.184 275.921 155.696C273.446 156.294 271.014 156.166 268.625 155.312C266.236 154.544 264.529 153.094 263.505 150.96C262.396 148.912 261.841 146.651 261.841 144.176C261.841 140.848 262.652 136.795 264.273 132.016C266.662 124.934 268.625 119.472 270.161 115.632C271.612 111.792 272.55 109.318 272.977 108.208C273.404 107.014 273.83 105.776 274.257 104.496C276.134 99.5471 277.5 95.5365 278.353 92.4645C279.292 89.3071 280.145 86.5765 280.913 84.2725V84.1445C281.766 80.3898 283.089 76.4218 284.881 72.2405C286.758 67.9738 288.038 65.3711 288.721 64.4325C290.172 62.9818 291.665 62.0858 293.201 61.7445C294.737 61.4031 296.486 61.1898 298.449 61.1045H298.833L301.265 61.7445ZM310.993 83.1205C309.969 84.9125 308.262 86.5765 305.873 88.1125L304.721 90.8005C303.868 93.0191 303.057 95.2805 302.289 97.5845C301.521 99.8885 300.668 102.15 299.729 104.368C300.582 105.222 301.222 106.032 301.649 106.8C306.428 102.619 310.78 97.1151 314.705 90.2885C316.241 87.4725 317.222 84.6565 317.649 81.8405C318.161 79.0245 318.289 77.2325 318.033 76.4645C317.777 75.6965 317.35 75.3125 316.753 75.3125C316.241 75.3125 315.686 75.4831 315.089 75.8245C314.577 76.0805 314.15 76.3791 313.809 76.7205C313.553 76.9765 313.596 76.9765 313.937 76.7205C312.998 77.8298 312.316 78.8111 311.889 79.6645C311.462 80.4325 311.164 81.5845 310.993 83.1205ZM390.339 95.1525C388.718 95.9205 387.139 96.5178 385.603 96.9445C384.067 97.3711 382.275 97.7978 380.227 98.2245C374.851 99.3338 370.968 99.9738 368.579 100.144C368.835 100.998 370.115 102.022 372.419 103.216C373.955 103.472 375.619 103.259 377.411 102.576C379.288 101.808 381.208 101.126 383.171 100.528C385.219 99.8458 387.182 99.4618 389.059 99.3765C391.022 99.2911 392.856 100.016 394.563 101.552C395.246 103.088 395.8 103.984 396.227 104.24C396.654 104.496 397.038 104.624 397.379 104.624C397.72 104.624 398.104 104.752 398.531 105.008C398.958 105.264 399.555 106.246 400.323 107.952C401.176 109.659 400.963 111.28 399.683 112.816C398.488 114.352 396.611 115.675 394.051 116.784C391.491 117.894 388.504 118.79 385.091 119.472C381.678 120.155 378.264 120.624 374.851 120.88C367.171 121.478 361.326 120.88 357.315 119.088C351.512 117.126 347.758 113.243 346.051 107.44C343.832 99.7605 345.07 90.8005 349.763 80.5605C351.896 75.7818 355.267 70.6618 359.875 65.2005C363.886 60.4218 368.366 56.9658 373.315 54.8325C379.032 52.3578 385.006 51.2058 391.235 51.3765C397.891 51.5471 402.499 54.4485 405.059 60.0805C406.339 63.0671 406.595 67.2485 405.827 72.6245C404.462 79.6218 402.67 84.5711 400.451 87.4725C398.232 90.2885 394.862 92.8485 390.339 95.1525ZM382.915 74.9285C378.392 73.9898 374.851 76.5498 372.291 82.6085C371.523 84.2298 370.926 85.9365 370.499 87.7285C373.4 88.0698 376.472 86.4485 379.715 82.8645C380.91 81.4138 381.806 79.9631 382.403 78.5125C383 76.9765 383.171 75.7818 382.915 74.9285ZM420.729 61.1045C421.924 58.0325 423.588 55.7285 425.721 54.1925C427.94 52.5711 430.03 51.5898 431.993 51.2485C434.041 50.8218 435.705 51.0351 436.985 51.8885C438.35 52.7418 438.82 54.0645 438.393 55.8565C440.014 54.2351 442.361 52.7418 445.433 51.3765C448.505 50.0111 450.937 49.0725 452.729 48.5605C454.521 48.0485 456.057 47.7925 457.337 47.7925C460.153 47.9631 460.964 49.4991 459.769 52.4005C461.22 52.6565 462.286 53.5951 462.969 55.2165C463.652 56.8378 463.737 58.6298 463.225 60.5925C462.713 62.5551 461.561 64.4751 459.769 66.3525C457.977 68.2298 455.545 69.5098 452.473 70.1925C449.486 70.8751 446.969 72.4538 444.921 74.9285C442.958 77.3178 441.209 80.3045 439.673 83.8885C437.113 89.9471 434.809 98.5231 432.761 109.616C432.078 113.627 429.305 116.998 424.441 119.728C419.833 122.374 415.609 123.142 411.769 122.032C407.417 120.838 405.497 117.638 406.009 112.432C406.18 108.763 407.289 103.899 409.337 97.8405C411.385 91.6965 412.964 87.0885 414.073 84.0165C415.182 80.8591 415.95 78.4698 416.377 76.8485L420.729 61.1045Z" fill="url(#paint0_radial_1_3)" shape-rendering="crispEdges"/>
<path d="M87.376 17.5845L80.683 29.8809L82.2499 30.7338L83.9806 31.1665L87.376 17.5845ZM87.888 17.7125L95.0909 5.70754L93.3045 4.63571L91.2835 4.13045L87.888 17.7125ZM93.392 22.0644L83.2287 31.6929L83.4889 31.9676L83.7636 32.2278L93.392 22.0644ZM97.744 27.0565L86.3517 35.1938L86.5735 35.5042L86.8118 35.8022L97.744 27.0565ZM100.944 32.6884L87.8354 37.6042L87.9163 37.82L88.0044 38.0331L100.944 32.6884ZM92.496 59.0565L102.816 68.5166L102.827 68.5043L102.839 68.4919L92.496 59.0565ZM79.824 69.5525L72.4625 57.6441L54.5598 68.7112L71.6867 80.9447L79.824 69.5525ZM83.152 71.4725L77.7674 84.3955L78.3901 84.655L79.0348 84.8534L83.152 71.4725ZM87.76 73.6485L80.8712 85.8363L81.0758 85.952L81.2841 86.0606L87.76 73.6485ZM91.6 79.6645L77.8719 82.4101L77.8796 82.4489L77.8876 82.4876L91.6 79.6645ZM91.088 89.5205L77.5248 86.0508L77.4867 86.1996L77.4519 86.3493L91.088 89.5205ZM86.224 100.912L74.2652 93.6332L74.2421 93.6713L74.2191 93.7095L86.224 100.912ZM77.136 111.28L68.2707 100.445L68.2325 100.476L68.1946 100.508L77.136 111.28ZM47.44 120.24L48.8122 106.308L48.1277 106.24H47.44V120.24ZM44.368 119.856L37.1651 131.861L37.1651 131.861L44.368 119.856ZM43.344 119.216L51.1098 107.568L51.1098 107.568L43.344 119.216ZM41.68 118.832L43.0731 104.902L37.3923 104.334L32.9343 107.9L41.68 118.832ZM34.384 122.032L32.2227 108.2L34.384 122.032ZM26.576 121.392L21.8673 134.577L21.9396 134.603L22.0121 134.628L26.576 121.392ZM20.432 117.04L9.45537 125.73L9.56443 125.868L9.67691 126.003L20.432 117.04ZM18 108.976L4.09228 107.372L4.00001 108.171V108.976H18ZM19.28 103.728L31.9666 109.649L34.3257 104.594L32.5616 99.3013L19.28 103.728ZM18.896 100.912L5.13666 98.3278L4.89601 99.6089V100.912H18.896ZM27.088 65.4565L13.7516 61.1972L13.7383 61.2389L13.7253 61.2806L27.088 65.4565ZM43.984 28.5924L55.2811 36.8614L55.3482 36.7697L55.4138 36.677L43.984 28.5924ZM64.592 15.0244L61.4239 1.38763L61.415 1.3897L64.592 15.0244ZM47.568 106.928V120.928H49.2915L50.9635 120.51L47.568 106.928ZM50.128 106.8L46.7325 120.382L47.6461 120.611L48.582 120.715L50.128 106.8ZM52.816 106.672L51.3754 92.7468L50.9431 92.7915L50.5144 92.8629L52.816 106.672ZM62.8 102.064L70.6204 113.677L71.7427 112.921L72.6995 111.964L62.8 102.064ZM65.872 89.3925L57.0067 100.228L57.3152 100.48L57.6376 100.715L65.872 89.3925ZM56.784 89.0085L59.8867 102.66L60.1031 102.611L60.3179 102.555L56.784 89.0085ZM51.28 89.7765L50.6141 75.7923L37.28 76.4273V89.7765H51.28ZM51.28 90.0325L64.862 93.4279L65.28 91.7559V90.0325H51.28ZM50 94.5125L63.2816 98.9396L63.2816 98.9396L50 94.5125ZM48.848 98.2245L35.3867 94.3784L35.3635 94.4595L35.3413 94.5408L48.848 98.2245ZM47.056 106.928L33.1967 104.949L30.9139 120.928H47.056V106.928ZM71.376 40.3685L73.8804 26.5943L73.5546 26.535L73.2263 26.4913L71.376 40.3685ZM63.056 46.3844L74.5926 54.3159L74.5992 54.3062L63.056 46.3844ZM58.704 58.8005L44.9367 56.2588L40.1907 81.9663L64.2189 71.6685L58.704 58.8005ZM63.952 56.8805L67.9749 70.29L68.178 70.2291L68.3792 70.162L63.952 56.8805ZM68.944 54.9605L63.3939 42.1076L63.3258 42.137L63.2581 42.1671L68.944 54.9605ZM77.008 49.0725L66.3206 40.0293L65.9177 40.5054L65.5587 41.0155L77.008 49.0725ZM78.8 43.4404L91.5934 37.7545L90.9502 36.3074L90 35.0404L78.8 43.4404ZM73.808 39.7285L79.8814 27.1144L71.5488 23.1024L64.5889 29.1924L73.808 39.7285ZM87.376 17.5845L83.9806 31.1665L84.4926 31.2945L87.888 17.7125L91.2835 4.13045L90.7715 4.00245L87.376 17.5845ZM87.888 17.7125L80.6851 29.7174C81.8507 30.4167 82.66 31.0926 83.2287 31.6929L93.392 22.0644L103.555 12.436C101.052 9.79362 98.192 7.56819 95.0909 5.70754L87.888 17.7125ZM93.392 22.0644L83.7636 32.2278C84.7426 33.1553 85.6007 34.1424 86.3517 35.1938L97.744 27.0565L109.136 18.9191C107.327 16.3865 105.284 14.0456 103.02 11.9011L93.392 22.0644ZM97.744 27.0565L86.8118 35.8022C87.2534 36.3541 87.5858 36.9386 87.8354 37.6042L100.944 32.6884L114.053 27.7727C112.766 24.3423 110.965 21.1721 108.676 18.3107L97.744 27.0565ZM100.944 32.6884L88.0044 38.0331C88.2496 38.6269 88.424 39.3599 87.9316 40.8969C87.3413 42.7394 85.7714 45.6549 82.1533 49.621L92.496 59.0565L102.839 68.4919C113.13 57.2111 120.22 42.6837 113.884 27.3438L100.944 32.6884ZM92.496 59.0565L82.1759 49.5963C79.2841 52.751 76.0541 55.4239 72.4625 57.6441L79.824 69.5525L87.1855 81.4608C92.9806 77.8784 98.1986 73.5539 102.816 68.5166L92.496 59.0565ZM79.824 69.5525L71.6867 80.9447C73.4808 82.2262 75.5169 83.4578 77.7674 84.3955L83.152 71.4725L88.5366 58.5494C88.6551 58.5987 88.6607 58.6108 88.5481 58.5459C88.4372 58.4819 88.2424 58.3609 87.9613 58.1602L79.824 69.5525ZM83.152 71.4725L79.0348 84.8534C78.735 84.7611 78.7434 84.7362 79.1579 84.9319C79.5358 85.1104 80.0979 85.3992 80.8712 85.8363L87.76 73.6485L94.6488 61.4606C92.4659 60.2268 89.8657 58.8905 87.2692 58.0915L83.152 71.4725ZM87.76 73.6485L81.2841 86.0606C79.9326 85.3555 78.9671 84.3553 78.3911 83.453C77.8767 82.647 77.8224 82.1625 77.8719 82.4101L91.6 79.6645L105.328 76.9188C104.231 71.4313 101.229 64.8849 94.2359 61.2363L87.76 73.6485ZM91.6 79.6645L77.8876 82.4876C77.9541 82.8104 78.0788 83.8852 77.5248 86.0508L91.088 89.5205L104.651 92.9901C105.975 87.817 106.441 82.3211 105.312 76.8413L91.6 79.6645ZM91.088 89.5205L77.4519 86.3493C77.0004 88.2906 76.0446 90.71 74.2652 93.6332L86.224 100.912L98.1828 108.192C101.182 103.264 103.469 98.0889 104.724 92.6916L91.088 89.5205ZM86.224 100.912L74.2191 93.7095C72.8112 96.0561 70.8816 98.3089 68.2707 100.445L77.136 111.28L86.0013 122.116C90.8998 118.108 95.0289 113.449 98.2289 108.115L86.224 100.912ZM77.136 111.28L68.1946 100.508C62.6051 105.147 56.4405 107.059 48.8122 106.308L47.44 120.24L46.0679 134.173C60.9675 135.64 74.6003 131.579 86.0774 122.053L77.136 111.28ZM47.44 120.24V106.24C46.9225 106.24 46.9003 106.216 47.1925 106.253C47.3461 106.272 47.78 106.331 48.3825 106.491C48.8978 106.627 50.1317 106.988 51.5709 107.852L44.368 119.856L37.1651 131.861C40.0427 133.588 42.9092 133.935 43.7195 134.036C45.0357 134.201 46.3362 134.24 47.44 134.24V120.24ZM44.368 119.856L51.571 107.852C51.4142 107.757 51.2963 107.685 51.212 107.632C51.1245 107.578 51.0952 107.558 51.1098 107.568L43.344 119.216L35.5782 130.865C36.0959 131.21 36.6484 131.551 37.1651 131.861L44.368 119.856ZM43.344 119.216L51.1098 107.568C48.8448 106.058 46.6529 105.528 45.884 105.351C44.8177 105.105 43.8267 104.977 43.0731 104.902L41.68 118.832L40.287 132.763C40.3867 132.773 40.0996 132.752 39.588 132.634C39.3213 132.572 38.8492 132.452 38.2561 132.233C37.7064 132.031 36.7119 131.621 35.5782 130.865L43.344 119.216ZM41.68 118.832L32.9343 107.9C32.7288 108.065 32.5729 108.146 32.2227 108.2L34.384 122.032L36.5453 135.865C41.6565 135.066 46.3646 133.014 50.4257 129.765L41.68 118.832ZM34.384 122.032L32.2227 108.2C31.619 108.295 31.3341 108.224 31.1399 108.157L26.576 121.392L22.0121 134.628C26.7673 136.267 31.6877 136.624 36.5453 135.865L34.384 122.032ZM26.576 121.392L31.2847 108.208C31.2759 108.205 31.2827 108.207 31.2994 108.216C31.3162 108.224 31.3309 108.234 31.3403 108.24C31.3493 108.247 31.3427 108.243 31.3202 108.222C31.2973 108.201 31.2519 108.156 31.1871 108.078L20.432 117.04L9.67691 126.003C12.9008 129.872 16.9998 132.838 21.8673 134.577L26.576 121.392ZM20.432 117.04L31.4086 108.351C31.58 108.567 31.7174 108.786 31.8219 108.989C31.9256 109.191 31.9829 109.351 32.0117 109.446C32.067 109.63 32 109.517 32 108.976H18H4.00001C4.00001 114.581 5.39303 120.599 9.45537 125.73L20.432 117.04ZM18 108.976L31.9077 110.581C31.9843 109.918 32.0655 109.514 32.1133 109.318C32.1645 109.108 32.1469 109.262 31.9666 109.649L19.28 103.728L6.59344 97.8081C5.10064 101.007 4.43271 104.421 4.09228 107.372L18 108.976ZM19.28 103.728L32.5616 99.3013C32.7503 99.8675 32.8294 100.306 32.8636 100.557C32.8981 100.81 32.896 100.938 32.896 100.912H18.896H4.89601C4.89601 103.01 5.12687 105.541 5.99844 108.156L19.28 103.728ZM18.896 100.912L32.6554 103.497C35.5239 88.2266 38.1359 77.0399 40.4507 69.6323L27.088 65.4565L13.7253 61.2806C10.9202 70.257 8.07083 82.7077 5.13666 98.3278L18.896 100.912ZM27.088 65.4565L40.4244 69.7157C45.4341 54.0294 50.5118 43.3772 55.2811 36.8614L43.984 28.5924L32.6869 20.3235C25.3389 30.3624 19.1525 44.2862 13.7516 61.1972L27.088 65.4565ZM43.984 28.5924L55.4138 36.677C58.2727 32.6352 62.1241 29.9745 67.769 28.6592L64.592 15.0244L61.415 1.3897C49.4813 4.17037 39.594 10.5551 32.5542 20.5079L43.984 28.5924ZM64.592 15.0244L67.7602 28.6613C73.333 27.3666 77.3482 28.0658 80.683 29.8809L87.376 17.5845L94.069 5.28798C83.9212 -0.235537 72.7471 -1.24301 61.4239 1.38763L64.592 15.0244ZM47.568 106.928L50.9635 120.51C50.7892 120.554 50.3409 120.654 49.6751 120.687C49.0086 120.72 47.9792 120.694 46.7325 120.382L50.128 106.8L53.5235 93.2185C49.7725 92.2807 46.4005 92.7895 44.1725 93.3465L47.568 106.928ZM50.128 106.8L48.582 120.715C50.9842 120.982 53.2277 120.797 55.1176 120.482L52.816 106.672L50.5144 92.8629C50.4617 92.8717 50.5327 92.8567 50.7101 92.8483C50.8856 92.8399 51.218 92.8354 51.6741 92.8861L50.128 106.8ZM52.816 106.672L54.2566 120.598C60.3576 119.967 66.1096 116.714 70.6204 113.677L62.8 102.064L54.9796 90.4523C53.297 91.5855 52.0869 92.2544 51.3012 92.617C50.4375 93.0157 50.5396 92.8332 51.3754 92.7468L52.816 106.672ZM62.8 102.064L72.6995 111.964C76.6661 107.997 80.5127 102.392 80.993 95.1877L67.024 94.2565L53.055 93.3252C53.1225 92.313 53.4196 91.6645 53.5264 91.467C53.6101 91.3122 53.5063 91.5591 52.9005 92.165L62.8 102.064ZM67.024 94.2565L80.993 95.1877C81.1269 93.1793 81.1259 90.591 80.4871 87.8939C79.8543 85.222 78.2506 81.0841 74.1064 78.0701L65.872 89.3925L57.6376 100.715C54.432 98.3834 53.4897 95.3976 53.2409 94.347C52.9861 93.2712 53.0918 92.7736 53.055 93.3252L67.024 94.2565ZM65.872 89.3925L74.7373 78.5571C70.5659 75.1441 65.7933 74.2405 62.032 74.2405V88.2405V102.24C61.5134 102.24 59.3008 102.105 57.0067 100.228L65.872 89.3925ZM62.032 88.2405V74.2405C58.9931 74.2405 56.0217 74.7388 53.2501 75.4618L56.784 89.0085L60.3179 102.555C60.8736 102.41 61.2954 102.329 61.5952 102.285C61.8966 102.241 62.0347 102.24 62.032 102.24V88.2405ZM56.784 89.0085L53.6813 75.3566C52.5471 75.6144 51.5285 75.7488 50.6141 75.7923L51.28 89.7765L51.9459 103.761C54.6155 103.633 57.2663 103.256 59.8867 102.66L56.784 89.0085ZM51.28 89.7765H37.28V90.0325H51.28H65.28V89.7765H51.28ZM51.28 90.0325L37.698 86.637C37.3338 88.0939 37.0039 89.229 36.7184 90.0853L50 94.5125L63.2816 98.9396C63.8495 97.2359 64.3729 95.3844 64.862 93.4279L51.28 90.0325ZM50 94.5125L36.7184 90.0853C36.233 91.5415 35.7882 92.973 35.3867 94.3784L48.848 98.2245L62.3093 102.071C62.5905 101.087 62.9136 100.043 63.2816 98.9396L50 94.5125ZM48.848 98.2245L35.3413 94.5408C34.4155 97.9353 33.7027 101.406 33.1967 104.949L47.056 106.928L60.9153 108.908C61.2626 106.477 61.7445 104.146 62.3547 101.908L48.848 98.2245ZM47.056 106.928V120.928H47.568V106.928V92.9285H47.056V106.928ZM71.376 40.3685L73.2263 26.4913C67.3635 25.7095 62.4935 27.8704 59.1728 30.2715C55.9779 32.5817 53.4765 35.6012 51.5128 38.4627L63.056 46.3844L74.5992 54.3062C75.6221 52.8157 76.0008 52.6565 75.5792 52.9614C75.0318 53.3572 72.8286 54.686 69.5257 54.2456L71.376 40.3685ZM63.056 46.3844L51.5194 38.453C48.0084 43.56 46.1012 49.9506 44.9367 56.2588L58.704 58.8005L72.4714 61.3421C73.3548 56.5569 74.349 54.6702 74.5926 54.3159L63.056 46.3844ZM58.704 58.8005L64.2189 71.6685C65.5691 71.0898 66.8201 70.6365 67.9749 70.29L63.952 56.8805L59.9291 43.4709C57.6706 44.1484 55.423 44.9751 53.1891 45.9324L58.704 58.8005ZM63.952 56.8805L68.3792 70.162C70.5471 69.4394 72.6358 68.6401 74.6299 67.7538L68.944 54.9605L63.2581 42.1671C62.1802 42.6461 60.941 43.1268 59.5248 43.5989L63.952 56.8805ZM68.944 54.9605L74.4941 67.8133C79.6106 65.6039 84.8236 62.2931 88.4573 57.1294L77.008 49.0725L65.5587 41.0155C65.7711 40.7138 65.8477 40.7267 65.5203 40.9657C65.1832 41.2118 64.523 41.62 63.3939 42.1076L68.944 54.9605ZM77.008 49.0725L87.6954 58.1156C90.3771 54.9464 95.7399 47.0843 91.5934 37.7545L78.8 43.4404L66.0066 49.1264C64.7218 46.2354 64.972 43.4875 65.523 41.7556C65.9839 40.3073 66.5834 39.7187 66.3206 40.0293L77.008 49.0725ZM78.8 43.4404L90 35.0404C87.1251 31.2072 83.282 28.7517 79.8814 27.1144L73.808 39.7285L67.7346 52.3425C67.9899 52.4654 68.171 52.5648 68.2894 52.6348C68.4083 52.7051 68.4493 52.7372 68.4302 52.7229C68.4054 52.7045 68.0471 52.4365 67.6 51.8405L78.8 43.4404ZM73.808 39.7285L64.5889 29.1924C65.7393 28.1858 67.2699 27.2856 69.1251 26.7974C70.9574 26.3152 72.6132 26.3639 73.8804 26.5943L71.376 40.3685L68.8716 54.1426C73.7562 55.0307 78.9467 53.8349 83.0271 50.2645L73.808 39.7285ZM69.456 39.8564V53.8564H69.84V39.8564V25.8564H69.456V39.8564ZM69.84 39.8564V25.8564H69.456V39.8564V53.8564H69.84V39.8564ZM111.307 57.9045L101.589 47.8266L100.355 49.0166L99.4446 50.4692L111.307 57.9045ZM119.243 53.9365L120.879 67.8406L121.051 67.8203L121.223 67.7957L119.243 53.9365ZM127.051 54.8325L121.184 67.5439L121.274 67.5855L121.365 67.6258L127.051 54.8325ZM132.043 59.8245L119.25 65.5104L119.379 65.801L119.521 66.0854L132.043 59.8245ZM131.659 67.5045L143.236 75.3768L143.857 74.4642L144.326 73.4656L131.659 67.5045ZM120.011 96.3045L106.558 92.4283L96.3803 127.752L127.477 108.147L120.011 96.3045ZM139.723 74.1605L152.046 80.8042L152.071 80.7577L152.096 80.7109L139.723 74.1605ZM144.715 65.3285L156.72 72.5314L156.895 72.2396L157.056 71.9395L144.715 65.3285ZM146.635 61.7445L134.763 54.3245L134.515 54.7211L134.294 55.1334L146.635 61.7445ZM150.475 55.6005L162.347 63.0204L163.29 61.5123L163.825 59.8163L150.475 55.6005ZM153.163 52.5285L157.59 65.81L157.98 65.6799L158.362 65.5271L153.163 52.5285ZM161.867 51.8885L161.09 65.8669L161.478 65.8885H161.867V51.8885ZM166.091 50.6085L173.857 62.2572L173.857 62.2571L166.091 50.6085ZM170.571 49.7125L168.494 63.5576L168.868 63.6136L169.244 63.6494L170.571 49.7125ZM175.307 51.3765L167.376 62.913L167.537 63.024L167.701 63.1304L175.307 51.3765ZM178.507 54.8325L165.985 61.0935L166.225 61.5743L166.502 62.0354L178.507 54.8325ZM178.763 58.6725L166.076 52.752L166.076 52.7521L178.763 58.6725ZM164.043 101.552L177.419 105.687L177.44 105.619L177.46 105.55L164.043 101.552ZM159.947 113.328L170.845 122.117L172.144 120.506L172.921 118.588L159.947 113.328ZM151.883 118.704L155.776 132.152L155.776 132.152L151.883 118.704ZM142.667 119.472L144.704 105.621L144.528 105.596L144.352 105.574L142.667 119.472ZM135.883 116.528L145.526 106.378L145.389 106.249L145.249 106.122L135.883 116.528ZM134.731 110.64L147.762 115.76L167.448 65.6479L125.845 99.8223L134.731 110.64ZM127.307 116.016L134.798 127.844L134.798 127.844L127.307 116.016ZM117.963 119.216L116.028 105.351L116.006 105.354L115.983 105.357L117.963 119.216ZM107.595 118.704L111.072 105.143L110.908 105.101L110.743 105.063L107.595 118.704ZM99.019 114.096L89.1195 123.996L89.2095 124.086L89.3011 124.174L99.019 114.096ZM95.307 104.88L81.3171 105.412L81.3188 105.457L81.3208 105.502L95.307 104.88ZM111.307 57.9045L121.025 67.9823C121.175 67.8377 121.278 67.7573 121.33 67.7201C121.38 67.6837 121.385 67.6858 121.344 67.7064C121.302 67.7276 121.231 67.7581 121.138 67.786C121.044 67.8141 120.955 67.8316 120.879 67.8406L119.243 53.9365L117.607 40.0323C111.259 40.7792 105.867 43.7011 101.589 47.8266L111.307 57.9045ZM119.243 53.9365L121.223 67.7957C121.706 67.7267 121.891 67.7551 121.839 67.7492C121.812 67.746 121.732 67.7347 121.611 67.7016C121.489 67.6682 121.343 67.6174 121.184 67.5439L127.051 54.8325L132.918 42.121C127.73 39.7266 122.293 39.3586 117.263 40.0772L119.243 53.9365ZM127.051 54.8325L121.365 67.6258C121.06 67.4902 120.595 67.2154 120.128 66.7479C119.66 66.2805 119.385 65.8156 119.25 65.5104L132.043 59.8245L144.836 54.1385C142.405 48.6673 138.208 44.4708 132.737 42.0391L127.051 54.8325ZM132.043 59.8245L119.521 66.0854C118.961 64.9654 118.744 63.7528 118.796 62.7093C118.843 61.7714 119.085 61.3441 118.992 61.5433L131.659 67.5045L144.326 73.4656C146.937 67.9177 148.13 60.6929 144.565 53.5635L132.043 59.8245ZM131.659 67.5045L120.082 59.6321C116.474 64.9384 113.616 70.6612 111.512 76.7646L124.747 81.3285L137.982 85.8923C139.291 82.097 141.042 78.6038 143.236 75.3768L131.659 67.5045ZM124.747 81.3285L111.512 76.7646C109.727 81.9414 108.075 87.1627 106.558 92.4283L120.011 96.3045L133.464 100.181C134.848 95.3769 136.354 90.6142 137.982 85.8923L124.747 81.3285ZM120.011 96.3045L127.477 108.147C137.742 101.676 145.841 92.3133 152.046 80.8042L139.723 74.1605L127.4 67.5167C123.023 75.6343 117.982 81.034 112.545 84.4615L120.011 96.3045ZM139.723 74.1605L152.096 80.7109C153.508 78.0432 155.049 75.3168 156.72 72.5314L144.715 65.3285L132.71 58.1255C130.797 61.3135 129.01 64.4751 127.35 67.61L139.723 74.1605ZM144.715 65.3285L157.056 71.9395L158.976 68.3555L146.635 61.7445L134.294 55.1334L132.374 58.7174L144.715 65.3285ZM146.635 61.7445L158.507 69.1644L162.347 63.0204L150.475 55.6005L138.603 48.1805L134.763 54.3245L146.635 61.7445ZM150.475 55.6005L163.825 59.8163C163.64 60.4039 163.168 61.5771 162.067 62.8355C160.891 64.1799 159.332 65.2293 157.59 65.81L153.163 52.5285L148.736 39.2469C142.103 41.4578 138.596 46.7248 137.125 51.3846L150.475 55.6005ZM153.163 52.5285L158.362 65.5271C158.15 65.6122 157.933 65.674 157.727 65.7127C157.522 65.7511 157.361 65.7605 157.259 65.7605V51.7605V37.7605C154.122 37.7605 150.983 38.3221 147.964 39.5298L153.163 52.5285ZM157.259 51.7605V65.7605C158.536 65.7605 159.813 65.7959 161.09 65.8669L161.867 51.8885L162.644 37.91C160.849 37.8103 159.054 37.7605 157.259 37.7605V51.7605ZM161.867 51.8885V65.8885C166.172 65.8885 170.281 64.6411 173.857 62.2572L166.091 50.6085L158.325 38.9597C158.776 38.6595 159.346 38.3729 160.015 38.1701C160.684 37.9672 161.32 37.8885 161.867 37.8885V51.8885ZM166.091 50.6085L173.857 62.2571C172.991 62.8343 171.982 63.2596 170.917 63.4726C169.878 63.6803 169.032 63.6382 168.494 63.5576L170.571 49.7125L172.648 35.8673C167.952 35.163 162.858 35.9381 158.325 38.9598L166.091 50.6085ZM170.571 49.7125L169.244 63.6494C169.095 63.6352 168.817 63.5911 168.458 63.4649C168.093 63.3367 167.721 63.1507 167.376 62.913L175.307 51.3765L183.238 39.8399C179.744 37.4378 175.849 36.1518 171.898 35.7755L170.571 49.7125ZM175.307 51.3765L167.701 63.1304C167.545 63.0292 167.256 62.8166 166.922 62.4562C166.582 62.0883 166.253 61.6288 165.985 61.0935L178.507 54.8325L191.029 48.5715C189.086 44.6856 186.181 41.7371 182.913 39.6225L175.307 51.3765ZM178.507 54.8325L166.502 62.0354C165.93 61.0823 165.306 59.5971 165.178 57.6837C165.048 55.7361 165.48 54.0301 166.076 52.752L178.763 58.6725L191.45 64.5929C194.144 58.8197 193.512 52.6293 190.512 47.6295L178.507 54.8325ZM178.763 58.6725L166.076 52.7521C162.002 61.483 156.84 76.6997 150.626 97.5547L164.043 101.552L177.46 105.55C183.705 84.5919 188.356 71.2219 191.45 64.5928L178.763 58.6725ZM164.043 101.552L150.667 97.4182C149.288 101.881 148.054 105.402 146.973 108.069L159.947 113.328L172.921 118.588C174.4 114.94 175.897 110.61 177.419 105.687L164.043 101.552ZM159.947 113.328L149.049 104.54C148.705 104.967 148.456 105.122 147.99 105.257L151.883 118.704L155.776 132.152C161.796 130.41 166.922 126.981 170.845 122.117L159.947 113.328ZM151.883 118.704L147.99 105.257C146.383 105.722 145.344 105.716 144.704 105.621L142.667 119.472L140.63 133.323C145.792 134.083 150.898 133.564 155.776 132.152L151.883 118.704ZM142.667 119.472L144.352 105.574C144.086 105.542 144.154 105.517 144.432 105.638C144.733 105.768 145.135 106.008 145.526 106.378L135.883 116.528L126.241 126.678C130.546 130.769 135.808 132.744 140.982 133.371L142.667 119.472ZM135.883 116.528L145.249 106.122C146.303 107.071 147.58 108.789 148.055 111.216C148.501 113.5 147.994 115.168 147.762 115.76L134.731 110.64L121.7 105.521C120.53 108.502 119.745 112.347 120.576 116.593C121.434 120.982 123.757 124.45 126.518 126.935L135.883 116.528ZM134.731 110.64L125.845 99.8223C123.89 101.428 121.881 102.881 119.816 104.189L127.307 116.016L134.798 127.844C137.853 125.909 140.793 123.779 143.617 121.459L134.731 110.64ZM127.307 116.016L119.816 104.189C119.274 104.533 118.152 105.054 116.028 105.351L117.963 119.216L119.898 133.082C125.113 132.354 130.22 130.743 134.798 127.844L127.307 116.016ZM117.963 119.216L115.983 105.357C114.121 105.623 112.524 105.515 111.072 105.143L107.595 118.704L104.118 132.266C109.322 133.6 114.637 133.834 119.943 133.076L117.963 119.216ZM107.595 118.704L110.743 105.063C109.812 104.848 109.245 104.508 108.737 104.019L99.019 114.096L89.3011 124.174C93.5718 128.292 98.7218 131.025 104.447 132.346L107.595 118.704ZM99.019 114.096L108.919 104.197C109.004 104.283 109.097 104.394 109.182 104.523C109.267 104.652 109.32 104.762 109.349 104.834C109.409 104.981 109.319 104.846 109.293 104.259L95.307 104.88L81.3208 105.502C81.6172 112.17 83.9075 118.784 89.1195 123.996L99.019 114.096ZM95.307 104.88L109.297 104.349C108.936 94.8448 112.71 82.0275 123.169 65.3397L111.307 57.9045L99.4446 50.4692C87.547 69.4508 80.654 87.9508 81.3171 105.412L95.307 104.88ZM190.084 58.4165L184.502 71.2554L202.009 78.8671L204.007 59.882L190.084 58.4165ZM206.084 54.5765L199.625 66.9975L199.918 67.1497L200.217 67.2879L206.084 54.5765ZM210.564 59.9525L197.154 63.9753L203.39 84.7603L219.757 70.5116L210.564 59.9525ZM230.404 52.6565L227.1 66.261L227.324 66.3153L227.549 66.3622L230.404 52.6565ZM235.652 56.2405L224.394 64.5619L233.863 77.3738L245.352 66.3359L235.652 56.2405ZM250.116 48.0485L249.578 34.0588L248.182 34.1125L246.824 34.441L250.116 48.0485ZM264.452 52.6565L253.899 61.8563L254.214 62.2173L254.553 62.5559L264.452 52.6565ZM265.732 54.0645L254.977 63.027L255.229 63.3293L255.497 63.6169L265.732 54.0645ZM267.78 56.6245L254.781 61.824L255.279 63.068L256.004 64.1951L267.78 56.6245ZM269.06 73.1365L283.011 74.3079L283.014 74.2749L283.016 74.2419L269.06 73.1365ZM262.66 106.8L276.019 110.988L276.054 110.878L276.086 110.767L262.66 106.8ZM257.796 115.632L256.16 101.728L255.602 101.794L255.05 101.904L257.796 115.632ZM255.364 115.632L251.969 129.214L252.147 129.259L252.327 129.299L255.364 115.632ZM253.444 115.248L255.424 101.389L254.439 101.248H253.444V115.248ZM252.548 116.784L263.645 125.32L266.157 122.054L266.5 117.947L252.548 116.784ZM236.036 116.912L245.36 106.469L245.199 106.325L245.033 106.186L236.036 116.912ZM233.22 109.104L219.731 105.357L219.695 105.487L219.661 105.618L233.22 109.104ZM236.036 99.7605L249.353 104.08L249.37 104.028L249.386 103.976L236.036 99.7605ZM239.364 89.7765L252.578 94.4014L252.593 94.3592L252.607 94.317L239.364 89.7765ZM246.148 71.0885L259.228 76.0795L235.612 61.8694L246.148 71.0885ZM238.852 82.7365L251.143 89.4404L251.164 89.4017L251.185 89.3629L238.852 82.7365ZM233.092 92.8485L221.581 84.8795L221.015 85.6976L220.57 86.5875L233.092 92.8485ZM229.508 99.7605L241.624 106.775L241.701 106.642L241.775 106.507L229.508 99.7605ZM225.668 103.728L232.968 115.674L233.057 115.62L233.144 115.565L225.668 103.728ZM221.316 105.52L218.736 91.7602L218.653 91.7758L218.57 91.7923L221.316 105.52ZM217.604 105.648L215.507 119.49L215.565 119.499L215.624 119.508L217.604 105.648ZM211.588 102.064L198.479 106.98L198.943 108.216L199.629 109.344L211.588 102.064ZM210.82 100.016L223.929 95.1007L223.929 95.1007L210.82 100.016ZM210.18 97.2005L196.245 98.549L196.276 98.8655L196.321 99.1804L210.18 97.2005ZM211.204 84.2725L225.034 86.4458L199.555 76.5067L211.204 84.2725ZM210.948 84.6565L199.299 76.8907L220.848 94.5559L210.948 84.6565ZM211.972 83.8885L223.432 91.9304L223.528 91.7935L223.621 91.6543L211.972 83.8885ZM205.828 93.2325L218.35 99.4935L218.35 99.4934L205.828 93.2325ZM203.652 97.8405L216.304 103.834L216.363 103.71L216.419 103.586L203.652 97.8405ZM200.964 103.6L213.585 109.659L213.631 109.563L213.675 109.467L200.964 103.6ZM198.532 109.36L211.746 113.985L211.746 113.985L198.532 109.36ZM196.356 114.352L208.483 121.349L208.618 121.113L208.745 120.873L196.356 114.352ZM176.132 122.416L177.974 108.538L177.921 108.531L177.868 108.525L176.132 122.416ZM170.884 120.88L177.434 108.507L177.143 108.353L176.845 108.213L170.884 120.88ZM169.092 117.68L155.364 114.935L155.333 115.091L155.305 115.247L169.092 117.68ZM173.828 100.656L187.193 104.824L187.197 104.812L187.201 104.799L173.828 100.656ZM182.532 70.3205L169.484 65.2462L169.061 66.3333L168.824 67.4754L182.532 70.3205ZM184.068 65.5845L170.718 61.3686L170.615 61.6928L170.529 62.0215L184.068 65.5845ZM185.604 61.3605L198.472 66.8753L198.627 66.5141L198.761 66.1449L185.604 61.3605ZM234.5 90.0325L224.601 80.133L220.5 84.2335V90.0325H234.5ZM234.5 90.2885H220.5L247.022 96.5494L234.5 90.2885ZM190.084 58.4165L204.007 59.882C203.813 61.7288 203.087 63.4394 202.05 64.7789C201.099 66.0076 200.164 66.5733 199.86 66.739L193.156 54.4485L186.452 42.1579C181.93 44.6244 176.958 49.3741 176.161 56.9509L190.084 58.4165ZM193.156 54.4485L199.86 66.739C199.728 66.8108 199.585 66.8644 199.462 66.8946C199.344 66.9236 199.32 66.9125 199.428 66.9125V52.9125V38.9125C194.968 38.9125 190.544 39.9262 186.452 42.1579L193.156 54.4485ZM199.428 52.9125V66.9125C199.441 66.9125 199.442 66.9131 199.436 66.9123C199.433 66.912 199.43 66.9116 199.428 66.9111C199.425 66.9106 199.424 66.9103 199.425 66.9104C199.425 66.9105 199.439 66.9139 199.468 66.9252C199.498 66.9366 199.55 66.9585 199.625 66.9975L206.084 54.5765L212.543 42.1554C208.505 40.0555 204.08 38.9125 199.428 38.9125V52.9125ZM206.084 54.5765L200.217 67.2879C199.531 66.9712 198.761 66.4282 198.113 65.651C197.487 64.9 197.234 64.242 197.154 63.9753L210.564 59.9525L223.974 55.9296C222.174 49.931 218.179 44.7398 211.951 41.865L206.084 54.5765ZM210.564 59.9525L219.757 70.5116C222.536 68.0916 224.554 66.9888 225.796 66.5321C226.383 66.3164 226.737 66.2662 226.892 66.2541C227.032 66.2432 227.082 66.2565 227.1 66.261L230.404 52.6565L233.708 39.0519C221.265 36.0301 210.06 41.8288 201.371 49.3933L210.564 59.9525ZM230.404 52.6565L227.549 66.3622C226.745 66.1947 225.985 65.8626 225.357 65.4337C224.756 65.0238 224.461 64.6527 224.394 64.5619L235.652 56.2405L246.91 47.919C243.777 43.6796 239.226 40.1938 233.259 38.9507L230.404 52.6565ZM235.652 56.2405L245.352 66.3359C248.116 63.6802 250.782 62.2913 253.408 61.6559L250.116 48.0485L246.824 34.441C238.869 36.3656 231.892 40.438 225.952 46.145L235.652 56.2405ZM250.116 48.0485L250.654 62.0381C252.851 61.9536 253.991 62.2029 254.408 62.3368C254.71 62.434 254.343 62.3654 253.899 61.8563L264.452 52.6565L275.005 43.4566C268.141 35.5838 258.267 33.7246 249.578 34.0588L250.116 48.0485ZM264.452 52.6565L254.553 62.5559C254.651 62.6544 254.794 62.8069 254.977 63.027L265.732 54.0645L276.487 45.1019C275.817 44.298 275.106 43.5119 274.352 42.757L264.452 52.6565ZM265.732 54.0645L255.497 63.6169C255.723 63.8589 255.895 64.0494 256.022 64.1933C256.084 64.2642 256.131 64.3184 256.164 64.357C256.197 64.3961 256.21 64.4132 256.208 64.4102C256.206 64.4082 256.179 64.3746 256.134 64.313C256.089 64.2535 256.01 64.1437 255.907 63.9903C255.809 63.8422 255.655 63.6021 255.477 63.2849C255.308 62.9834 255.045 62.4829 254.781 61.824L267.78 56.6245L280.779 51.4249C279.846 49.0926 278.417 47.3492 278.072 46.9187C277.418 46.1006 276.681 45.2776 275.967 44.512L265.732 54.0645ZM267.78 56.6245L256.004 64.1951C255.622 63.6022 255.405 63.1175 255.293 62.8357C255.18 62.5498 255.139 62.3822 255.138 62.3787C255.136 62.371 255.16 62.467 255.193 62.6895C255.226 62.9092 255.262 63.2176 255.294 63.6265C255.429 65.3633 255.416 68.0914 255.104 72.031L269.06 73.1365L283.016 74.2419C283.387 69.5628 283.502 65.2296 283.21 61.4624C282.957 58.1939 282.282 53.2933 279.557 49.0538L267.78 56.6245ZM269.06 73.1365L255.109 71.965C254.254 82.1531 252.305 92.4385 249.234 102.834L262.66 106.8L276.086 110.767C279.671 98.6344 281.989 86.4771 283.011 74.3079L269.06 73.1365ZM262.66 106.8L249.301 102.613C248.504 105.157 247.979 106.285 247.837 106.543C247.758 106.687 248.083 106.031 248.948 105.153C249.733 104.358 252.129 102.203 256.16 101.728L257.796 115.632L259.432 129.537C264.188 128.977 267.331 126.389 268.884 124.815C270.517 123.159 271.632 121.378 272.363 120.05C273.843 117.364 275.025 114.161 276.019 110.988L262.66 106.8ZM257.796 115.632L255.05 101.904C255.904 101.734 257.074 101.671 258.401 101.966L255.364 115.632L252.327 129.299C255.19 129.935 257.981 129.873 260.542 129.361L257.796 115.632ZM255.364 115.632L258.76 102.05C257.685 101.782 256.568 101.553 255.424 101.389L253.444 115.248L251.464 129.108C251.515 129.115 251.678 129.142 251.969 129.214L255.364 115.632ZM253.444 115.248V101.248C247.339 101.248 242.93 104.83 240.743 108.578C239.037 111.503 238.703 114.343 238.596 115.622L252.548 116.784L266.5 117.947C266.478 118.202 266.336 120.274 264.929 122.687C264.134 124.049 262.773 125.794 260.576 127.181C258.286 128.627 255.774 129.248 253.444 129.248V115.248ZM252.548 116.784L241.451 108.249C242.08 107.432 242.942 106.779 243.827 106.402C244.619 106.064 245.036 106.112 244.74 106.112V120.112V134.112C251.386 134.112 258.634 131.835 263.645 125.32L252.548 116.784ZM244.74 120.112V106.112C244.51 106.112 244.585 106.081 244.835 106.172C244.95 106.215 245.065 106.27 245.17 106.333C245.273 106.396 245.337 106.448 245.36 106.469L236.036 116.912L226.712 127.356C231.844 131.938 238.133 134.112 244.74 134.112V120.112ZM236.036 116.912L245.033 106.186C245.14 106.276 245.964 107.011 246.518 108.547C247.11 110.188 247.011 111.687 246.779 112.591L233.22 109.104L219.661 105.618C218.661 109.509 218.648 113.802 220.178 118.046C221.671 122.184 224.287 125.331 227.039 127.639L236.036 116.912ZM233.22 109.104L246.709 112.851C247.507 109.979 248.388 107.055 249.353 104.08L236.036 99.7605L222.719 95.4414C221.636 98.7805 220.64 102.086 219.731 105.357L233.22 109.104ZM236.036 99.7605L249.386 103.976C250.364 100.879 251.428 97.6875 252.578 94.4014L239.364 89.7765L226.15 85.1515C224.911 88.6921 223.756 92.1566 222.686 95.5446L236.036 99.7605ZM239.364 89.7765L252.607 94.317C254.599 88.5087 256.805 82.4301 259.228 76.0795L246.148 71.0885L233.068 66.0974C230.542 72.7175 228.225 79.0975 226.121 85.2359L239.364 89.7765ZM246.148 71.0885L235.612 61.8694C232.669 65.2323 229.594 70.3872 226.52 76.11L238.852 82.7365L251.185 89.3629C254.254 83.6511 256.043 81.0406 256.684 80.3075L246.148 71.0885ZM238.852 82.7365L226.561 76.0325C225.044 78.8148 223.842 80.9808 222.943 82.5591C221.942 84.3168 221.561 84.909 221.581 84.8795L233.092 92.8485L244.603 100.817C245.901 98.9416 248.245 94.7533 251.143 89.4404L238.852 82.7365ZM233.092 92.8485L220.57 86.5875C219.155 89.4171 218.053 91.5373 217.241 93.0136L229.508 99.7605L241.775 106.507C242.84 104.57 244.127 102.082 245.614 99.1094L233.092 92.8485ZM229.508 99.7605L217.392 92.7459C217.484 92.5868 217.616 92.4058 217.784 92.2326C217.95 92.0604 218.1 91.9497 218.192 91.8916L225.668 103.728L233.144 115.565C236.632 113.362 239.524 110.403 241.624 106.775L229.508 99.7605ZM225.668 103.728L218.368 91.7825C218.139 91.9222 218.05 91.9545 218.098 91.935C218.147 91.9147 218.364 91.8299 218.736 91.7602L221.316 105.52L223.896 119.281C227.345 118.634 230.39 117.25 232.968 115.674L225.668 103.728ZM221.316 105.52L218.57 91.7923C218.719 91.7625 219.084 91.7177 219.584 91.7892L217.604 105.648L215.624 119.508C218.514 119.921 221.353 119.79 224.062 119.249L221.316 105.52ZM217.604 105.648L219.701 91.8064C219.707 91.8073 219.854 91.8297 220.106 91.9147C220.363 92.001 220.728 92.1517 221.153 92.405C222.079 92.9566 222.938 93.7846 223.547 94.7852L211.588 102.064L199.629 109.344C203.484 115.676 209.665 118.605 215.507 119.49L217.604 105.648ZM211.588 102.064L224.697 97.1487C224.601 96.8926 224.409 96.3809 224.313 96.1247C224.265 95.9967 224.169 95.7408 224.121 95.6127C224.073 95.4847 223.977 95.2288 223.929 95.1007L210.82 100.016L197.711 104.932C197.807 105.188 197.999 105.7 198.095 105.956C198.113 106.002 198.27 106.422 198.287 106.468C198.301 106.504 198.466 106.945 198.479 106.98L211.588 102.064ZM210.82 100.016L223.929 95.1007C224.009 95.3139 224.058 95.4734 224.084 95.5636C224.111 95.6555 224.121 95.7031 224.12 95.6977C224.119 95.6934 224.11 95.652 224.095 95.5683C224.08 95.4853 224.061 95.3704 224.039 95.2206L210.18 97.2005L196.321 99.1804C196.555 100.817 196.944 102.887 197.711 104.932L210.82 100.016ZM210.18 97.2005L224.115 95.8519C224.044 95.1243 224.107 92.3495 225.034 86.4458L211.204 84.2725L197.374 82.0991C196.424 88.1421 195.804 93.9859 196.245 98.549L210.18 97.2005ZM211.204 84.2725L199.555 76.5067L199.299 76.8907L210.948 84.6565L222.597 92.4223L222.853 92.0383L211.204 84.2725ZM210.948 84.6565L220.848 94.5559C221.542 93.861 221.153 94.3108 220.372 94.8964C220.194 95.0297 219.873 95.2635 219.448 95.5294C219.115 95.7375 218.228 96.2784 216.984 96.745C216.525 96.9172 212.271 98.6527 207.176 96.7421C204.007 95.5537 201.356 93.2475 199.745 90.2269C198.312 87.5395 198.1 85.0518 198.1 83.6484C198.1 81.0545 198.843 79.1349 199.009 78.6975C199.29 77.9599 199.574 77.4089 199.715 77.1442C200.006 76.5984 200.26 76.2169 200.323 76.1226L211.972 83.8885L223.621 91.6543C223.769 91.432 224.087 90.9465 224.421 90.3207C224.583 90.016 224.883 89.431 225.175 88.6654C225.352 88.2 226.1 86.2584 226.1 83.6485C226.1 82.2371 225.887 79.7429 224.451 77.0505C222.837 74.0249 220.182 71.7152 217.008 70.5248C211.902 68.6102 207.633 70.3477 207.152 70.5279C205.074 71.3072 203.639 72.446 203.572 72.4965C202.45 73.3381 201.378 74.428 201.049 74.757L210.948 84.6565ZM211.972 83.8885L200.512 75.8465C197.312 80.4064 194.557 84.4696 193.306 86.9715L205.828 93.2325L218.35 99.4934C218.281 99.6306 218.545 99.1287 219.574 97.5641C220.489 96.1726 221.765 94.3059 223.432 91.9304L211.972 83.8885ZM205.828 93.2325L193.306 86.9715C192.522 88.5399 191.715 90.2521 190.885 92.0953L203.652 97.8405L216.419 103.586C217.125 102.015 217.769 100.656 218.35 99.4935L205.828 93.2325ZM203.652 97.8405L191 91.8473C190.206 93.5225 189.29 95.4867 188.253 97.7336L200.964 103.6L213.675 109.467C214.686 107.277 215.562 105.401 216.304 103.834L203.652 97.8405ZM200.964 103.6L188.343 97.5422C187.159 100.009 186.129 102.418 185.318 104.736L198.532 109.36L211.746 113.985C212.13 112.889 212.721 111.459 213.585 109.659L200.964 103.6ZM198.532 109.36L185.318 104.736C184.952 105.782 184.503 106.813 183.967 107.832L196.356 114.352L208.745 120.873C209.915 118.649 210.918 116.352 211.746 113.985L198.532 109.36ZM196.356 114.352L184.229 107.356C183.96 107.823 183.755 108.027 183.665 108.106C183.583 108.179 183.468 108.263 183.235 108.356C182.724 108.56 181.196 108.966 177.974 108.538L176.132 122.416L174.29 136.295C180.71 137.147 187.374 136.849 193.605 134.365C200.079 131.784 205.089 127.23 208.483 121.349L196.356 114.352ZM176.132 122.416L177.868 108.525C177.492 108.478 177.286 108.424 177.217 108.404C177.15 108.385 177.24 108.404 177.434 108.507L170.884 120.88L164.334 133.253C167.614 134.99 171.08 135.894 174.396 136.308L176.132 122.416ZM170.884 120.88L176.845 108.213C177.944 108.73 180.05 110.026 181.563 112.728C183.148 115.558 183.193 118.336 182.879 120.113L169.092 117.68L155.305 115.247C154.735 118.476 154.951 122.512 157.133 126.409C159.243 130.177 162.373 132.348 164.923 133.548L170.884 120.88ZM169.092 117.68L182.82 120.426C183.344 117.806 184.72 112.755 187.193 104.824L173.828 100.656L160.463 96.4888C157.986 104.43 156.205 110.728 155.364 114.935L169.092 117.68ZM173.828 100.656L187.201 104.799C192.007 89.2855 195.137 78.4797 196.24 73.1655L182.532 70.3205L168.824 67.4754C168.05 71.2065 165.377 80.6247 160.455 96.5137L173.828 100.656ZM182.532 70.3205L195.58 75.3947C196.373 73.3562 197.048 71.2725 197.607 69.1474L184.068 65.5845L170.529 62.0215C170.235 63.139 169.886 64.2127 169.484 65.2462L182.532 70.3205ZM184.068 65.5845L197.418 69.8003C197.831 68.4939 198.188 67.5392 198.472 66.8753L185.604 61.3605L172.736 55.8456C171.996 57.5711 171.329 59.4323 170.718 61.3686L184.068 65.5845ZM185.604 61.3605L198.761 66.1449C198.75 66.1744 198.582 66.6448 198.129 67.328C197.674 68.0136 196.758 69.1755 195.18 70.2123C193.492 71.3216 191.429 72.029 189.218 72.1109C187.119 72.1886 185.486 71.6835 184.502 71.2554L190.084 58.4165L195.666 45.5775C191.341 43.6967 185.321 43.1867 179.804 46.8126C175.336 49.7482 173.357 54.0741 172.447 56.576L185.604 61.3605ZM234.5 90.0325H220.5V90.2885H234.5H248.5V90.0325H234.5ZM234.5 90.2885L247.022 96.5494C247.141 96.3111 247.366 95.8505 247.595 95.2799C247.707 94.9985 247.899 94.4965 248.081 93.8585C248.203 93.4338 248.628 91.9355 248.628 89.9685C248.628 88.9643 248.535 81.2534 240.881 77.4265C237.428 75.7 234.198 75.823 232.308 76.1379C230.446 76.4484 229.059 77.0683 228.335 77.4305C226.901 78.1476 225.922 78.9517 225.593 79.2254C225.144 79.5999 224.801 79.9323 224.601 80.133L234.5 90.0325L244.4 99.9319C244.241 100.09 243.936 100.388 243.519 100.736C243.222 100.983 242.27 101.768 240.857 102.474C240.143 102.831 238.766 103.448 236.912 103.757C235.03 104.071 231.807 104.194 228.359 102.47C220.716 98.6489 220.628 90.9513 220.628 89.9685C220.628 88.0228 221.048 86.5538 221.159 86.1664C221.33 85.5658 221.506 85.109 221.597 84.881C221.783 84.4171 221.944 84.0951 221.978 84.0275L234.5 90.2885ZM301.265 61.7445L297.702 75.2835L307.369 77.8274L312.914 69.5103L301.265 61.7445ZM319.057 50.2245L321.384 64.0298L321.41 64.0254L321.436 64.0209L319.057 50.2245ZM328.145 49.3284L327.495 35.3436L327.487 35.3439L327.479 35.3443L328.145 49.3284ZM337.489 51.7605L329.461 63.2297L329.548 63.2912L329.637 63.3513L337.489 51.7605ZM343.377 58.6725L356.188 53.0268L356.156 52.9528L356.122 52.8792L343.377 58.6725ZM344.401 77.2325L358.094 80.146L358.099 80.1233L358.104 80.1005L344.401 77.2325ZM341.329 90.5445L354.911 93.94L354.918 93.9119L354.925 93.8838L341.329 90.5445ZM335.953 104.752L323.477 98.4009L323.477 98.4009L335.953 104.752ZM326.609 117.936L316.395 108.361L316.395 108.361L326.609 117.936ZM311.633 127.664L306.559 114.616L306.522 114.631L306.486 114.645L311.633 127.664ZM301.905 129.2L304.002 115.358L303.822 115.331L303.641 115.309L301.905 129.2ZM292.945 124.208L306.147 119.549L292.906 82.034L279.735 119.573L292.945 124.208ZM288.081 138.928L274.71 134.779L274.668 134.915L274.628 135.052L288.081 138.928ZM282.193 153.264L289.823 165.003L292.781 163.08L294.475 159.985L282.193 153.264ZM275.921 155.696L273.085 141.987L272.859 142.033L272.636 142.087L275.921 155.696ZM268.625 155.312L273.334 142.128L273.123 142.053L272.909 141.984L268.625 155.312ZM263.505 150.96L276.126 144.902L275.978 144.594L275.815 144.292L263.505 150.96ZM264.273 132.016L277.531 136.515L277.535 136.503L277.539 136.492L264.273 132.016ZM270.161 115.632L283.16 120.832L283.21 120.706L283.258 120.58L270.161 115.632ZM272.977 108.208L286.044 113.234L286.105 113.076L286.161 112.917L272.977 108.208ZM274.257 104.496L261.167 99.5313L261.066 99.7983L260.975 100.069L274.257 104.496ZM278.353 92.4645L264.933 88.4749L264.898 88.5958L264.864 88.7174L278.353 92.4645ZM280.913 84.2725L294.195 88.6996L294.913 86.5443V84.2725H280.913ZM280.913 84.1445L267.261 81.0418L266.913 82.5736V84.1445H280.913ZM284.881 72.2405L272.067 66.6021L272.039 66.6637L272.013 66.7256L284.881 72.2405ZM288.721 64.4325L278.822 54.533L278.045 55.3097L277.399 56.1981L288.721 64.4325ZM293.201 61.7445L296.238 75.4111L296.238 75.4111L293.201 61.7445ZM298.449 61.1045V47.1045H298.145L297.841 47.1177L298.449 61.1045ZM298.833 61.1045L302.396 47.5654L300.644 47.1045H298.833V61.1045ZM310.993 83.1205L323.148 90.0664L324.587 87.5486L324.907 84.6665L310.993 83.1205ZM305.873 88.1125L298.302 76.336L294.695 78.6553L293.005 82.5976L305.873 88.1125ZM304.721 90.8005L291.853 85.2856L291.749 85.5283L291.654 85.7748L304.721 90.8005ZM302.289 97.5845L289.007 93.1573L289.007 93.1573L302.289 97.5845ZM299.729 104.368L286.835 98.9135L283.161 107.599L289.83 114.268L299.729 104.368ZM301.649 106.8L289.411 113.599L297.827 128.748L310.868 117.337L301.649 106.8ZM314.705 90.2885L326.842 97.2671L326.92 97.1306L326.996 96.9924L314.705 90.2885ZM317.649 81.8405L303.875 79.3361L303.838 79.5391L303.807 79.7432L317.649 81.8405ZM318.033 76.4645L304.751 80.8916L304.751 80.8917L318.033 76.4645ZM315.089 75.8245L321.35 88.3464L321.698 88.1726L322.035 87.9799L315.089 75.8245ZM313.809 76.7205L303.91 66.8209L303.909 66.821L313.809 76.7205ZM313.937 76.7205L324.624 85.7636L305.537 65.5205L313.937 76.7205ZM311.889 79.6645L324.127 86.4634L324.275 86.1975L324.411 85.9255L311.889 79.6645ZM301.265 61.7445L312.914 69.5103C315.036 66.3274 317.591 64.669 321.384 64.0298L319.057 50.2245L316.73 36.4192C305.334 38.3399 296.028 44.3615 289.616 53.9787L301.265 61.7445ZM319.057 50.2245L321.436 64.0209C323.161 63.7234 325.58 63.4665 328.811 63.3126L328.145 49.3284L327.479 35.3443C323.542 35.5318 319.902 35.8721 316.678 36.428L319.057 50.2245ZM328.145 49.3284L328.795 63.3133C329.419 63.2843 329.689 63.3524 329.707 63.3571C329.717 63.3598 329.686 63.3524 329.629 63.3258C329.57 63.299 329.511 63.2651 329.461 63.2297L337.489 51.7605L345.517 40.2912C339.996 36.426 333.692 35.0553 327.495 35.3436L328.145 49.3284ZM337.489 51.7605L329.637 63.3513C330.223 63.748 330.455 64.0756 330.632 64.4657L343.377 58.6725L356.122 52.8792C353.739 47.6373 350.046 43.3569 345.341 40.1696L337.489 51.7605ZM343.377 58.6725L330.566 64.3181C331.246 65.8619 331.848 68.8697 330.698 74.3644L344.401 77.2325L358.104 80.1005C360.026 70.9178 359.945 61.5523 356.188 53.0268L343.377 58.6725ZM344.401 77.2325L330.708 74.3189C329.89 78.1602 328.9 82.4529 327.733 87.2051L341.329 90.5445L354.925 93.8838C356.147 88.908 357.205 84.3261 358.094 80.146L344.401 77.2325ZM341.329 90.5445L327.747 87.149C326.825 90.8358 325.42 94.5835 323.477 98.4009L335.953 104.752L348.429 111.104C351.265 105.535 353.443 99.8105 354.911 93.94L341.329 90.5445ZM335.953 104.752L323.477 98.4009C321.724 101.843 319.393 105.164 316.395 108.361L326.609 117.936L336.823 127.512C341.505 122.517 345.403 117.048 348.429 111.104L335.953 104.752ZM326.609 117.936L316.395 108.361C314.216 110.686 311.089 112.855 306.559 114.616L311.633 127.664L316.707 140.713C324.465 137.696 331.322 133.379 336.823 127.512L326.609 117.936ZM311.633 127.664L306.486 114.645C304.27 115.521 303.608 115.299 304.002 115.358L301.905 129.2L299.808 143.042C305.834 143.956 311.657 142.709 316.78 140.684L311.633 127.664ZM301.905 129.2L303.641 115.309C302.746 115.197 302.22 115.08 301.981 115.015C301.87 114.985 301.875 114.981 301.972 115.018C302.065 115.055 302.298 115.151 302.625 115.334L295.761 127.536L288.897 139.739C292.616 141.831 296.791 142.67 300.169 143.092L301.905 129.2ZM295.761 127.536L302.625 115.334C303.281 115.703 304.032 116.272 304.72 117.085C305.411 117.902 305.871 118.767 306.147 119.549L292.945 124.208L279.743 128.868C281.407 133.581 284.635 137.341 288.897 139.739L295.761 127.536ZM292.945 124.208L279.735 119.573C277.971 124.599 276.296 129.668 274.71 134.779L288.081 138.928L301.452 143.078C302.938 138.291 304.505 133.546 306.155 128.844L292.945 124.208ZM288.081 138.928L274.628 135.052C273.458 139.115 271.884 142.938 269.911 146.544L282.193 153.264L294.475 159.985C297.451 154.545 299.803 148.811 301.534 142.805L288.081 138.928ZM282.193 153.264L274.563 141.526C274.623 141.487 274.25 141.746 273.085 141.987L275.921 155.696L278.757 169.406C282.541 168.623 286.349 167.26 289.823 165.003L282.193 153.264ZM275.921 155.696L272.636 142.087C272.654 142.083 272.781 142.058 272.977 142.068C273.173 142.078 273.303 142.117 273.334 142.128L268.625 155.312L263.916 168.497C268.881 170.27 274.092 170.54 279.206 169.306L275.921 155.696ZM268.625 155.312L272.909 141.984C273.257 142.096 273.91 142.378 274.62 142.981C275.345 143.597 275.838 144.302 276.126 144.902L263.505 150.96L250.884 157.019C253.68 162.845 258.54 166.776 264.341 168.641L268.625 155.312ZM263.505 150.96L275.815 144.292C275.82 144.301 275.828 144.318 275.837 144.341C275.846 144.365 275.851 144.383 275.854 144.393C275.856 144.403 275.854 144.395 275.85 144.364C275.846 144.332 275.841 144.271 275.841 144.176H261.841H247.841C247.841 148.83 248.907 153.405 251.195 157.628L263.505 150.96ZM261.841 144.176H275.841C275.841 142.953 276.174 140.513 277.531 136.515L264.273 132.016L251.015 127.518C249.129 133.077 247.841 138.744 247.841 144.176H261.841ZM264.273 132.016L277.539 136.492C279.9 129.492 281.766 124.315 283.16 120.832L270.161 115.632L257.162 110.433C255.484 114.63 253.425 120.375 251.008 127.541L264.273 132.016ZM270.161 115.632L283.258 120.58C284.712 116.729 285.635 114.297 286.044 113.234L272.977 108.208L259.91 103.183C259.466 104.339 258.511 106.855 257.064 110.685L270.161 115.632ZM272.977 108.208L286.161 112.917C286.623 111.623 287.082 110.292 287.539 108.924L274.257 104.496L260.975 100.069C260.578 101.261 260.184 102.404 259.793 103.5L272.977 108.208ZM274.257 104.496L287.347 109.462C289.291 104.336 290.825 99.8748 291.842 96.2115L278.353 92.4645L264.864 88.7174C264.175 91.1981 262.977 94.7583 261.167 99.5313L274.257 104.496ZM278.353 92.4645L291.773 96.454C292.682 93.3956 293.488 90.818 294.195 88.6996L280.913 84.2725L267.631 79.8453C266.802 82.3349 265.902 85.2186 264.933 88.4749L278.353 92.4645ZM280.913 84.2725H294.913V84.1445H280.913H266.913V84.2725H280.913ZM280.913 84.1445L294.565 87.2471C295.2 84.4511 296.233 81.2937 297.749 77.7553L284.881 72.2405L272.013 66.7256C269.945 71.5498 268.332 76.3284 267.261 81.0418L280.913 84.1445ZM284.881 72.2405L297.695 77.8788C298.596 75.8327 299.296 74.3166 299.812 73.2669C300.07 72.742 300.244 72.4127 300.342 72.2349C300.481 71.9839 300.368 72.2204 300.043 72.6669L288.721 64.4325L277.399 56.1981C276.267 57.7547 275.31 59.6413 274.686 60.91C273.922 62.4629 273.044 64.3815 272.067 66.6021L284.881 72.2405ZM288.721 64.4325L298.621 74.3319C298.751 74.2016 297.982 75.0236 296.238 75.4111L293.201 61.7445L290.164 48.0778C285.348 49.1479 281.593 51.7619 278.822 54.533L288.721 64.4325ZM293.201 61.7445L296.238 75.4111C296.808 75.2845 297.72 75.1494 299.057 75.0912L298.449 61.1045L297.841 47.1177C295.253 47.2302 292.666 47.5217 290.164 48.0778L293.201 61.7445ZM298.449 61.1045V75.1045H298.833V61.1045V47.1045H298.449V61.1045ZM298.833 61.1045L295.27 74.6435L297.702 75.2835L301.265 61.7445L304.828 48.2054L302.396 47.5654L298.833 61.1045ZM310.993 83.1205L298.838 76.1745C299.063 75.7794 299.233 75.629 299.172 75.6885C299.105 75.7531 298.851 75.9831 298.302 76.336L305.873 88.1125L313.444 99.889C317.052 97.5695 320.667 94.4093 323.148 90.0664L310.993 83.1205ZM305.873 88.1125L293.005 82.5976L291.853 85.2856L304.721 90.8005L317.589 96.3153L318.741 93.6273L305.873 88.1125ZM304.721 90.8005L291.654 85.7748C290.723 88.1955 289.841 90.6565 289.007 93.1573L302.289 97.5845L315.571 102.012C316.273 99.9044 317.012 97.8427 317.788 95.8262L304.721 90.8005ZM302.289 97.5845L289.007 93.1573C288.354 95.1166 287.63 97.0349 286.835 98.9135L299.729 104.368L312.623 109.823C313.705 107.265 314.688 104.66 315.571 102.012L302.289 97.5845ZM299.729 104.368L289.83 114.268C289.932 114.371 289.93 114.379 289.861 114.291C289.793 114.206 289.62 113.976 289.411 113.599L301.649 106.8L313.887 100.001C312.643 97.7618 311.085 95.9253 309.629 94.469L299.729 104.368ZM301.649 106.8L310.868 117.337C317.049 111.928 322.324 105.124 326.842 97.2671L314.705 90.2885L302.568 83.3099C299.235 89.1066 295.806 93.3104 292.43 96.2644L301.649 106.8ZM314.705 90.2885L326.996 96.9924C329.216 92.9224 330.791 88.5583 331.491 83.9377L317.649 81.8405L303.807 79.7432C303.654 80.7546 303.266 82.0225 302.414 83.5845L314.705 90.2885ZM317.649 81.8405L331.423 84.3449C331.724 82.693 331.979 80.9885 332.093 79.3819C332.167 78.3478 332.391 75.268 331.315 72.0372L318.033 76.4645L304.751 80.8917C304.48 80.0777 304.348 79.4013 304.279 78.9618C304.208 78.5081 304.181 78.152 304.17 77.9316C304.15 77.5124 304.171 77.2984 304.165 77.387C304.16 77.4498 304.143 77.6425 304.094 77.9945C304.046 78.3391 303.975 78.7824 303.875 79.3361L317.649 81.8405ZM318.033 76.4645L331.315 72.0373C330.718 70.2473 329.49 67.5374 326.887 65.1943C323.99 62.5875 320.356 61.3125 316.753 61.3125V75.3125V89.3125C313.747 89.3125 310.625 88.2294 308.155 86.0066C305.979 84.0475 305.092 81.9136 304.751 80.8916L318.033 76.4645ZM316.753 75.3125V61.3125C313.108 61.3125 310.155 62.5192 308.143 63.669L315.089 75.8245L322.035 87.9799C321.217 88.4471 319.374 89.3125 316.753 89.3125V75.3125ZM315.089 75.8245L308.828 63.3025C307.213 64.1098 305.492 65.239 303.91 66.8209L313.809 76.7205L323.708 86.62C322.809 87.5193 321.941 88.0511 321.35 88.3464L315.089 75.8245ZM313.809 76.7205L303.909 66.821C303.809 66.9218 303.379 67.3487 302.918 67.9019C302.881 67.946 301.923 69.0432 301.125 70.6395C300.88 71.1301 300.476 72.0053 300.156 73.1586C299.873 74.1766 299.368 76.4059 299.835 79.2109C300.384 82.5038 302.242 86.1348 305.88 88.5603C309.037 90.6651 312.133 90.9125 313.649 90.9125C316.458 90.9125 318.54 90.0362 318.86 89.9081C319.579 89.6205 320.122 89.3331 320.383 89.1909C320.929 88.8931 321.343 88.6198 321.503 88.5131C321.876 88.2645 322.187 88.0333 322.337 87.9204L313.937 76.7205L305.537 65.5205C305.547 65.513 305.584 65.485 305.643 65.443C305.694 65.4062 305.811 65.3228 305.971 65.2158C306.083 65.1411 306.458 64.8918 306.975 64.61C307.221 64.4758 307.752 64.1945 308.461 63.9108C308.771 63.7867 310.845 62.9125 313.649 62.9125C315.162 62.9125 318.256 63.1593 321.412 65.2631C325.049 67.6876 326.906 71.3171 327.454 74.608C327.921 77.4111 327.416 79.6378 327.134 80.6528C326.815 81.8031 326.412 82.6748 326.169 83.1614C325.379 84.7417 324.438 85.8149 324.428 85.827C324.181 86.1231 323.981 86.3367 323.905 86.4171C323.81 86.518 323.739 86.5894 323.709 86.6199L313.809 76.7205ZM313.937 76.7205L303.25 67.6773C301.924 69.2441 300.48 71.1785 299.367 73.4034L311.889 79.6645L324.411 85.9255C324.331 86.0847 324.269 86.1918 324.237 86.2443C324.205 86.2976 324.194 86.311 324.214 86.2834C324.233 86.2562 324.274 86.198 324.344 86.108C324.414 86.0183 324.506 85.9037 324.624 85.7636L313.937 76.7205ZM311.889 79.6645L299.651 72.8655C297.883 76.0481 297.322 79.3812 297.079 81.5744L310.993 83.1205L324.907 84.6665C324.939 84.3778 324.956 84.39 324.897 84.6179C324.847 84.8126 324.651 85.5205 324.127 86.4634L311.889 79.6645ZM390.339 95.1525L396.332 107.805L396.514 107.719L396.694 107.627L390.339 95.1525ZM385.603 96.9445L389.35 110.434L389.35 110.434L385.603 96.9445ZM380.227 98.2245L383.056 111.936L383.069 111.933L383.082 111.93L380.227 98.2245ZM368.579 100.144L367.582 86.18L350.147 87.4254L355.169 104.167L368.579 100.144ZM372.419 103.216L365.975 115.645L367.937 116.663L370.117 117.026L372.419 103.216ZM377.411 102.576L382.395 115.659L382.554 115.599L382.712 115.534L377.411 102.576ZM383.171 100.528L387.247 113.922L387.423 113.868L387.598 113.81L383.171 100.528ZM389.059 99.3765L388.451 85.3897L388.437 85.3903L388.423 85.3909L389.059 99.3765ZM394.563 101.552L407.356 95.8665L406.145 93.1413L403.929 91.1463L394.563 101.552ZM396.227 104.24L403.43 92.2356L403.43 92.2356L396.227 104.24ZM400.323 107.952L387.556 113.698L387.673 113.958L387.801 114.213L400.323 107.952ZM399.683 112.816L388.928 103.854L388.777 104.035L388.632 104.221L399.683 112.816ZM394.051 116.784L399.618 129.63L399.618 129.63L394.051 116.784ZM385.091 119.472L387.837 133.201L387.837 133.201L385.091 119.472ZM374.851 120.88L373.804 106.92L373.785 106.921L373.765 106.923L374.851 120.88ZM357.315 119.088L363.026 106.306L362.425 106.038L361.801 105.827L357.315 119.088ZM346.051 107.44L332.601 111.326L332.61 111.358L332.62 111.391L346.051 107.44ZM349.763 80.5605L362.49 86.3936L362.519 86.3307L362.547 86.2676L349.763 80.5605ZM359.875 65.2005L370.575 74.2286L370.587 74.2147L370.599 74.2006L359.875 65.2005ZM373.315 54.8325L378.857 67.689L378.866 67.6848L378.876 67.6806L373.315 54.8325ZM391.235 51.3765L390.852 65.3712L390.864 65.3715L390.876 65.3719L391.235 51.3765ZM405.059 60.0805L417.927 54.5656L417.867 54.4257L417.804 54.2872L405.059 60.0805ZM405.827 72.6245L419.568 75.3056L419.636 74.9565L419.686 74.6044L405.827 72.6245ZM400.451 87.4725L411.448 96.1367L411.511 96.0572L411.572 95.9768L400.451 87.4725ZM382.915 74.9285L396.325 70.9056L393.928 62.9157L385.76 61.2206L382.915 74.9285ZM372.291 82.6085L384.943 88.6017L385.071 88.3322L385.187 88.0575L372.291 82.6085ZM370.499 87.7285L356.88 84.4858L353.235 99.7939L368.863 101.633L370.499 87.7285ZM379.715 82.8645L390.097 92.2572L390.315 92.0157L390.522 91.7644L379.715 82.8645ZM382.403 78.5125L395.349 83.8429L395.401 83.7153L395.451 83.5867L382.403 78.5125ZM390.339 95.1525L384.346 82.5001C383.36 82.9673 382.532 83.2674 381.856 83.4552L385.603 96.9445L389.35 110.434C391.746 109.768 394.076 108.874 396.332 107.805L390.339 95.1525ZM385.603 96.9445L381.856 83.4552C380.689 83.7793 379.207 84.1365 377.372 84.5187L380.227 98.2245L383.082 111.93C385.343 111.459 387.445 110.963 389.35 110.434L385.603 96.9445ZM380.227 98.2245L377.398 84.5133C372.057 85.6154 368.966 86.0811 367.582 86.18L368.579 100.144L369.576 114.109C372.971 113.866 377.645 113.052 383.056 111.936L380.227 98.2245ZM368.579 100.144L355.169 104.167C356.554 108.784 359.734 111.484 360.985 112.485C362.63 113.801 364.42 114.839 365.975 115.645L372.419 103.216L378.863 90.7879C378.114 90.3991 378.112 90.3282 378.477 90.6203C378.675 90.7792 379.195 91.2133 379.798 91.9511C380.379 92.6606 381.368 94.0525 381.989 96.1216L368.579 100.144ZM372.419 103.216L370.117 117.026C374.611 117.775 378.816 117.023 382.395 115.659L377.411 102.576L372.427 89.4936C372.422 89.4955 373.299 89.1699 374.721 89.4069L372.419 103.216ZM377.411 102.576L382.712 115.534C384.183 114.932 385.695 114.394 387.247 113.922L383.171 100.528L379.095 87.135C376.722 87.8571 374.393 88.6848 372.11 89.6188L377.411 102.576ZM383.171 100.528L387.598 113.81C388.599 113.476 389.283 113.381 389.695 113.362L389.059 99.3765L388.423 85.3909C385.081 85.5428 381.839 86.2151 378.744 87.2469L383.171 100.528ZM389.059 99.3765L389.667 113.363C388.675 113.406 387.664 113.233 386.76 112.876C385.895 112.534 385.384 112.126 385.198 111.959L394.563 101.552L403.929 91.1463C399.99 87.6018 394.695 85.1182 388.451 85.3897L389.059 99.3765ZM394.563 101.552L381.77 107.238C382.237 108.289 382.839 109.537 383.587 110.745C384.007 111.423 385.725 114.266 389.024 116.245L396.227 104.24L403.43 92.2356C405.118 93.2483 406.136 94.3749 406.54 94.8499C407.014 95.4062 407.294 95.8452 407.395 96.0075C407.588 96.3197 407.572 96.3517 407.356 95.8665L394.563 101.552ZM396.227 104.24L389.024 116.245C390.691 117.246 393.595 118.624 397.379 118.624V104.624V90.6245C400.48 90.6245 402.616 91.7472 403.43 92.2356L396.227 104.24ZM397.379 104.624V118.624C394.278 118.624 392.142 117.502 391.328 117.013L398.531 105.008L405.734 93.0036C404.067 92.0032 401.163 90.6245 397.379 90.6245V104.624ZM398.531 105.008L391.328 117.013C390.341 116.421 389.619 115.813 389.155 115.381C388.678 114.937 388.327 114.54 388.097 114.262C387.656 113.729 387.406 113.324 387.34 113.216C387.211 113.003 387.282 113.088 387.556 113.698L400.323 107.952L413.09 102.207C412.596 101.11 411.984 99.8508 411.258 98.6572C410.942 98.1385 409.177 95.0692 405.734 93.0036L398.531 105.008ZM400.323 107.952L387.801 114.213C387.192 112.995 386.607 111.021 386.923 108.622C387.231 106.275 388.251 104.666 388.928 103.854L399.683 112.816L410.438 121.779C412.395 119.431 414.161 116.243 414.683 112.275C415.212 108.254 414.308 104.617 412.845 101.691L400.323 107.952ZM399.683 112.816L388.632 104.221C388.827 103.971 389 103.793 389.122 103.679C389.243 103.567 389.315 103.516 389.316 103.516C389.316 103.516 389.255 103.559 389.114 103.635C388.974 103.712 388.768 103.816 388.485 103.939L394.051 116.784L399.618 129.63C403.456 127.967 407.606 125.433 410.734 121.412L399.683 112.816ZM394.051 116.784L388.485 103.939C387.021 104.573 385.017 105.21 382.345 105.744L385.091 119.472L387.837 133.201C391.992 132.37 395.961 131.215 399.618 129.63L394.051 116.784ZM385.091 119.472L382.345 105.744C379.483 106.317 376.637 106.707 373.804 106.92L374.851 120.88L375.898 134.841C379.891 134.542 383.872 133.994 387.837 133.201L385.091 119.472ZM374.851 120.88L373.765 106.923C366.899 107.457 363.851 106.675 363.026 106.306L357.315 119.088L351.604 131.871C358.8 135.086 367.443 135.499 375.937 134.838L374.851 120.88ZM357.315 119.088L361.801 105.827C360.727 105.464 360.34 105.105 360.211 104.972C360.088 104.845 359.774 104.484 359.482 103.49L346.051 107.44L332.62 111.391C335.633 121.635 342.772 128.949 352.829 132.35L357.315 119.088ZM346.051 107.44L359.501 103.555C358.531 100.198 358.627 94.8207 362.49 86.3936L349.763 80.5605L337.036 74.7273C331.512 86.7802 329.133 99.3228 332.601 111.326L346.051 107.44ZM349.763 80.5605L362.547 86.2676C363.99 83.0352 366.528 79.0252 370.575 74.2286L359.875 65.2005L349.175 56.1723C344.006 62.2984 339.803 68.5284 336.979 74.8533L349.763 80.5605ZM359.875 65.2005L370.599 74.2006C373.427 70.8301 376.205 68.8317 378.857 67.689L373.315 54.8325L367.773 41.9759C360.526 45.0998 354.344 50.0134 349.151 56.2003L359.875 65.2005ZM373.315 54.8325L378.876 67.6806C382.719 66.0173 386.663 65.2564 390.852 65.3712L391.235 51.3765L391.618 37.3817C383.348 37.1551 375.346 38.6982 367.754 41.9843L373.315 54.8325ZM391.235 51.3765L390.876 65.3719C391.57 65.3897 391.975 65.4729 392.159 65.5231C392.33 65.5696 392.323 65.5901 392.224 65.5277C392.18 65.5002 392.136 65.4672 392.096 65.4325C392.077 65.416 392.062 65.4017 392.051 65.3906C392.046 65.3851 392.042 65.3808 392.039 65.3777C392.036 65.3747 392.035 65.3731 392.035 65.3731C392.035 65.3732 392.037 65.3751 392.04 65.379C392.043 65.3829 392.047 65.3889 392.054 65.3973C392.066 65.414 392.084 65.4409 392.108 65.4795C392.156 65.5567 392.228 65.6838 392.314 65.8737L405.059 60.0805L417.804 54.2872C415.551 49.3294 412.067 44.9338 407.142 41.8332C402.279 38.7714 396.879 37.5166 391.594 37.3811L391.235 51.3765ZM405.059 60.0805L392.191 65.5953C392.044 65.2529 392.18 65.3856 392.237 66.312C392.293 67.2258 392.255 68.6355 391.968 70.6446L405.827 72.6245L419.686 74.6044C420.601 68.2048 420.688 61.0077 417.927 54.5656L405.059 60.0805ZM405.827 72.6245L392.086 69.9433C391.497 72.9636 390.877 75.2126 390.295 76.8183C389.691 78.4884 389.282 79.0315 389.33 78.9682L400.451 87.4725L411.572 95.9768C415.837 90.3998 418.111 82.7745 419.568 75.3056L405.827 72.6245ZM400.451 87.4725L389.454 78.8082C388.897 79.5151 387.401 80.9374 383.984 82.6779L390.339 95.1525L396.694 107.627C402.323 104.759 407.567 101.062 411.448 96.1367L400.451 87.4725ZM382.915 74.9285L385.76 61.2206C379.896 60.0035 373.822 61.0705 368.665 64.7986C364.025 68.1527 361.204 72.8782 359.395 77.1594L372.291 82.6085L385.187 88.0575C385.938 86.28 386.167 86.6962 385.069 87.4904C384.435 87.9489 383.543 88.3893 382.467 88.6058C381.409 88.8183 380.56 88.738 380.07 88.6363L382.915 74.9285ZM372.291 82.6085L359.639 76.6152C358.442 79.1406 357.526 81.7712 356.88 84.4858L370.499 87.7285L384.118 90.9711C384.325 90.1017 384.604 89.319 384.943 88.6017L372.291 82.6085ZM370.499 87.7285L368.863 101.633C378.573 102.775 385.81 96.9948 390.097 92.2572L379.715 82.8645L369.334 73.4717C368.412 74.4899 368.088 74.575 368.444 74.3871C368.659 74.274 369.107 74.07 369.774 73.9272C370.459 73.7804 371.267 73.7223 372.135 73.8243L370.499 87.7285ZM379.715 82.8645L390.522 91.7644C392.434 89.443 394.127 86.8088 395.349 83.8429L382.403 78.5125L369.458 73.182C369.484 73.1174 369.386 73.3845 368.908 73.9645L379.715 82.8645ZM382.403 78.5125L395.451 83.5867C396.341 81.2989 397.969 76.3886 396.325 70.9056L382.915 74.9285L369.505 78.9513C368.882 76.8724 369.014 75.223 369.12 74.4845C369.229 73.7178 369.396 73.332 369.355 73.4382L382.403 78.5125ZM420.729 61.1045L407.681 56.0302L407.424 56.691L407.235 57.3744L420.729 61.1045ZM425.721 54.1925L433.901 65.5539L433.941 65.5251L433.981 65.4959L425.721 54.1925ZM431.993 51.2485L434.392 65.0414L434.621 65.0016L434.848 64.9542L431.993 51.2485ZM436.985 51.8885L429.219 63.5372L429.39 63.6513L429.565 63.7604L436.985 51.8885ZM438.393 55.8565L424.774 52.6138L413.317 100.731L448.293 65.7559L438.393 55.8565ZM445.433 51.3765L451.119 64.1698L451.119 64.1698L445.433 51.3765ZM452.729 48.5605L448.883 35.0991L448.883 35.0991L452.729 48.5605ZM457.337 47.7925L458.184 33.8181L457.761 33.7925H457.337V47.7925ZM459.769 52.4005L446.824 47.07L440.197 63.1629L457.336 66.1874L459.769 52.4005ZM462.969 55.2165L450.066 60.6492L450.066 60.6493L462.969 55.2165ZM459.769 66.3525L449.642 56.6858L449.642 56.6858L459.769 66.3525ZM452.473 70.1925L449.436 56.5258L449.395 56.535L449.353 56.5444L452.473 70.1925ZM444.921 74.9285L434.135 66.0025L434.119 66.0223L434.103 66.0421L444.921 74.9285ZM439.673 83.8885L426.805 78.3736L426.791 78.4065L426.777 78.4394L439.673 83.8885ZM432.761 109.616L418.994 107.075L418.976 107.171L418.96 107.267L432.761 109.616ZM424.441 119.728L417.588 107.521L417.529 107.554L417.471 107.587L424.441 119.728ZM411.769 122.032L415.655 108.582L415.565 108.557L415.475 108.532L411.769 122.032ZM406.009 112.432L419.942 113.803L419.977 113.444L419.994 113.083L406.009 112.432ZM409.337 97.8405L422.6 102.324L422.609 102.296L422.619 102.268L409.337 97.8405ZM414.073 84.0165L427.241 88.7715L427.261 88.7145L427.281 88.6573L414.073 84.0165ZM416.377 76.8485L402.883 73.1184L402.86 73.2018L402.838 73.2855L416.377 76.8485ZM420.729 61.1045L433.777 66.1787C434.01 65.5793 434.188 65.3178 434.223 65.2693C434.246 65.2367 434.149 65.3755 433.901 65.5539L425.721 54.1925L417.541 42.831C412.714 46.3061 409.608 51.075 407.681 56.0302L420.729 61.1045ZM425.721 54.1925L433.981 65.4959C434.498 65.1185 434.805 64.9593 434.902 64.9138C434.994 64.8705 434.815 64.9678 434.392 65.0414L431.993 51.2485L429.594 37.4555C424.866 38.2779 420.794 40.453 417.461 42.889L425.721 54.1925ZM431.993 51.2485L434.848 64.9542C434.583 65.0095 432.053 65.4261 429.219 63.5372L436.985 51.8885L444.751 40.2397C439.357 36.6441 433.499 36.634 429.138 37.5427L431.993 51.2485ZM436.985 51.8885L429.565 63.7604C427.981 62.7703 426.142 60.951 425.167 58.2022C424.256 55.6357 424.554 53.5382 424.774 52.6138L438.393 55.8565L452.012 59.0991C452.659 56.3827 452.935 52.7279 451.555 48.8387C450.11 44.7672 447.355 41.86 444.405 40.0165L436.985 51.8885ZM438.393 55.8565L448.293 65.7559C448.247 65.8012 448.398 65.6417 448.885 65.3317C449.368 65.0246 450.091 64.6268 451.119 64.1698L445.433 51.3765L439.747 38.5831C435.771 40.3503 431.756 42.6942 428.494 45.957L438.393 55.8565ZM445.433 51.3765L451.119 64.1698C453.987 62.8953 455.721 62.2659 456.575 62.0218L452.729 48.5605L448.883 35.0991C446.153 35.879 443.023 37.127 439.747 38.5831L445.433 51.3765ZM452.729 48.5605L456.575 62.0218C457.059 61.8837 457.369 61.8202 457.527 61.794C457.691 61.7666 457.612 61.7925 457.337 61.7925V47.7925V33.7925C454.312 33.7925 451.411 34.3769 448.883 35.0991L452.729 48.5605ZM457.337 47.7925L456.49 61.7668C456.189 61.7485 450.721 61.3773 447.676 55.6071C446.314 53.0278 446.222 50.6483 446.341 49.2734C446.455 47.9626 446.783 47.1673 446.824 47.07L459.769 52.4005L472.715 57.7309C473.697 55.3447 475.884 49.0657 472.438 42.5378C468.582 35.2316 461.301 34.007 458.184 33.8181L457.337 47.7925ZM459.769 52.4005L457.336 66.1874C455.629 65.8862 453.876 65.0982 452.408 63.8064C451.024 62.5886 450.353 61.3318 450.066 60.6492L462.969 55.2165L475.872 49.7837C473.759 44.7657 469.298 39.8658 462.202 38.6135L459.769 52.4005ZM462.969 55.2165L450.066 60.6493C449.758 59.9164 449.595 59.1534 449.561 58.4424C449.528 57.7534 449.623 57.2709 449.678 57.0585L463.225 60.5925L476.772 64.1264C477.937 59.661 477.927 54.6638 475.872 49.7836L462.969 55.2165ZM463.225 60.5925L449.678 57.0585C449.792 56.6235 449.933 56.3674 449.972 56.3015C450.005 56.2461 449.933 56.3808 449.642 56.6858L459.769 66.3525L469.896 76.0191C472.882 72.8912 475.514 68.9467 476.772 64.1264L463.225 60.5925ZM459.769 66.3525L449.642 56.6858C449.74 56.5829 449.837 56.499 449.923 56.4349C450.008 56.3714 450.066 56.3395 450.081 56.3316C450.109 56.3164 449.931 56.4158 449.436 56.5258L452.473 70.1925L455.51 83.8591C460.707 82.7042 465.815 80.2946 469.896 76.0191L459.769 66.3525ZM452.473 70.1925L449.353 56.5444C443.209 57.949 438.047 61.2761 434.135 66.0025L444.921 74.9285L455.707 83.8544C455.786 83.7589 455.832 83.7167 455.84 83.7096C455.847 83.7033 455.828 83.7211 455.783 83.7491C455.738 83.7775 455.688 83.803 455.641 83.8221C455.595 83.841 455.575 83.8444 455.593 83.8405L452.473 70.1925ZM444.921 74.9285L434.103 66.0421C431.116 69.6784 428.733 73.8758 426.805 78.3736L439.673 83.8885L452.541 89.4033C453.685 86.7331 454.801 84.9571 455.739 83.8148L444.921 74.9285ZM439.673 83.8885L426.777 78.4394C423.64 85.8639 421.115 95.5835 418.994 107.075L432.761 109.616L446.528 112.158C448.503 101.463 450.586 94.0303 452.569 89.3375L439.673 83.8885ZM432.761 109.616L418.96 107.267C419 107.027 419.077 106.783 419.178 106.568C419.276 106.358 419.36 106.255 419.358 106.257C419.333 106.288 418.908 106.779 417.588 107.521L424.441 119.728L431.294 131.936C438.395 127.95 444.932 121.543 446.563 111.966L432.761 109.616ZM424.441 119.728L417.471 107.587C416.235 108.296 415.531 108.475 415.313 108.514C415.166 108.541 415.346 108.493 415.655 108.582L411.769 122.032L407.883 135.482C416.454 137.958 424.639 135.758 431.411 131.87L424.441 119.728ZM411.769 122.032L415.475 108.532C415.665 108.584 416.252 108.775 416.995 109.295C417.776 109.842 418.513 110.605 419.07 111.534C420.168 113.363 419.865 114.585 419.942 113.803L406.009 112.432L392.076 111.062C391.641 115.485 392.042 120.91 395.06 125.939C398.247 131.251 403.184 134.194 408.063 135.533L411.769 122.032ZM406.009 112.432L419.994 113.083C420.075 111.337 420.71 107.915 422.6 102.324L409.337 97.8405L396.074 93.3573C393.868 99.8832 392.284 106.189 392.024 111.782L406.009 112.432ZM409.337 97.8405L422.619 102.268C424.658 96.1491 426.192 91.6748 427.241 88.7715L414.073 84.0165L400.905 79.2614C399.735 82.5021 398.112 87.2438 396.055 93.4133L409.337 97.8405ZM414.073 84.0165L427.281 88.6573C428.419 85.4206 429.341 82.5981 429.916 80.4114L416.377 76.8485L402.838 73.2855C402.56 74.3415 401.946 76.2976 400.865 79.3756L414.073 84.0165ZM416.377 76.8485L429.871 80.5785L434.223 64.8345L420.729 61.1045L407.235 57.3744L402.883 73.1184L416.377 76.8485Z" fill="black" mask="url(#path-1-outside-1_1_3)"/>
</g>
<defs>
<filter id="filter0_d_1_3" x="0" y="0" width="481.554" height="178.065" filterUnits="userSpaceOnUse" color-interpolation-filters="sRGB">
<feFlood flood-opacity="0" result="BackgroundImageFix"/>
<feColorMatrix in="SourceAlpha" type="matrix" values="0 0 0 0 0 0 0 0 0 0 0 0 0 0 0 0 0 0 127 0" result="hardAlpha"/>
<feOffset dy="4"/>
<feGaussianBlur stdDeviation="2"/>
<feComposite in2="hardAlpha" operator="out"/>
<feColorMatrix type="matrix" values="0 0 0 0 0 0 0 0 0 0 0 0 0 0 0 0 0 0 0.25 0"/>
<feBlend mode="normal" in2="BackgroundImageFix" result="effect1_dropShadow_1_3"/>
<feBlend mode="normal" in="SourceGraphic" in2="effect1_dropShadow_1_3" result="shape"/>
</filter>
<radialGradient id="paint0_radial_1_3" cx="0" cy="0" r="1" gradientUnits="userSpaceOnUse" gradientTransform="translate(239.792 46.0965) rotate(90) scale(144 1198.59)">
<stop stop-color="#FFBB00"/>
<stop offset="1" stop-color="#FF9500" stop-opacity="0"/>
</radialGradient>
</defs>
</svg>
