<svg width="486" height="183" viewBox="0 0 486 183" fill="none" xmlns="http://www.w3.org/2000/svg">
<g filter="url(#filter0_d_1_3)">
<mask id="path-1-outside-1_1_3" maskUnits="userSpaceOnUse" x="3.79201" y="-0.903755" width="478" height="175" fill="black">
<rect fill="white" x="3.79201" y="-0.903755" width="478" height="175"/>
<path d="M89.376 19.5842L89.888 19.7122C92.0213 20.9922 93.856 22.4429 95.392 24.0642C97.0133 25.6002 98.464 27.2642 99.744 29.0562C101.109 30.7629 102.176 32.6402 102.944 34.6882C106.187 42.5389 103.371 51.3282 94.496 61.0562C90.7413 65.1522 86.5173 68.6509 81.824 71.5522C83.0187 72.4056 84.128 73.0456 85.152 73.4722C86.2613 73.8136 87.7973 74.5389 89.76 75.6482C91.7227 76.6722 93.0027 78.6776 93.6 81.6642C94.1973 84.5656 94.0267 87.8509 93.088 91.5202C92.2347 95.1896 90.6133 98.9869 88.224 102.912C85.92 106.752 82.8907 110.208 79.136 113.28C70.6027 120.363 60.704 123.35 49.44 122.24C47.8187 122.24 46.7947 122.112 46.368 121.856C45.9413 121.6 45.6 121.387 45.344 121.216C45.088 121.046 44.5333 120.918 43.68 120.832C41.5467 122.539 39.1147 123.606 36.384 124.032C33.6533 124.459 31.0507 124.246 28.576 123.392C26.1867 122.539 24.1387 121.088 22.432 119.04C20.8107 116.992 20 114.304 20 110.976C20.256 108.758 20.6827 107.008 21.28 105.728C21.024 104.96 20.896 104.022 20.896 102.912C23.7973 87.4669 26.528 75.6482 29.088 67.4562C34.2933 51.1576 39.9253 38.8696 45.984 30.5922C50.9333 23.5949 57.8027 19.0722 66.592 17.0242C75.04 15.0616 82.6347 15.9149 89.376 19.5842ZM49.568 108.928C50.592 108.672 51.4453 108.63 52.128 108.8C52.896 108.886 53.792 108.843 54.816 108.672C57.2907 108.416 60.6187 106.88 64.8 104.064C67.4453 101.419 68.8533 98.8162 69.024 96.2562C69.1947 93.6962 68.8107 92.0749 67.872 91.3922C66.9333 90.6242 65.6533 90.2402 64.032 90.2402C62.496 90.2402 60.7467 90.4962 58.784 91.0082C56.9067 91.4349 55.072 91.6909 53.28 91.7762V92.0322C52.8533 93.7389 52.4267 95.2322 52 96.5122C51.5733 97.7922 51.1893 99.0296 50.848 100.224C50.08 103.04 49.4827 105.942 49.056 108.928H49.568ZM73.376 42.3682C70.816 42.0269 68.0427 44.0322 65.056 48.3842C63.1787 51.1149 61.728 55.2536 60.704 60.8002C62.496 60.0322 64.2453 59.3922 65.952 58.8802C67.744 58.2829 69.408 57.6429 70.944 56.9602C74.6987 55.3389 77.3867 53.3762 79.008 51.0722C80.8853 48.8536 81.4827 46.9762 80.8 45.4402C79.776 44.0749 78.112 42.8376 75.808 41.7282C75.1253 42.3256 74.3147 42.5389 73.376 42.3682ZM71.456 41.8562H71.84H71.456ZM113.307 59.9042C115.696 57.6002 118.342 56.2776 121.243 55.9362C124.23 55.5096 126.832 55.8082 129.051 56.8322C131.355 57.8562 133.019 59.5202 134.043 61.8242C135.152 64.0429 135.024 66.6029 133.659 69.5042C130.758 73.7709 128.454 78.3789 126.747 83.3282C125.04 88.2776 123.462 93.2696 122.011 98.3042C129.862 93.3549 136.432 85.9736 141.723 76.1602C143.259 73.2589 144.923 70.3149 146.715 67.3282L148.635 63.7442L152.475 57.6002C152.987 55.9789 153.883 54.9549 155.163 54.5282C156.443 54.0162 157.808 53.7602 159.259 53.7602C160.795 53.7602 162.331 53.8029 163.867 53.8882C165.403 53.8882 166.811 53.4616 168.091 52.6082C169.371 51.7549 170.864 51.4562 172.571 51.7122C174.363 51.8829 175.942 52.4376 177.307 53.3762C178.758 54.3149 179.824 55.4669 180.507 56.8322C181.275 58.1122 181.36 59.3922 180.763 60.6722C177.179 68.3522 172.272 82.6456 166.043 103.552C164.592 108.246 163.227 112.171 161.947 115.328C159.814 117.974 157.126 119.766 153.883 120.704C150.64 121.643 147.568 121.899 144.667 121.472C141.851 121.131 139.59 120.15 137.883 118.528C136.176 116.992 135.792 115.03 136.731 112.64C134.342 114.603 131.867 116.395 129.307 118.016C126.747 119.638 123.632 120.704 119.963 121.216C116.379 121.728 112.923 121.558 109.595 120.704C106.267 119.936 103.408 118.4 101.019 116.096C98.715 113.792 97.4777 110.72 97.307 106.88C96.795 93.3976 102.128 77.7389 113.307 59.9042ZM192.084 60.4162C192.255 58.7949 193.279 57.4722 195.156 56.4482C197.033 55.4242 199.124 54.9122 201.428 54.9122C203.732 54.9122 205.951 55.4669 208.084 56.5762C210.303 57.6002 211.796 59.3922 212.564 61.9522C219.817 55.6376 226.431 53.2056 232.404 54.6562C234.452 55.0829 236.201 56.2776 237.652 58.2402C242.004 54.0589 246.825 51.3282 252.116 50.0482C258.772 49.7922 263.551 51.3282 266.452 54.6562C266.879 55.0829 267.305 55.5522 267.732 56.0642C268.927 57.3442 269.609 58.1976 269.78 58.6242C271.316 61.0136 271.743 66.5176 271.06 75.1362C270.121 86.3149 267.988 97.5362 264.66 108.8C262.868 114.518 261.247 117.462 259.796 117.632C258.943 117.803 258.132 117.803 257.364 117.632C256.681 117.462 256.041 117.334 255.444 117.248C254.932 117.248 254.633 117.76 254.548 118.784C252.841 121.003 250.239 122.112 246.74 122.112C243.327 122.112 240.425 121.046 238.036 118.912C235.391 116.694 234.452 114.091 235.22 111.104C236.073 108.032 237.012 104.918 238.036 101.76C239.06 98.5176 240.169 95.1896 241.364 91.7762C243.412 85.8029 245.673 79.5736 248.148 73.0882C246.356 75.1362 243.924 79.0189 240.852 84.7362C237.78 90.3682 235.86 93.7389 235.092 94.8482C233.641 97.7496 232.447 100.054 231.508 101.76C230.569 103.382 229.289 104.704 227.668 105.728C226.132 106.667 224.681 107.264 223.316 107.52C222.036 107.776 220.799 107.819 219.604 107.648C216.788 107.222 214.783 106.027 213.588 104.064C213.332 103.382 213.076 102.699 212.82 102.016C212.564 101.334 212.351 100.395 212.18 99.2002C211.924 96.5549 212.265 92.2456 213.204 86.2722L212.948 86.6562C213.972 85.6322 214.313 85.3762 213.972 85.8882C210.559 90.7522 208.511 93.8669 207.828 95.2322C207.145 96.5976 206.42 98.1336 205.652 99.8402C204.884 101.462 203.988 103.382 202.964 105.6C201.94 107.734 201.129 109.654 200.532 111.36C199.935 113.067 199.209 114.731 198.356 116.352C194.516 123.008 187.775 125.696 178.132 124.416C176.084 124.16 174.335 123.648 172.884 122.88C171.433 122.198 170.836 121.131 171.092 119.68C171.775 116.267 173.353 110.592 175.828 102.656C180.692 86.9549 183.593 76.8429 184.532 72.3202C185.129 70.7842 185.641 69.2056 186.068 67.5842C186.58 65.9629 187.092 64.5549 187.604 63.3602C188.628 60.5442 190.121 59.5629 192.084 60.4162ZM236.5 92.0322V92.2882C236.671 91.9469 236.671 91.8616 236.5 92.0322ZM303.265 63.7442C307.532 57.3442 313.462 53.5042 321.057 52.2242C323.532 51.7976 326.561 51.4989 330.145 51.3282C333.814 51.1576 336.929 51.9682 339.489 53.7602C342.134 55.5522 344.097 57.8562 345.377 60.6722C347.596 65.7069 347.937 71.8936 346.401 79.2322C345.548 83.2429 344.524 87.6802 343.329 92.5442C342.134 97.3229 340.342 102.059 337.953 106.752C335.564 111.446 332.449 115.84 328.609 119.936C324.769 124.032 319.777 127.275 313.633 129.664C309.964 131.115 306.721 131.627 303.905 131.2C301.174 130.859 299.126 130.304 297.761 129.536C296.396 128.768 295.457 127.659 294.945 126.208C293.238 131.072 291.617 135.979 290.081 140.928C288.63 145.963 286.668 150.742 284.193 155.264C282.486 156.374 280.396 157.184 277.921 157.696C275.446 158.294 273.014 158.166 270.625 157.312C268.236 156.544 266.529 155.094 265.505 152.96C264.396 150.912 263.841 148.651 263.841 146.176C263.841 142.848 264.652 138.795 266.273 134.016C268.662 126.934 270.625 121.472 272.161 117.632C273.612 113.792 274.55 111.318 274.977 110.208C275.404 109.014 275.83 107.776 276.257 106.496C278.134 101.547 279.5 97.5362 280.353 94.4642C281.292 91.3069 282.145 88.5762 282.913 86.2722V86.1442C283.766 82.3896 285.089 78.4216 286.881 74.2402C288.758 69.9736 290.038 67.3709 290.721 66.4322C292.172 64.9816 293.665 64.0856 295.201 63.7442C296.737 63.4029 298.486 63.1896 300.449 63.1042H300.833L303.265 63.7442ZM312.993 85.1202C311.969 86.9122 310.262 88.5762 307.873 90.1122L306.721 92.8002C305.868 95.0189 305.057 97.2802 304.289 99.5842C303.521 101.888 302.668 104.15 301.729 106.368C302.582 107.222 303.222 108.032 303.649 108.8C308.428 104.619 312.78 99.1149 316.705 92.2882C318.241 89.4722 319.222 86.6562 319.649 83.8402C320.161 81.0242 320.289 79.2322 320.033 78.4642C319.777 77.6962 319.35 77.3122 318.753 77.3122C318.241 77.3122 317.686 77.4829 317.089 77.8242C316.577 78.0802 316.15 78.3789 315.809 78.7202C315.553 78.9762 315.596 78.9762 315.937 78.7202C314.998 79.8296 314.316 80.8109 313.889 81.6642C313.462 82.4322 313.164 83.5842 312.993 85.1202ZM392.339 97.1522C390.718 97.9202 389.139 98.5176 387.603 98.9442C386.067 99.3709 384.275 99.7976 382.227 100.224C376.851 101.334 372.968 101.974 370.579 102.144C370.835 102.998 372.115 104.022 374.419 105.216C375.955 105.472 377.619 105.259 379.411 104.576C381.288 103.808 383.208 103.126 385.171 102.528C387.219 101.846 389.182 101.462 391.059 101.376C393.022 101.291 394.856 102.016 396.563 103.552C397.246 105.088 397.8 105.984 398.227 106.24C398.654 106.496 399.038 106.624 399.379 106.624C399.72 106.624 400.104 106.752 400.531 107.008C400.958 107.264 401.555 108.246 402.323 109.952C403.176 111.659 402.963 113.28 401.683 114.816C400.488 116.352 398.611 117.675 396.051 118.784C393.491 119.894 390.504 120.79 387.091 121.472C383.678 122.155 380.264 122.624 376.851 122.88C369.171 123.478 363.326 122.88 359.315 121.088C353.512 119.126 349.758 115.243 348.051 109.44C345.832 101.76 347.07 92.8002 351.763 82.5602C353.896 77.7816 357.267 72.6616 361.875 67.2002C365.886 62.4216 370.366 58.9656 375.315 56.8322C381.032 54.3576 387.006 53.2056 393.235 53.3762C399.891 53.5469 404.499 56.4482 407.059 62.0802C408.339 65.0669 408.595 69.2482 407.827 74.6242C406.462 81.6216 404.67 86.5709 402.451 89.4722C400.232 92.2882 396.862 94.8482 392.339 97.1522ZM384.915 76.9282C380.392 75.9896 376.851 78.5496 374.291 84.6082C373.523 86.2296 372.926 87.9362 372.499 89.7282C375.4 90.0696 378.472 88.4482 381.715 84.8642C382.91 83.4136 383.806 81.9629 384.403 80.5122C385 78.9762 385.171 77.7816 384.915 76.9282ZM422.729 63.1042C423.924 60.0322 425.588 57.7282 427.721 56.1922C429.94 54.5709 432.03 53.5896 433.993 53.2482C436.041 52.8216 437.705 53.0349 438.985 53.8882C440.35 54.7416 440.82 56.0642 440.393 57.8562C442.014 56.2349 444.361 54.7416 447.433 53.3762C450.505 52.0109 452.937 51.0722 454.729 50.5602C456.521 50.0482 458.057 49.7922 459.337 49.7922C462.153 49.9629 462.964 51.4989 461.769 54.4002C463.22 54.6562 464.286 55.5949 464.969 57.2162C465.652 58.8376 465.737 60.6296 465.225 62.5922C464.713 64.5549 463.561 66.4749 461.769 68.3522C459.977 70.2296 457.545 71.5096 454.473 72.1922C451.486 72.8749 448.969 74.4536 446.921 76.9282C444.958 79.3176 443.209 82.3042 441.673 85.8882C439.113 91.9469 436.809 100.523 434.761 111.616C434.078 115.627 431.305 118.998 426.441 121.728C421.833 124.374 417.609 125.142 413.769 124.032C409.417 122.838 407.497 119.638 408.009 114.432C408.18 110.763 409.289 105.899 411.337 99.8402C413.385 93.6962 414.964 89.0882 416.073 86.0162C417.182 82.8589 417.95 80.4696 418.377 78.8482L422.729 63.1042Z"/>
</mask>
<path d="M89.376 19.5842L89.888 19.7122C92.0213 20.9922 93.856 22.4429 95.392 24.0642C97.0133 25.6002 98.464 27.2642 99.744 29.0562C101.109 30.7629 102.176 32.6402 102.944 34.6882C106.187 42.5389 103.371 51.3282 94.496 61.0562C90.7413 65.1522 86.5173 68.6509 81.824 71.5522C83.0187 72.4056 84.128 73.0456 85.152 73.4722C86.2613 73.8136 87.7973 74.5389 89.76 75.6482C91.7227 76.6722 93.0027 78.6776 93.6 81.6642C94.1973 84.5656 94.0267 87.8509 93.088 91.5202C92.2347 95.1896 90.6133 98.9869 88.224 102.912C85.92 106.752 82.8907 110.208 79.136 113.28C70.6027 120.363 60.704 123.35 49.44 122.24C47.8187 122.24 46.7947 122.112 46.368 121.856C45.9413 121.6 45.6 121.387 45.344 121.216C45.088 121.046 44.5333 120.918 43.68 120.832C41.5467 122.539 39.1147 123.606 36.384 124.032C33.6533 124.459 31.0507 124.246 28.576 123.392C26.1867 122.539 24.1387 121.088 22.432 119.04C20.8107 116.992 20 114.304 20 110.976C20.256 108.758 20.6827 107.008 21.28 105.728C21.024 104.96 20.896 104.022 20.896 102.912C23.7973 87.4669 26.528 75.6482 29.088 67.4562C34.2933 51.1576 39.9253 38.8696 45.984 30.5922C50.9333 23.5949 57.8027 19.0722 66.592 17.0242C75.04 15.0616 82.6347 15.9149 89.376 19.5842ZM49.568 108.928C50.592 108.672 51.4453 108.63 52.128 108.8C52.896 108.886 53.792 108.843 54.816 108.672C57.2907 108.416 60.6187 106.88 64.8 104.064C67.4453 101.419 68.8533 98.8162 69.024 96.2562C69.1947 93.6962 68.8107 92.0749 67.872 91.3922C66.9333 90.6242 65.6533 90.2402 64.032 90.2402C62.496 90.2402 60.7467 90.4962 58.784 91.0082C56.9067 91.4349 55.072 91.6909 53.28 91.7762V92.0322C52.8533 93.7389 52.4267 95.2322 52 96.5122C51.5733 97.7922 51.1893 99.0296 50.848 100.224C50.08 103.04 49.4827 105.942 49.056 108.928H49.568ZM73.376 42.3682C70.816 42.0269 68.0427 44.0322 65.056 48.3842C63.1787 51.1149 61.728 55.2536 60.704 60.8002C62.496 60.0322 64.2453 59.3922 65.952 58.8802C67.744 58.2829 69.408 57.6429 70.944 56.9602C74.6987 55.3389 77.3867 53.3762 79.008 51.0722C80.8853 48.8536 81.4827 46.9762 80.8 45.4402C79.776 44.0749 78.112 42.8376 75.808 41.7282C75.1253 42.3256 74.3147 42.5389 73.376 42.3682ZM71.456 41.8562H71.84H71.456ZM113.307 59.9042C115.696 57.6002 118.342 56.2776 121.243 55.9362C124.23 55.5096 126.832 55.8082 129.051 56.8322C131.355 57.8562 133.019 59.5202 134.043 61.8242C135.152 64.0429 135.024 66.6029 133.659 69.5042C130.758 73.7709 128.454 78.3789 126.747 83.3282C125.04 88.2776 123.462 93.2696 122.011 98.3042C129.862 93.3549 136.432 85.9736 141.723 76.1602C143.259 73.2589 144.923 70.3149 146.715 67.3282L148.635 63.7442L152.475 57.6002C152.987 55.9789 153.883 54.9549 155.163 54.5282C156.443 54.0162 157.808 53.7602 159.259 53.7602C160.795 53.7602 162.331 53.8029 163.867 53.8882C165.403 53.8882 166.811 53.4616 168.091 52.6082C169.371 51.7549 170.864 51.4562 172.571 51.7122C174.363 51.8829 175.942 52.4376 177.307 53.3762C178.758 54.3149 179.824 55.4669 180.507 56.8322C181.275 58.1122 181.36 59.3922 180.763 60.6722C177.179 68.3522 172.272 82.6456 166.043 103.552C164.592 108.246 163.227 112.171 161.947 115.328C159.814 117.974 157.126 119.766 153.883 120.704C150.64 121.643 147.568 121.899 144.667 121.472C141.851 121.131 139.59 120.15 137.883 118.528C136.176 116.992 135.792 115.03 136.731 112.64C134.342 114.603 131.867 116.395 129.307 118.016C126.747 119.638 123.632 120.704 119.963 121.216C116.379 121.728 112.923 121.558 109.595 120.704C106.267 119.936 103.408 118.4 101.019 116.096C98.715 113.792 97.4777 110.72 97.307 106.88C96.795 93.3976 102.128 77.7389 113.307 59.9042ZM192.084 60.4162C192.255 58.7949 193.279 57.4722 195.156 56.4482C197.033 55.4242 199.124 54.9122 201.428 54.9122C203.732 54.9122 205.951 55.4669 208.084 56.5762C210.303 57.6002 211.796 59.3922 212.564 61.9522C219.817 55.6376 226.431 53.2056 232.404 54.6562C234.452 55.0829 236.201 56.2776 237.652 58.2402C242.004 54.0589 246.825 51.3282 252.116 50.0482C258.772 49.7922 263.551 51.3282 266.452 54.6562C266.879 55.0829 267.305 55.5522 267.732 56.0642C268.927 57.3442 269.609 58.1976 269.78 58.6242C271.316 61.0136 271.743 66.5176 271.06 75.1362C270.121 86.3149 267.988 97.5362 264.66 108.8C262.868 114.518 261.247 117.462 259.796 117.632C258.943 117.803 258.132 117.803 257.364 117.632C256.681 117.462 256.041 117.334 255.444 117.248C254.932 117.248 254.633 117.76 254.548 118.784C252.841 121.003 250.239 122.112 246.74 122.112C243.327 122.112 240.425 121.046 238.036 118.912C235.391 116.694 234.452 114.091 235.22 111.104C236.073 108.032 237.012 104.918 238.036 101.76C239.06 98.5176 240.169 95.1896 241.364 91.7762C243.412 85.8029 245.673 79.5736 248.148 73.0882C246.356 75.1362 243.924 79.0189 240.852 84.7362C237.78 90.3682 235.86 93.7389 235.092 94.8482C233.641 97.7496 232.447 100.054 231.508 101.76C230.569 103.382 229.289 104.704 227.668 105.728C226.132 106.667 224.681 107.264 223.316 107.52C222.036 107.776 220.799 107.819 219.604 107.648C216.788 107.222 214.783 106.027 213.588 104.064C213.332 103.382 213.076 102.699 212.82 102.016C212.564 101.334 212.351 100.395 212.18 99.2002C211.924 96.5549 212.265 92.2456 213.204 86.2722L212.948 86.6562C213.972 85.6322 214.313 85.3762 213.972 85.8882C210.559 90.7522 208.511 93.8669 207.828 95.2322C207.145 96.5976 206.42 98.1336 205.652 99.8402C204.884 101.462 203.988 103.382 202.964 105.6C201.94 107.734 201.129 109.654 200.532 111.36C199.935 113.067 199.209 114.731 198.356 116.352C194.516 123.008 187.775 125.696 178.132 124.416C176.084 124.16 174.335 123.648 172.884 122.88C171.433 122.198 170.836 121.131 171.092 119.68C171.775 116.267 173.353 110.592 175.828 102.656C180.692 86.9549 183.593 76.8429 184.532 72.3202C185.129 70.7842 185.641 69.2056 186.068 67.5842C186.58 65.9629 187.092 64.5549 187.604 63.3602C188.628 60.5442 190.121 59.5629 192.084 60.4162ZM236.5 92.0322V92.2882C236.671 91.9469 236.671 91.8616 236.5 92.0322ZM303.265 63.7442C307.532 57.3442 313.462 53.5042 321.057 52.2242C323.532 51.7976 326.561 51.4989 330.145 51.3282C333.814 51.1576 336.929 51.9682 339.489 53.7602C342.134 55.5522 344.097 57.8562 345.377 60.6722C347.596 65.7069 347.937 71.8936 346.401 79.2322C345.548 83.2429 344.524 87.6802 343.329 92.5442C342.134 97.3229 340.342 102.059 337.953 106.752C335.564 111.446 332.449 115.84 328.609 119.936C324.769 124.032 319.777 127.275 313.633 129.664C309.964 131.115 306.721 131.627 303.905 131.2C301.174 130.859 299.126 130.304 297.761 129.536C296.396 128.768 295.457 127.659 294.945 126.208C293.238 131.072 291.617 135.979 290.081 140.928C288.63 145.963 286.668 150.742 284.193 155.264C282.486 156.374 280.396 157.184 277.921 157.696C275.446 158.294 273.014 158.166 270.625 157.312C268.236 156.544 266.529 155.094 265.505 152.96C264.396 150.912 263.841 148.651 263.841 146.176C263.841 142.848 264.652 138.795 266.273 134.016C268.662 126.934 270.625 121.472 272.161 117.632C273.612 113.792 274.55 111.318 274.977 110.208C275.404 109.014 275.83 107.776 276.257 106.496C278.134 101.547 279.5 97.5362 280.353 94.4642C281.292 91.3069 282.145 88.5762 282.913 86.2722V86.1442C283.766 82.3896 285.089 78.4216 286.881 74.2402C288.758 69.9736 290.038 67.3709 290.721 66.4322C292.172 64.9816 293.665 64.0856 295.201 63.7442C296.737 63.4029 298.486 63.1896 300.449 63.1042H300.833L303.265 63.7442ZM312.993 85.1202C311.969 86.9122 310.262 88.5762 307.873 90.1122L306.721 92.8002C305.868 95.0189 305.057 97.2802 304.289 99.5842C303.521 101.888 302.668 104.15 301.729 106.368C302.582 107.222 303.222 108.032 303.649 108.8C308.428 104.619 312.78 99.1149 316.705 92.2882C318.241 89.4722 319.222 86.6562 319.649 83.8402C320.161 81.0242 320.289 79.2322 320.033 78.4642C319.777 77.6962 319.35 77.3122 318.753 77.3122C318.241 77.3122 317.686 77.4829 317.089 77.8242C316.577 78.0802 316.15 78.3789 315.809 78.7202C315.553 78.9762 315.596 78.9762 315.937 78.7202C314.998 79.8296 314.316 80.8109 313.889 81.6642C313.462 82.4322 313.164 83.5842 312.993 85.1202ZM392.339 97.1522C390.718 97.9202 389.139 98.5176 387.603 98.9442C386.067 99.3709 384.275 99.7976 382.227 100.224C376.851 101.334 372.968 101.974 370.579 102.144C370.835 102.998 372.115 104.022 374.419 105.216C375.955 105.472 377.619 105.259 379.411 104.576C381.288 103.808 383.208 103.126 385.171 102.528C387.219 101.846 389.182 101.462 391.059 101.376C393.022 101.291 394.856 102.016 396.563 103.552C397.246 105.088 397.8 105.984 398.227 106.24C398.654 106.496 399.038 106.624 399.379 106.624C399.72 106.624 400.104 106.752 400.531 107.008C400.958 107.264 401.555 108.246 402.323 109.952C403.176 111.659 402.963 113.28 401.683 114.816C400.488 116.352 398.611 117.675 396.051 118.784C393.491 119.894 390.504 120.79 387.091 121.472C383.678 122.155 380.264 122.624 376.851 122.88C369.171 123.478 363.326 122.88 359.315 121.088C353.512 119.126 349.758 115.243 348.051 109.44C345.832 101.76 347.07 92.8002 351.763 82.5602C353.896 77.7816 357.267 72.6616 361.875 67.2002C365.886 62.4216 370.366 58.9656 375.315 56.8322C381.032 54.3576 387.006 53.2056 393.235 53.3762C399.891 53.5469 404.499 56.4482 407.059 62.0802C408.339 65.0669 408.595 69.2482 407.827 74.6242C406.462 81.6216 404.67 86.5709 402.451 89.4722C400.232 92.2882 396.862 94.8482 392.339 97.1522ZM384.915 76.9282C380.392 75.9896 376.851 78.5496 374.291 84.6082C373.523 86.2296 372.926 87.9362 372.499 89.7282C375.4 90.0696 378.472 88.4482 381.715 84.8642C382.91 83.4136 383.806 81.9629 384.403 80.5122C385 78.9762 385.171 77.7816 384.915 76.9282ZM422.729 63.1042C423.924 60.0322 425.588 57.7282 427.721 56.1922C429.94 54.5709 432.03 53.5896 433.993 53.2482C436.041 52.8216 437.705 53.0349 438.985 53.8882C440.35 54.7416 440.82 56.0642 440.393 57.8562C442.014 56.2349 444.361 54.7416 447.433 53.3762C450.505 52.0109 452.937 51.0722 454.729 50.5602C456.521 50.0482 458.057 49.7922 459.337 49.7922C462.153 49.9629 462.964 51.4989 461.769 54.4002C463.22 54.6562 464.286 55.5949 464.969 57.2162C465.652 58.8376 465.737 60.6296 465.225 62.5922C464.713 64.5549 463.561 66.4749 461.769 68.3522C459.977 70.2296 457.545 71.5096 454.473 72.1922C451.486 72.8749 448.969 74.4536 446.921 76.9282C444.958 79.3176 443.209 82.3042 441.673 85.8882C439.113 91.9469 436.809 100.523 434.761 111.616C434.078 115.627 431.305 118.998 426.441 121.728C421.833 124.374 417.609 125.142 413.769 124.032C409.417 122.838 407.497 119.638 408.009 114.432C408.18 110.763 409.289 105.899 411.337 99.8402C413.385 93.6962 414.964 89.0882 416.073 86.0162C417.182 82.8589 417.95 80.4696 418.377 78.8482L422.729 63.1042Z" fill="url(#paint0_radial_1_3)" shape-rendering="crispEdges"/>
<path d="M89.376 19.5842L81.7268 33.6374L83.5176 34.6121L85.4955 35.1065L89.376 19.5842ZM89.888 19.7122L98.1199 5.99235L96.0783 4.76739L93.7685 4.18995L89.888 19.7122ZM95.392 24.0642L83.7768 35.0682L84.0742 35.3821L84.3881 35.6795L95.392 24.0642ZM99.744 29.0562L86.7243 38.356L86.9777 38.7109L87.2501 39.0514L99.744 29.0562ZM102.944 34.6882L87.9627 40.3062L88.0552 40.5529L88.1558 40.7964L102.944 34.6882ZM94.496 61.0562L106.29 71.8678L106.303 71.8538L106.316 71.8396L94.496 61.0562ZM81.824 71.5522L73.4109 57.9427L52.9506 70.5909L72.5242 84.572L81.824 71.5522ZM85.152 73.4722L78.9982 88.2415L79.7098 88.538L80.4467 88.7647L85.152 73.4722ZM89.76 75.6482L81.8871 89.5772L82.1209 89.7094L82.359 89.8336L89.76 75.6482ZM93.6 81.6642L77.9107 84.8021L77.9196 84.8464L77.9287 84.8907L93.6 81.6642ZM93.088 91.5202L77.5872 87.5549L77.5437 87.725L77.5039 87.896L93.088 91.5202ZM88.224 102.912L74.5568 94.5931L74.5303 94.6366L74.5041 94.6803L88.224 102.912ZM79.136 113.28L69.0042 100.897L68.9606 100.933L68.9173 100.969L79.136 113.28ZM49.44 122.24L51.0082 106.317L50.226 106.24H49.44V122.24ZM46.368 121.856L38.1361 135.576L38.1361 135.576L46.368 121.856ZM45.344 121.216L54.2192 107.903L54.2192 107.903L45.344 121.216ZM43.68 120.832L45.2721 104.912L38.7798 104.262L33.6849 108.338L43.68 120.832ZM36.384 124.032L33.914 108.224L36.384 124.032ZM28.576 123.392L23.1946 138.46L23.2772 138.49L23.3602 138.518L28.576 123.392ZM22.432 119.04L9.88727 128.971L10.0119 129.129L10.1405 129.283L22.432 119.04ZM20 110.976L4.10546 109.142L4.00001 110.056V110.976H20ZM21.28 105.728L35.7789 112.494L38.4751 106.717L36.4589 100.669L21.28 105.728ZM20.896 102.912L5.17104 99.9584L4.89601 101.423V102.912H20.896ZM29.088 67.4562L13.8464 62.5885L13.8312 62.6361L13.8163 62.6838L29.088 67.4562ZM45.984 30.5922L58.8949 40.0425L58.9717 39.9377L59.0467 39.8317L45.984 30.5922ZM66.592 17.0242L62.9713 1.4393L62.9611 1.44166L66.592 17.0242ZM49.568 108.928V124.928H51.5377L53.4486 124.451L49.568 108.928ZM52.128 108.8L48.2474 124.323L49.2915 124.584L50.3611 124.702L52.128 108.8ZM54.816 108.672L53.1696 92.7572L52.6756 92.8083L52.1856 92.8899L54.816 108.672ZM64.8 104.064L73.7376 117.335L75.0203 116.471L76.1137 115.378L64.8 104.064ZM67.872 91.3922L57.7402 103.776L58.0928 104.064L58.4613 104.332L67.872 91.3922ZM58.784 91.0082L62.3299 106.61L62.5773 106.554L62.8228 106.49L58.784 91.0082ZM53.28 91.7762L52.519 75.7944L37.28 76.52V91.7762H53.28ZM53.28 92.0322L68.8023 95.9128L69.28 94.0019V92.0322H53.28ZM52 96.5122L67.1789 101.572L67.1789 101.572L52 96.5122ZM50.848 100.224L35.4636 95.8287L35.4371 95.9214L35.4118 96.0144L50.848 100.224ZM49.056 108.928L33.2168 106.666L30.6079 124.928H49.056V108.928ZM73.376 42.3682L76.2382 26.6263L75.8658 26.5586L75.4906 26.5086L73.376 42.3682ZM65.056 48.3842L78.2407 57.4487L78.2482 57.4377L65.056 48.3842ZM60.704 60.8002L44.9699 57.8955L39.5459 87.2755L67.0067 75.5066L60.704 60.8002ZM65.952 58.8802L70.5496 74.2055L70.7817 74.1358L71.0117 74.0592L65.952 58.8802ZM70.944 56.9602L64.601 42.2712L64.5232 42.3048L64.4458 42.3393L70.944 56.9602ZM79.008 51.0722L66.7938 40.7372L66.3334 41.2814L65.9231 41.8643L79.008 51.0722ZM80.8 45.4402L95.421 38.942L94.6859 37.2881L93.6 35.8402L80.8 45.4402ZM75.808 41.7282L82.7491 27.3122L73.2261 22.7271L65.2719 29.687L75.808 41.7282ZM89.376 19.5842L85.4955 35.1065L86.0075 35.2345L89.888 19.7122L93.7685 4.18995L93.2565 4.06195L89.376 19.5842ZM89.888 19.7122L81.6561 33.4321C82.6834 34.0485 83.3463 34.6138 83.7768 35.0682L95.392 24.0642L107.007 13.0603C104.366 10.2721 101.359 7.93594 98.1199 5.99235L89.888 19.7122ZM95.392 24.0642L84.3881 35.6795C85.2754 36.5201 86.0489 37.4105 86.7243 38.356L99.744 29.0562L112.764 19.7564C110.879 17.118 108.751 14.6804 106.396 12.449L95.392 24.0642ZM99.744 29.0562L87.2501 39.0514C87.5597 39.4384 87.7872 39.8382 87.9627 40.3062L102.944 34.6882L117.925 29.0703C116.565 25.4423 114.659 22.0875 112.238 19.0611L99.744 29.0562ZM102.944 34.6882L88.1558 40.7964C88.2045 40.9143 88.3886 41.1577 88.0269 42.2865C87.5534 43.7643 86.1769 46.4351 82.6758 50.2729L94.496 61.0562L106.316 71.8396C116.81 60.337 124.51 44.9898 117.732 28.5801L102.944 34.6882ZM94.496 61.0562L82.7015 50.2447C79.933 53.2648 76.8451 55.8198 73.4109 57.9427L81.824 71.5522L90.2372 85.1618C96.1896 81.482 101.55 77.0397 106.29 71.8678L94.496 61.0562ZM81.824 71.5522L72.5242 84.572C74.4039 85.9146 76.5725 87.2308 78.9982 88.2415L85.152 73.4722L91.3059 58.703C91.5144 58.7899 91.5969 58.8418 91.5476 58.8133C91.5001 58.7859 91.3597 58.701 91.1238 58.5325L81.824 71.5522ZM85.152 73.4722L80.4467 88.7647C80.3221 88.7264 80.2299 88.6945 80.1732 88.6741C80.1159 88.6535 80.0844 88.6409 80.0805 88.6393C80.077 88.6379 80.1483 88.6667 80.3039 88.7402C80.626 88.8923 81.1435 89.1569 81.8871 89.5772L89.76 75.6482L97.6329 61.7192C95.4186 60.4676 92.6663 59.0441 89.8574 58.1798L85.152 73.4722ZM89.76 75.6482L82.359 89.8336C80.6742 88.9546 79.4549 87.7033 78.7053 86.5288C78.0259 85.4645 77.8968 84.7325 77.9107 84.8021L93.6 81.6642L109.289 78.5264C108.12 72.6816 104.873 65.4865 97.1611 61.4629L89.76 75.6482ZM93.6 81.6642L77.9287 84.8907C77.9193 84.8452 78.0862 85.6041 77.5872 87.5549L93.088 91.5202L108.589 95.4856C109.967 90.0977 110.475 84.286 109.271 78.4378L93.6 81.6642ZM93.088 91.5202L77.5039 87.896C77.1098 89.5906 76.249 91.8131 74.5568 94.5931L88.224 102.912L101.891 111.231C104.978 106.161 107.36 100.789 108.672 95.1445L93.088 91.5202ZM88.224 102.912L74.5041 94.6803C73.2242 96.8136 71.4517 98.8944 69.0042 100.897L79.136 113.28L89.2678 125.664C94.3297 121.522 98.6159 116.691 101.944 111.144L88.224 102.912ZM79.136 113.28L68.9173 100.969C63.7483 105.259 58.1171 107.017 51.0082 106.317L49.44 122.24L47.8718 138.163C63.2909 139.682 77.4571 135.467 89.3547 125.592L79.136 113.28ZM49.44 122.24V106.24C48.9644 106.24 49.0335 106.217 49.4406 106.268C49.6527 106.294 50.1799 106.368 50.8943 106.557C51.5091 106.72 52.9398 107.14 54.5999 108.136L46.368 121.856L38.1361 135.576C41.3943 137.531 44.6185 137.914 45.4715 138.021C46.9025 138.2 48.2943 138.24 49.44 138.24V122.24ZM46.368 121.856L54.5999 108.136C54.4513 108.047 54.344 107.981 54.272 107.936C54.1964 107.889 54.1842 107.88 54.2192 107.903L45.344 121.216L36.4688 134.529C37.0238 134.899 37.6066 135.258 38.1361 135.576L46.368 121.856ZM45.344 121.216L54.2192 107.903C51.6489 106.19 49.1729 105.596 48.3338 105.402C47.1547 105.13 46.0724 104.992 45.2721 104.912L43.68 120.832L42.0879 136.753C42.0844 136.752 42.0058 136.745 41.8671 136.724C41.735 136.704 41.4805 136.661 41.1383 136.583C40.8137 136.508 40.257 136.365 39.5647 136.11C38.922 135.873 37.7736 135.399 36.4688 134.529L45.344 121.216ZM43.68 120.832L33.6849 108.338C33.6761 108.345 33.6869 108.336 33.717 108.318C33.7474 108.299 33.786 108.279 33.8294 108.26C33.8728 108.241 33.9082 108.229 33.9302 108.222C33.9517 108.216 33.9484 108.219 33.914 108.224L36.384 124.032L38.854 139.84C44.3053 138.989 49.3385 136.795 53.6751 133.326L43.68 120.832ZM36.384 124.032L33.914 108.224C33.8161 108.239 33.7528 108.244 33.7205 108.245C33.6887 108.246 33.6803 108.245 33.6911 108.246C33.7022 108.247 33.7217 108.249 33.7455 108.254C33.7694 108.259 33.7859 108.264 33.7919 108.266L28.576 123.392L23.3602 138.518C28.4411 140.27 33.6926 140.647 38.854 139.84L36.384 124.032ZM28.576 123.392L33.9574 108.324C34.1222 108.383 34.316 108.48 34.4963 108.608C34.6725 108.733 34.7438 108.822 34.7235 108.797L22.432 119.04L10.1405 129.283C13.5811 133.412 17.9731 136.595 23.1946 138.46L28.576 123.392ZM22.432 119.04L34.9767 109.109C35.5079 109.78 35.7939 110.429 35.9265 110.868C36.0477 111.27 36 111.356 36 110.976H20H4.00001C4.00001 116.906 5.47622 123.4 9.88727 128.971L22.432 119.04ZM20 110.976L35.8946 112.81C35.9282 112.518 35.9623 112.288 35.9923 112.113C36.0225 111.938 36.0461 111.833 36.0563 111.792C36.0668 111.749 36.0587 111.79 36.0215 111.9C35.9846 112.009 35.9093 112.215 35.7789 112.494L21.28 105.728L6.78108 98.9621C5.16035 102.435 4.45795 106.087 4.10546 109.142L20 110.976ZM21.28 105.728L36.4589 100.669C36.6929 101.371 36.797 101.933 36.8453 102.286C36.8938 102.642 36.896 102.863 36.896 102.912H20.896H4.89601C4.89601 105.151 5.14156 107.909 6.10107 110.788L21.28 105.728ZM20.896 102.912L36.621 105.866C39.4848 90.6205 42.0798 79.5242 44.3597 72.2286L29.088 67.4562L13.8163 62.6838C10.9762 71.7723 8.1099 84.3133 5.17104 99.9584L20.896 102.912ZM29.088 67.4562L44.3296 72.324C49.3114 56.7251 54.3099 46.3066 58.8949 40.0425L45.984 30.5922L33.0731 21.142C25.5408 31.4325 19.2753 45.59 13.8464 62.5885L29.088 67.4562ZM45.984 30.5922L59.0467 39.8317C61.6068 36.2121 65.0272 33.8175 70.2229 32.6068L66.592 17.0242L62.9611 1.44166C50.5782 4.327 40.2598 10.9777 32.9214 21.3528L45.984 30.5922ZM66.592 17.0242L70.2128 32.6092C75.3748 31.4099 78.8786 32.0871 81.7268 33.6374L89.376 19.5842L97.0252 5.53113C86.3907 -0.257268 74.7052 -1.28676 62.9713 1.4393L66.592 17.0242ZM49.568 108.928L53.4486 124.451C53.1762 124.519 52.5969 124.643 51.775 124.684C50.9523 124.725 49.721 124.691 48.2474 124.323L52.128 108.8L56.0086 93.278C51.8192 92.2306 48.0875 92.806 45.6874 93.406L49.568 108.928ZM52.128 108.8L50.3611 124.702C52.9968 124.995 55.4328 124.79 57.4464 124.455L54.816 108.672L52.1856 92.8899C52.1985 92.8878 52.3482 92.8631 52.615 92.8504C52.8796 92.8378 53.3188 92.8341 53.8949 92.8981L52.128 108.8ZM54.816 108.672L56.4624 124.587C63.0814 123.903 69.1798 120.405 73.7376 117.335L64.8 104.064L55.8624 90.7933C54.2381 91.8872 53.1233 92.4962 52.4631 92.8009C52.1479 92.9464 52.0373 92.9754 52.1108 92.9526C52.177 92.9322 52.547 92.8216 53.1696 92.7572L54.816 108.672ZM64.8 104.064L76.1137 115.378C80.2691 111.223 84.4641 105.188 84.9886 97.3206L69.024 96.2562L53.0594 95.1919C53.1488 93.8523 53.5446 92.9268 53.7673 92.5151C53.9636 92.1524 53.9897 92.2471 53.4863 92.7505L64.8 104.064ZM69.024 96.2562L84.9886 97.3206C85.1294 95.2081 85.1359 92.3994 84.4333 89.4328C83.7375 86.495 81.952 81.8483 77.2828 78.4525L67.872 91.3922L58.4613 104.332C54.7307 101.619 53.6065 98.1242 53.2947 96.8077C52.9761 95.4624 53.0893 94.7444 53.0594 95.1919L69.024 96.2562ZM67.872 91.3922L78.0038 79.0089C73.3706 75.2181 68.099 74.2402 64.032 74.2402V90.2402V106.24C63.2077 106.24 60.4961 106.03 57.7402 103.776L67.872 91.3922ZM64.032 90.2402V74.2402C60.7784 74.2402 57.6324 74.7732 54.7453 75.5264L58.784 91.0082L62.8228 106.49C63.3176 106.361 63.6671 106.295 63.8848 106.264C64.1042 106.232 64.1448 106.24 64.032 106.24V90.2402ZM58.784 91.0082L55.2381 75.4061C54.21 75.6398 53.308 75.7568 52.519 75.7944L53.28 91.7762L54.0411 107.758C56.836 107.625 59.6033 107.23 62.3299 106.61L58.784 91.0082ZM53.28 91.7762H37.28V92.0322H53.28H69.28V91.7762H53.28ZM53.28 92.0322L37.7577 88.1517C37.4024 89.5729 37.0863 90.6569 36.8211 91.4526L52 96.5122L67.1789 101.572C67.767 99.8076 68.3043 97.9049 68.8023 95.9128L53.28 92.0322ZM52 96.5122L36.8211 91.4526C36.3273 92.934 35.8738 94.3932 35.4636 95.8287L50.848 100.224L66.2324 104.62C66.5049 103.666 66.8194 102.651 67.1789 101.572L52 96.5122ZM50.848 100.224L35.4118 96.0144C34.4635 99.4915 33.7342 103.044 33.2168 106.666L49.056 108.928L64.8952 111.191C65.2312 108.839 65.6965 106.589 66.2842 104.434L50.848 100.224ZM49.056 108.928V124.928H49.568V108.928V92.9282H49.056V108.928ZM73.376 42.3682L75.4906 26.5086C68.9731 25.6396 63.5979 28.0497 60.0009 30.6506C56.5477 33.1476 53.8947 36.3714 51.8638 39.3308L65.056 48.3842L78.2482 57.4377C79.204 56.0451 79.431 56.0902 78.7511 56.5818C77.9274 57.1774 75.2189 58.7556 71.2614 58.2279L73.376 42.3682ZM65.056 48.3842L51.8713 39.3198C48.1269 44.7662 46.1546 51.4786 44.9699 57.8955L60.704 60.8002L76.4381 63.705C76.8404 61.5261 77.2711 59.9363 77.6593 58.8288C78.0575 57.6927 78.3149 57.3407 78.2407 57.4487L65.056 48.3842ZM60.704 60.8002L67.0067 75.5066C68.2938 74.955 69.4736 74.5282 70.5496 74.2055L65.952 58.8802L61.3544 43.555C59.0171 44.2562 56.6982 45.1095 54.4013 46.0939L60.704 60.8002ZM65.952 58.8802L71.0117 74.0592C73.2332 73.3187 75.3826 72.4966 77.4422 71.5812L70.944 56.9602L64.4458 42.3393C63.4334 42.7892 62.2548 43.2472 60.8924 43.7013L65.952 58.8802ZM70.944 56.9602L77.287 71.6492C82.598 69.3558 88.1717 65.8524 92.0929 60.2801L79.008 51.0722L65.9231 41.8643C66.2816 41.3549 66.523 41.2172 66.3409 41.3502C66.1477 41.4913 65.6233 41.8298 64.601 42.2712L70.944 56.9602ZM79.008 51.0722L91.2222 61.4073C94.0187 58.1023 100.062 49.3852 95.421 38.942L80.8 45.4402L66.179 51.9384C64.6619 48.5248 64.9448 45.2623 65.6172 43.149C66.1865 41.3597 66.9601 40.5407 66.7938 40.7372L79.008 51.0722ZM80.8 45.4402L93.6 35.8402C90.4607 31.6545 86.3063 29.025 82.7491 27.3122L75.808 41.7282L68.867 56.1443C69.3049 56.3551 69.3841 56.4372 69.2368 56.3276C69.0896 56.2182 68.5841 55.819 68 55.0402L80.8 45.4402ZM75.808 41.7282L65.2719 29.687C66.6354 28.494 68.438 27.4362 70.6161 26.863C72.7681 26.2967 74.7229 26.3508 76.2382 26.6263L73.376 42.3682L70.5138 58.1102C75.9621 59.1008 81.7783 57.7645 86.3441 53.7694L75.808 41.7282ZM71.456 41.8562V57.8562H71.84V41.8562V25.8562H71.456V41.8562ZM71.84 41.8562V25.8562H71.456V41.8562V57.8562H71.84V41.8562ZM113.307 59.9042L102.201 48.3867L100.791 49.7467L99.75 51.4068L113.307 59.9042ZM121.243 55.9362L123.112 71.8267L123.309 71.8035L123.506 71.7754L121.243 55.9362ZM129.051 56.8322L122.346 71.3596L122.449 71.4071L122.553 71.4532L129.051 56.8322ZM134.043 61.8242L119.422 68.3225L119.57 68.6546L119.732 68.9797L134.043 61.8242ZM133.659 69.5042L146.89 78.5012L147.599 77.4582L148.136 76.317L133.659 69.5042ZM122.011 98.3042L106.636 93.8743L95.0045 134.244L130.544 111.839L122.011 98.3042ZM141.723 76.1602L155.807 83.7531L155.835 83.6999L155.864 83.6464L141.723 76.1602ZM146.715 67.3282L160.435 75.5602L160.635 75.2266L160.819 74.8838L146.715 67.3282ZM148.635 63.7442L135.067 55.2643L134.784 55.7175L134.531 56.1887L148.635 63.7442ZM152.475 57.6002L166.043 66.0802L167.12 64.3566L167.732 62.4184L152.475 57.6002ZM155.163 54.5282L160.223 69.7072L160.669 69.5585L161.105 69.3839L155.163 54.5282ZM163.867 53.8882L162.98 69.8636L163.423 69.8882H163.867V53.8882ZM168.091 52.6082L176.966 65.921L176.966 65.921L168.091 52.6082ZM172.571 51.7122L170.198 67.5352L170.624 67.5992L171.054 67.6402L172.571 51.7122ZM177.307 53.3762L168.243 66.5609L168.427 66.6877L168.615 66.8094L177.307 53.3762ZM180.507 56.8322L166.196 63.9877L166.471 64.5373L166.787 65.0642L180.507 56.8322ZM180.763 60.6722L166.264 53.906L166.264 53.9061L180.763 60.6722ZM166.043 103.552L181.329 108.277L181.354 108.199L181.377 108.121L166.043 103.552ZM161.947 115.328L174.402 125.372L175.886 123.531L176.775 121.34L161.947 115.328ZM153.883 120.704L158.332 136.073L158.332 136.073L153.883 120.704ZM144.667 121.472L146.995 105.642L146.794 105.613L146.592 105.589L144.667 121.472ZM137.883 118.528L148.903 106.928L148.747 106.78L148.586 106.636L137.883 118.528ZM136.731 112.64L151.623 118.491L174.122 61.2201L126.575 100.277L136.731 112.64ZM129.307 118.016L137.868 131.533L137.868 131.533L129.307 118.016ZM119.963 121.216L117.752 105.37L117.726 105.373L117.7 105.377L119.963 121.216ZM109.595 120.704L113.569 105.206L113.381 105.158L113.193 105.114L109.595 120.704ZM101.019 116.096L89.7053 127.41L89.8081 127.513L89.9128 127.614L101.019 116.096ZM97.307 106.88L81.3185 107.487L81.3205 107.539L81.3228 107.591L97.307 106.88ZM113.307 59.9042L124.413 71.4217C124.581 71.2599 124.532 71.3483 124.238 71.4951C123.925 71.6519 123.525 71.7781 123.112 71.8267L121.243 55.9362L119.374 40.0458C112.533 40.8506 106.749 44.001 102.201 48.3867L113.307 59.9042ZM121.243 55.9362L123.506 71.7754C123.845 71.727 123.856 71.764 123.611 71.7359C123.345 71.7054 122.888 71.6098 122.346 71.3596L129.051 56.8322L135.756 42.3049C130.144 39.7147 124.302 39.3368 118.98 40.097L121.243 55.9362ZM129.051 56.8322L122.553 71.4532C122.039 71.225 121.366 70.8151 120.713 70.1619C120.06 69.5088 119.65 68.8359 119.422 68.3225L134.043 61.8242L148.664 55.326C146.031 49.4023 141.473 44.844 135.549 42.2113L129.051 56.8322ZM134.043 61.8242L119.732 68.9797C119.013 67.5412 118.73 65.9846 118.799 64.6092C118.83 63.9795 118.93 63.492 119.018 63.1722C119.104 62.8567 119.181 62.6934 119.182 62.6915L133.659 69.5042L148.136 76.317C150.925 70.391 152.269 62.4998 148.354 54.6688L134.043 61.8242ZM133.659 69.5042L120.428 60.5073C116.719 65.9621 113.782 71.8442 111.621 78.1124L126.747 83.3282L141.873 88.5441C143.125 84.9136 144.796 81.5797 146.89 78.5012L133.659 69.5042ZM126.747 83.3282L111.621 78.1124C109.825 83.3217 108.163 88.5758 106.636 93.8743L122.011 98.3042L137.386 102.734C138.76 97.9634 140.256 93.2334 141.873 88.5441L126.747 83.3282ZM122.011 98.3042L130.544 111.839C141.153 105.151 149.471 95.5044 155.807 83.7531L141.723 76.1602L127.639 68.5673C123.394 76.4427 118.57 81.5593 113.478 84.7694L122.011 98.3042ZM141.723 76.1602L155.864 83.6464C157.258 81.0121 158.781 78.3168 160.435 75.5602L146.715 67.3282L132.995 59.0963C131.065 62.313 129.26 65.5057 127.582 68.674L141.723 76.1602ZM146.715 67.3282L160.819 74.8838L162.739 71.2998L148.635 63.7442L134.531 56.1887L132.611 59.7727L146.715 67.3282ZM148.635 63.7442L162.203 72.2242L166.043 66.0802L152.475 57.6002L138.907 49.1203L135.067 55.2643L148.635 63.7442ZM152.475 57.6002L167.732 62.4184C167.484 63.2057 166.895 64.641 165.572 66.1523C164.164 67.7619 162.305 69.013 160.223 69.7072L155.163 54.5282L150.103 39.3493C142.706 41.8151 138.826 47.6882 137.218 52.7821L152.475 57.6002ZM155.163 54.5282L161.105 69.3839C160.398 69.6669 159.736 69.7602 159.259 69.7602V53.7602V37.7602C155.881 37.7602 152.488 38.3656 149.221 39.6726L155.163 54.5282ZM159.259 53.7602V69.7602C160.499 69.7602 161.739 69.7947 162.98 69.8636L163.867 53.8882L164.755 37.9129C162.923 37.8111 161.091 37.7602 159.259 37.7602V53.7602ZM163.867 53.8882V69.8882C168.567 69.8882 173.062 68.5237 176.966 65.921L168.091 52.6082L159.216 39.2954C159.822 38.8914 160.569 38.5181 161.435 38.2558C162.301 37.9935 163.133 37.8882 163.867 37.8882V53.8882ZM168.091 52.6082L176.966 65.921C175.885 66.6416 174.633 67.1688 173.309 67.4335C172.015 67.6922 170.934 67.6457 170.198 67.5352L172.571 51.7122L174.944 35.8893C169.822 35.1209 164.213 35.9641 159.216 39.2954L168.091 52.6082ZM172.571 51.7122L171.054 67.6402C170.378 67.5758 169.31 67.2948 168.243 66.5609L177.307 53.3762L186.371 40.1916C182.573 37.5804 178.348 36.19 174.088 35.7843L172.571 51.7122ZM177.307 53.3762L168.615 66.8094C167.989 66.4041 166.954 65.5029 166.196 63.9877L180.507 56.8322L194.818 49.6768C192.695 45.4309 189.527 42.2257 185.999 39.9431L177.307 53.3762ZM180.507 56.8322L166.787 65.0642C166.079 63.8835 165.334 62.0947 165.182 59.8165C165.028 57.4993 165.54 55.4581 166.264 53.906L180.763 60.6722L195.262 67.4384C198.256 61.0234 197.546 54.1315 194.227 48.6003L180.507 56.8322ZM180.763 60.6722L166.264 53.9061C162.12 62.7872 156.921 78.1358 150.709 98.9834L166.043 103.552L181.377 108.121C187.624 87.1554 192.238 73.9173 195.262 67.4384L180.763 60.6722ZM166.043 103.552L150.757 98.8273C149.387 103.258 148.172 106.721 147.119 109.317L161.947 115.328L176.775 121.34C178.282 117.621 179.797 113.234 181.329 108.277L166.043 103.552ZM161.947 115.328L149.492 105.284C149.464 105.319 149.443 105.343 149.429 105.358C149.416 105.372 149.408 105.379 149.408 105.379C149.407 105.38 149.412 105.376 149.421 105.369C149.43 105.361 149.442 105.353 149.456 105.343C149.47 105.334 149.483 105.326 149.495 105.319C149.508 105.312 149.516 105.308 149.519 105.307C149.528 105.303 149.503 105.315 149.434 105.335L153.883 120.704L158.332 136.073C164.749 134.216 170.224 130.553 174.402 125.372L161.947 115.328ZM153.883 120.704L149.434 105.335C148.06 105.733 147.312 105.689 146.995 105.642L144.667 121.472L142.339 137.302C147.824 138.109 153.221 137.553 158.332 136.073L153.883 120.704ZM144.667 121.472L146.592 105.589C146.49 105.576 146.749 105.595 147.228 105.803C147.734 106.022 148.335 106.389 148.903 106.928L137.883 118.528L126.863 130.128C131.54 134.571 137.231 136.688 142.742 137.356L144.667 121.472ZM137.883 118.528L148.586 106.636C149.913 107.83 151.447 109.918 152.017 112.832C152.555 115.582 151.956 117.644 151.623 118.491L136.731 112.64L121.839 106.79C120.568 110.026 119.691 114.264 120.613 118.976C121.567 123.853 124.146 127.691 127.18 130.421L137.883 118.528ZM136.731 112.64L126.575 100.277C124.683 101.831 122.74 103.236 120.746 104.499L129.307 118.016L137.868 131.533C140.994 129.554 144 127.375 146.887 125.004L136.731 112.64ZM129.307 118.016L120.746 104.499C120.492 104.66 119.654 105.104 117.752 105.37L119.963 121.216L122.174 137.063C127.61 136.304 133.002 134.615 137.868 131.533L129.307 118.016ZM119.963 121.216L117.7 105.377C116.084 105.608 114.752 105.509 113.569 105.206L109.595 120.704L105.621 136.203C111.094 137.606 116.674 137.849 122.226 137.055L119.963 121.216ZM109.595 120.704L113.193 105.114C112.604 104.978 112.364 104.809 112.125 104.579L101.019 116.096L89.9128 127.614C94.4523 131.991 99.9296 134.894 105.997 136.295L109.595 120.704ZM101.019 116.096L112.333 104.783C112.729 105.179 113.032 105.658 113.204 106.086C113.361 106.475 113.309 106.567 113.291 106.17L97.307 106.88L81.3228 107.591C81.6371 114.663 84.0779 121.783 89.7053 127.41L101.019 116.096ZM97.307 106.88L113.295 106.273C112.956 97.337 116.507 84.9256 126.864 68.4017L113.307 59.9042L99.75 51.4068C87.7497 70.5522 80.6339 89.4581 81.3185 107.487L97.307 106.88ZM192.084 60.4162L185.704 75.0894L205.712 83.7884L207.996 62.0912L192.084 60.4162ZM208.084 56.5762L200.702 70.7717L201.037 70.9456L201.379 71.1036L208.084 56.5762ZM212.564 61.9522L197.239 66.5498L204.365 90.304L223.07 74.0198L212.564 61.9522ZM232.404 54.6562L228.628 70.2043L228.883 70.2663L229.141 70.3199L232.404 54.6562ZM237.652 58.2402L224.785 67.7505L235.608 82.3926L248.737 69.7779L237.652 58.2402ZM252.116 50.0482L251.501 34.0601L249.906 34.1214L248.354 34.4969L252.116 50.0482ZM266.452 54.6562L254.392 65.1704L254.751 65.5829L255.138 65.97L266.452 54.6562ZM267.732 56.0642L255.44 66.3072L255.728 66.6526L256.035 66.9813L267.732 56.0642ZM269.78 58.6242L254.924 64.5666L255.493 65.9883L256.321 67.2764L269.78 58.6242ZM271.06 75.1362L287.004 76.475L287.007 76.4373L287.01 76.3996L271.06 75.1362ZM264.66 108.8L279.928 113.586L279.967 113.46L280.004 113.334L264.66 108.8ZM259.796 117.632L257.927 101.742L257.288 101.817L256.658 101.943L259.796 117.632ZM257.364 117.632L253.483 133.155L253.688 133.206L253.893 133.251L257.364 117.632ZM255.444 117.248L257.707 101.409L256.581 101.248H255.444V117.248ZM254.548 118.784L267.23 128.54L270.102 124.806L270.493 120.113L254.548 118.784ZM238.036 118.912L248.692 106.977L248.508 106.812L248.318 106.653L238.036 118.912ZM235.22 111.104L219.804 106.822L219.762 106.97L219.724 107.12L235.22 111.104ZM238.036 101.76L253.256 106.696L253.275 106.637L253.293 106.578L238.036 101.76ZM241.364 91.7762L256.466 97.0618L256.483 97.0137L256.499 96.9654L241.364 91.7762ZM248.148 73.0882L263.097 78.7923L236.107 62.5522L248.148 73.0882ZM240.852 84.7362L254.898 92.3979L254.922 92.3537L254.946 92.3093L240.852 84.7362ZM235.092 94.8482L221.937 85.7409L221.29 86.6758L220.781 87.6928L235.092 94.8482ZM231.508 101.76L245.355 109.777L245.443 109.625L245.527 109.471L231.508 101.76ZM227.668 105.728L236.011 119.381L236.112 119.319L236.212 119.256L227.668 105.728ZM223.316 107.52L220.367 91.7943L220.273 91.8121L220.178 91.831L223.316 107.52ZM219.604 107.648L217.207 123.468L217.274 123.478L217.341 123.487L219.604 107.648ZM213.588 104.064L198.607 109.682L199.136 111.095L199.921 112.383L213.588 104.064ZM212.82 102.016L227.801 96.3983L227.801 96.3982L212.82 102.016ZM212.18 99.2002L196.254 100.741L196.289 101.103L196.341 101.463L212.18 99.2002ZM213.204 86.2722L229.01 88.7561L199.891 77.397L213.204 86.2722ZM212.948 86.6562L199.635 77.781L224.262 97.9699L212.948 86.6562ZM213.972 85.8882L227.069 95.0791L227.179 94.9225L227.285 94.7635L213.972 85.8882ZM207.828 95.2322L222.139 102.388L222.139 102.388L207.828 95.2322ZM205.652 99.8402L220.112 106.69L220.179 106.548L220.243 106.406L205.652 99.8402ZM202.964 105.6L217.388 112.524L217.441 112.415L217.491 112.305L202.964 105.6ZM200.532 111.36L215.634 116.646L215.634 116.646L200.532 111.36ZM198.356 116.352L212.215 124.348L212.37 124.079L212.515 123.804L198.356 116.352ZM178.132 124.416L180.237 108.555L180.177 108.547L180.117 108.54L178.132 124.416ZM172.884 122.88L180.37 108.74L180.037 108.563L179.697 108.403L172.884 122.88ZM171.092 119.68L155.403 116.542L155.367 116.721L155.335 116.9L171.092 119.68ZM175.828 102.656L191.103 107.419L191.107 107.405L191.111 107.391L175.828 102.656ZM184.532 72.3202L169.62 66.5211L169.137 67.7635L168.866 69.0688L184.532 72.3202ZM186.068 67.5842L170.811 62.7661L170.694 63.1366L170.595 63.5123L186.068 67.5842ZM187.604 63.3602L202.31 69.6629L202.487 69.2502L202.641 68.8281L187.604 63.3602ZM236.5 92.0322L225.186 80.7185L220.5 85.4048V92.0322H236.5ZM236.5 92.2882H220.5L250.811 99.4437L236.5 92.2882ZM192.084 60.4162L207.996 62.0912C207.762 64.3175 206.89 66.3777 205.632 68.003C204.471 69.5018 203.299 70.2321 202.818 70.4946L195.156 56.4482L187.494 42.4019C182.595 45.0745 177.059 50.3137 176.172 58.7413L192.084 60.4162ZM195.156 56.4482L202.818 70.4946C202.533 70.6498 202.228 70.7659 201.938 70.837C201.653 70.9067 201.469 70.9122 201.428 70.9122V54.9122V38.9122C196.66 38.9122 191.902 39.9977 187.494 42.4019L195.156 56.4482ZM201.428 54.9122V70.9122C201.282 70.9122 201.109 70.8929 200.939 70.8505C200.773 70.8089 200.69 70.7652 200.702 70.7717L208.084 56.5762L215.466 42.3808C211.155 40.1393 206.415 38.9122 201.428 38.9122V54.9122ZM208.084 56.5762L201.379 71.1036C200.436 70.6685 199.423 69.9474 198.576 68.9312C197.755 67.9449 197.385 67.0375 197.239 66.5498L212.564 61.9522L227.889 57.3547C225.942 50.8649 221.59 45.1881 214.789 42.0489L208.084 56.5762ZM212.564 61.9522L223.07 74.0198C225.729 71.7052 227.54 70.7572 228.486 70.409C229.264 70.1232 229.159 70.3332 228.628 70.2043L232.404 54.6562L236.18 39.1082C222.813 35.8619 210.952 42.1416 202.058 49.8847L212.564 61.9522ZM232.404 54.6562L229.141 70.3199C228.076 70.098 227.071 69.6606 226.229 69.0851C225.418 68.5314 224.966 67.9945 224.785 67.7505L237.652 58.2402L250.519 48.73C247.145 44.1653 242.194 40.3523 235.667 38.9926L232.404 54.6562ZM237.652 58.2402L248.737 69.7779C251.274 67.3402 253.633 66.1429 255.878 65.5996L252.116 50.0482L248.354 34.4969C240.018 36.5136 232.734 40.7776 226.567 46.7026L237.652 58.2402ZM252.116 50.0482L252.731 66.0364C254.766 65.9581 255.661 66.1973 255.796 66.2407C255.834 66.2529 255.659 66.2008 255.363 66.0133C255.057 65.8192 254.711 65.5373 254.392 65.1704L266.452 54.6562L278.512 44.1421C271.083 35.62 260.481 33.7147 251.501 34.0601L252.116 50.0482ZM266.452 54.6562L255.138 65.97C255.19 66.0215 255.292 66.1288 255.44 66.3072L267.732 56.0642L280.024 45.8213C279.319 44.9757 278.568 44.1443 277.766 43.3425L266.452 54.6562ZM267.732 56.0642L256.035 66.9813C256.499 67.4778 256.663 67.6801 256.646 67.6594C256.637 67.6481 256.475 67.4468 256.243 67.0995C256.123 66.9188 255.94 66.6339 255.732 66.262C255.534 65.9078 255.229 65.3272 254.924 64.5666L269.78 58.6242L284.636 52.6819C283.582 50.0469 281.979 48.1001 281.634 47.6691C280.935 46.7951 280.16 45.9307 279.429 45.1471L267.732 56.0642ZM269.78 58.6242L256.321 67.2764C255.446 65.9143 255.207 64.9037 255.197 64.8611C255.168 64.7436 255.239 64.9996 255.3 65.7808C255.423 67.3726 255.418 69.9861 255.11 73.8729L271.06 75.1362L287.01 76.3996C287.385 71.6677 287.507 67.2198 287.204 63.3076C286.945 59.9653 286.244 54.6465 283.239 49.9721L269.78 58.6242ZM271.06 75.1362L255.116 73.7974C254.273 83.8441 252.35 93.9957 249.316 104.267L264.66 108.8L280.004 113.334C283.626 101.077 285.97 88.7857 287.004 76.475L271.06 75.1362ZM264.66 108.8L249.392 104.015C249.028 105.177 248.716 106.059 248.462 106.702C248.198 107.372 248.063 107.618 248.085 107.578C248.102 107.546 248.203 107.364 248.401 107.082C248.591 106.811 248.957 106.325 249.525 105.749C250.476 104.784 253.268 102.29 257.927 101.742L259.796 117.632L261.665 133.523C267.049 132.889 270.588 129.963 272.307 128.22C274.119 126.383 275.337 124.427 276.115 123.015C277.69 120.155 278.919 116.804 279.928 113.586L264.66 108.8ZM259.796 117.632L256.658 101.943C257.755 101.723 259.208 101.652 260.835 102.013L257.364 117.632L253.893 133.251C257.056 133.954 260.13 133.882 262.934 133.322L259.796 117.632ZM257.364 117.632L261.245 102.11C260.114 101.827 258.929 101.584 257.707 101.409L255.444 117.248L253.181 133.087C253.154 133.084 253.249 133.096 253.483 133.155L257.364 117.632ZM255.444 117.248V101.248C248.503 101.248 243.493 105.323 241.016 109.57C239.087 112.876 238.719 116.067 238.603 117.456L254.548 118.784L270.493 120.113C270.462 120.478 270.286 122.901 268.656 125.694C267.738 127.27 266.169 129.277 263.644 130.872C261.013 132.534 258.126 133.248 255.444 133.248V117.248ZM254.548 118.784L241.866 109.029C242.706 107.937 243.845 107.072 245.042 106.561C246.134 106.096 246.828 106.112 246.74 106.112V122.112V138.112C253.835 138.112 261.747 135.668 267.23 128.54L254.548 118.784ZM246.74 122.112V106.112C246.721 106.112 247.033 106.114 247.525 106.295C248.033 106.482 248.44 106.752 248.692 106.977L238.036 118.912L227.38 130.847C232.904 135.78 239.677 138.112 246.74 138.112V122.112ZM238.036 118.912L248.318 106.653C248.629 106.914 249.699 107.928 250.399 109.868C251.143 111.93 251.037 113.842 250.716 115.089L235.22 111.104L219.724 107.12C218.635 111.353 218.615 116.06 220.297 120.724C221.935 125.268 224.797 128.691 227.754 131.171L238.036 118.912ZM235.22 111.104L250.636 115.387C251.426 112.543 252.299 109.646 253.256 106.696L238.036 101.76L222.816 96.8242C221.725 100.189 220.72 103.522 219.804 106.822L235.22 111.104ZM238.036 101.76L253.293 106.578C254.265 103.502 255.322 100.33 256.466 97.0618L241.364 91.7762L226.262 86.4906C225.017 90.0493 223.855 93.5334 222.779 96.9421L238.036 101.76ZM241.364 91.7762L256.499 96.9654C258.482 91.1807 260.681 85.1236 263.097 78.7923L248.148 73.0882L233.199 67.3841C230.666 74.0235 228.342 80.4251 226.229 86.5871L241.364 91.7762ZM248.148 73.0882L236.107 62.5522C233 66.103 229.833 71.4396 226.758 77.1632L240.852 84.7362L254.946 92.3093C256.377 89.6461 257.571 87.5753 258.54 86.0296C259.02 85.2621 259.412 84.6784 259.716 84.2503C259.867 84.0392 259.984 83.8825 260.07 83.7727C260.157 83.6614 260.196 83.6166 260.189 83.6243L248.148 73.0882ZM240.852 84.7362L226.806 77.0746C225.291 79.8521 224.096 82.006 223.205 83.569C222.198 85.337 221.859 85.8538 221.937 85.7409L235.092 94.8482L248.247 103.956C249.622 101.97 252.025 97.6653 254.898 92.3979L240.852 84.7362ZM235.092 94.8482L220.781 87.6928C219.371 90.5122 218.282 92.6061 217.489 94.0495L231.508 101.76L245.527 109.471C246.611 107.501 247.911 104.987 249.403 102.004L235.092 94.8482ZM231.508 101.76L217.661 93.7437C217.834 93.446 218.063 93.134 218.346 92.8415C218.628 92.5503 218.903 92.3399 219.124 92.2004L227.668 105.728L236.212 119.256C239.967 116.885 243.089 113.691 245.355 109.777L231.508 101.76ZM227.668 105.728L219.325 92.0757C219.173 92.1683 219.178 92.1504 219.336 92.0854C219.496 92.0195 219.845 91.8922 220.367 91.7943L223.316 107.52L226.265 123.246C230.011 122.544 233.284 121.048 236.011 119.381L227.668 105.728ZM223.316 107.52L220.178 91.831C220.531 91.7603 221.125 91.703 221.867 91.8091L219.604 107.648L217.341 123.487C220.473 123.935 223.541 123.792 226.454 123.21L223.316 107.52ZM219.604 107.648L222.001 91.8288C222.201 91.8592 223.056 92.0191 224.177 92.6866C225.378 93.4023 226.474 94.4614 227.255 95.7451L213.588 104.064L199.921 112.383C204.155 119.34 210.933 122.517 217.207 123.468L219.604 107.648ZM213.588 104.064L228.569 98.4463C228.516 98.304 228.239 97.5646 228.185 97.4223C228.137 97.2943 228.137 97.2943 228.089 97.1663C228.041 97.0383 228.041 97.0383 227.993 96.9103C227.945 96.7823 227.945 96.7823 227.897 96.6543C227.849 96.5263 227.849 96.5263 227.801 96.3983L212.82 102.016L197.839 107.634C197.884 107.755 198.177 108.537 198.223 108.658C198.264 108.768 198.373 109.06 198.415 109.17C198.456 109.28 198.565 109.572 198.607 109.682L213.588 104.064ZM212.82 102.016L227.801 96.3982C227.902 96.6663 227.967 96.8752 228.005 97.0073C228.044 97.1413 228.064 97.2269 228.07 97.2543C228.08 97.2996 228.058 97.2066 228.019 96.9375L212.18 99.2002L196.341 101.463C196.584 103.163 196.999 105.394 197.839 107.634L212.82 102.016ZM212.18 99.2002L228.106 97.6591C228.106 97.6627 228.058 96.9699 228.194 95.2476C228.322 93.6261 228.581 91.4838 229.01 88.7561L213.204 86.2722L197.398 83.7884C196.447 89.8413 195.786 95.9044 196.254 100.741L212.18 99.2002ZM213.204 86.2722L199.891 77.397L199.635 77.781L212.948 86.6562L226.261 95.5314L226.517 95.1474L213.204 86.2722ZM212.948 86.6562L224.262 97.9699C224.983 97.2488 224.489 97.8087 223.572 98.4962C223.366 98.6508 222.997 98.9199 222.508 99.2252C222.125 99.4644 221.11 100.084 219.686 100.617C219.16 100.815 214.298 102.798 208.474 100.615C204.852 99.2563 201.822 96.6203 199.98 93.1678C198.342 90.0962 198.1 87.2527 198.1 85.6482C198.1 82.6826 198.949 80.4872 199.14 79.9853C199.462 79.1403 199.787 78.5082 199.95 78.2028C200.286 77.5733 200.581 77.1298 200.659 77.013L213.972 85.8882L227.285 94.7635C227.448 94.5186 227.807 93.9712 228.186 93.2617C228.37 92.9163 228.711 92.2502 229.044 91.3772C229.246 90.8473 230.1 88.6299 230.1 85.6483C230.1 84.0358 229.857 81.1858 228.216 78.1091C226.372 74.6517 223.337 72.0122 219.71 70.652C213.876 68.4641 208.997 70.4497 208.45 70.655C206.078 71.5446 204.443 72.8431 204.372 72.8963C203.114 73.8398 201.937 75.0397 201.634 75.3425L212.948 86.6562ZM213.972 85.8882L200.875 76.6974C197.706 81.2139 194.849 85.4127 193.517 88.0768L207.828 95.2322L222.139 102.388C222.012 102.642 222.215 102.228 223.245 100.663C224.144 99.2949 225.408 97.4464 227.069 95.0791L213.972 85.8882ZM207.828 95.2322L193.517 88.0768C192.718 89.6743 191.899 91.4117 191.061 93.2744L205.652 99.8402L220.243 106.406C220.941 104.855 221.572 103.521 222.139 102.388L207.828 95.2322ZM205.652 99.8402L191.192 92.9909C190.395 94.6738 189.476 96.6443 188.437 98.8953L202.964 105.6L217.491 112.305C218.5 110.119 219.373 108.249 220.112 106.69L205.652 99.8402ZM202.964 105.6L188.54 98.6765C187.333 101.191 186.272 103.67 185.43 106.075L200.532 111.36L215.634 116.646C215.987 115.637 216.547 114.277 217.388 112.524L202.964 105.6ZM200.532 111.36L185.43 106.075C185.097 107.027 184.688 107.968 184.197 108.9L198.356 116.352L212.515 123.804C213.73 121.494 214.772 119.107 215.634 116.646L200.532 111.36ZM198.356 116.352L184.497 108.357C184.326 108.653 184.255 108.683 184.341 108.607C184.436 108.523 184.52 108.488 184.494 108.498C184.392 108.539 183.231 108.953 180.237 108.555L178.132 124.416L176.027 140.277C182.676 141.16 189.707 140.87 196.346 138.222C203.263 135.464 208.611 130.595 212.215 124.348L198.356 116.352ZM178.132 124.416L180.117 108.54C179.833 108.504 179.732 108.471 179.778 108.484C179.827 108.499 180.044 108.567 180.37 108.74L172.884 122.88L165.398 137.021C168.94 138.896 172.651 139.856 176.147 140.293L178.132 124.416ZM172.884 122.88L179.697 108.403C181.056 109.043 183.536 110.587 185.308 113.751C187.162 117.061 187.225 120.325 186.849 122.461L171.092 119.68L155.335 116.9C154.703 120.486 154.937 125.008 157.388 129.386C159.757 133.617 163.261 136.035 166.071 137.357L172.884 122.88ZM171.092 119.68L186.781 122.818C187.283 120.311 188.63 115.349 191.103 107.419L175.828 102.656L160.553 97.8932C158.077 105.835 156.267 112.222 155.403 116.542L171.092 119.68ZM175.828 102.656L191.111 107.391C195.909 91.9039 199.072 80.999 200.198 75.5717L184.532 72.3202L168.866 69.0688C168.115 72.6868 165.475 82.0059 160.545 97.9217L175.828 102.656ZM184.532 72.3202L199.444 78.1194C200.265 76.0091 200.963 73.8533 201.541 71.6561L186.068 67.5842L170.595 63.5123C170.32 64.5579 169.994 65.5594 169.62 66.5211L184.532 72.3202ZM186.068 67.5842L201.325 72.4023C201.724 71.141 202.058 70.251 202.31 69.6629L187.604 63.3602L172.898 57.0575C172.126 58.8589 171.436 60.7849 170.811 62.7661L186.068 67.5842ZM187.604 63.3602L202.641 68.8281C202.592 68.9625 202.358 69.5842 201.796 70.4328C201.231 71.2842 200.135 72.6636 198.279 73.8835C196.296 75.1863 193.88 76.0134 191.292 76.1093C188.831 76.2004 186.9 75.6091 185.704 75.0894L192.084 60.4162L198.464 45.7431C193.66 43.6547 186.904 43.0672 180.705 47.141C175.706 50.4258 173.534 55.2341 172.567 57.8924L187.604 63.3602ZM236.5 92.0322H220.5V92.2882H236.5H252.5V92.0322H236.5ZM236.5 92.2882L250.811 99.4437C250.941 99.1835 251.194 98.667 251.452 98.0225C251.579 97.7047 251.797 97.1342 252.004 96.4078C252.142 95.925 252.628 94.2148 252.628 91.9682C252.628 90.8221 252.522 82.0106 243.775 77.6374C239.83 75.6645 236.139 75.8051 233.98 76.1649C231.851 76.5197 230.268 77.2279 229.441 77.6414C227.803 78.4602 226.686 79.3778 226.313 79.6887C225.802 80.1148 225.413 80.4922 225.186 80.7185L236.5 92.0322L247.814 103.346C247.63 103.53 247.278 103.872 246.799 104.272C246.458 104.556 245.368 105.455 243.751 106.263C242.935 106.671 241.361 107.376 239.24 107.73C237.089 108.088 233.405 108.229 229.465 106.259C220.729 101.891 220.628 93.093 220.628 91.9682C220.628 89.7431 221.108 88.0622 221.236 87.6167C221.433 86.9276 221.635 86.4024 221.74 86.138C221.956 85.6002 222.144 85.2224 222.189 85.1328L236.5 92.2882ZM303.265 63.7442L299.193 79.2174L310.241 82.1248L316.578 72.6194L303.265 63.7442ZM321.057 52.2242L323.716 68.0017L323.746 67.9967L323.776 67.9916L321.057 52.2242ZM330.145 51.3282L329.402 35.3455L329.393 35.3459L329.384 35.3463L330.145 51.3282ZM339.489 53.7602L330.314 66.868L330.414 66.9382L330.515 67.0069L339.489 53.7602ZM345.377 60.6722L360.018 54.2201L359.981 54.1355L359.943 54.0514L345.377 60.6722ZM346.401 79.2322L362.051 82.562L362.056 82.536L362.062 82.5101L346.401 79.2322ZM343.329 92.5442L358.851 96.4248L358.859 96.3927L358.867 96.3606L343.329 92.5442ZM337.953 106.752L323.694 99.4933L323.694 99.4933L337.953 106.752ZM328.609 119.936L316.936 108.993L316.936 108.993L328.609 119.936ZM313.633 129.664L307.834 114.752L307.792 114.768L307.75 114.785L313.633 129.664ZM303.905 131.2L306.302 115.381L306.096 115.35L305.89 115.324L303.905 131.2ZM294.945 126.208L310.033 120.883L294.901 78.0088L279.847 120.911L294.945 126.208ZM290.081 140.928L274.8 136.186L274.752 136.342L274.706 136.498L290.081 140.928ZM284.193 155.264L292.913 168.679L296.294 166.482L298.229 162.944L284.193 155.264ZM277.921 157.696L274.679 142.028L274.422 142.081L274.167 142.143L277.921 157.696ZM270.625 157.312L276.006 142.244L275.765 142.158L275.521 142.08L270.625 157.312ZM265.505 152.96L279.929 146.037L279.76 145.684L279.574 145.34L265.505 152.96ZM266.273 134.016L281.425 139.157L281.429 139.144L281.434 139.131L266.273 134.016ZM272.161 117.632L287.017 123.574L287.074 123.431L287.129 123.287L272.161 117.632ZM274.977 110.208L289.911 115.952L289.98 115.772L290.045 115.59L274.977 110.208ZM276.257 106.496L261.297 100.822L261.181 101.127L261.078 101.437L276.257 106.496ZM280.353 94.4642L265.016 89.9047L264.975 90.043L264.937 90.1819L280.353 94.4642ZM282.913 86.2722L298.092 91.3319L298.913 88.8687V86.2722H282.913ZM282.913 86.1442L267.311 82.5983L266.913 84.349V86.1442H282.913ZM286.881 74.2402L272.236 67.7964L272.205 67.8668L272.175 67.9375L286.881 74.2402ZM290.721 66.4322L279.407 55.1185L278.52 56.0062L277.781 57.0215L290.721 66.4322ZM295.201 63.7442L298.672 79.3632L298.672 79.3632L295.201 63.7442ZM300.449 63.1042V47.1042H300.101L299.754 47.1193L300.449 63.1042ZM300.833 63.1042L304.905 47.6311L302.903 47.1042H300.833V63.1042ZM312.993 85.1202L326.885 93.0585L328.529 90.181L328.895 86.8872L312.993 85.1202ZM307.873 90.1122L299.221 76.6534L295.098 79.3041L293.167 83.8095L307.873 90.1122ZM306.721 92.8002L292.015 86.4975L291.896 86.7749L291.787 87.0566L306.721 92.8002ZM304.289 99.5842L289.11 94.5246L289.11 94.5246L304.289 99.5842ZM301.729 106.368L286.994 100.134L282.794 110.061L290.415 117.682L301.729 106.368ZM303.649 108.8L289.663 116.571L299.281 133.883L314.185 120.841L303.649 108.8ZM316.705 92.2882L330.576 100.264L330.665 100.108L330.751 99.9499L316.705 92.2882ZM319.649 83.8402L303.907 80.9781L303.865 81.2101L303.83 81.4434L319.649 83.8402ZM320.033 78.4642L304.854 83.5239L304.854 83.5239L320.033 78.4642ZM317.089 77.8242L324.244 92.135L324.642 91.9365L325.027 91.7162L317.089 77.8242ZM315.809 78.7202L304.495 67.4065L304.495 67.4066L315.809 78.7202ZM315.937 78.7202L328.151 89.0553L306.337 65.9203L315.937 78.7202ZM313.889 81.6642L327.876 89.4345L328.044 89.1306L328.2 88.8197L313.889 81.6642ZM303.265 63.7442L316.578 72.6194C318.393 69.8962 320.466 68.5495 323.716 68.0017L321.057 52.2242L318.398 36.4468C306.459 38.459 296.67 44.7923 289.952 54.869L303.265 63.7442ZM321.057 52.2242L323.776 67.9916C325.394 67.7126 327.725 67.4616 330.906 67.3101L330.145 51.3282L329.384 35.3463C325.397 35.5362 321.67 35.8825 318.339 36.4569L321.057 52.2242ZM330.145 51.3282L330.888 67.311C331.339 67.29 331.405 67.3449 331.203 67.2924C331.104 67.2666 330.962 67.2204 330.795 67.1436C330.627 67.0664 330.463 66.9724 330.314 66.868L339.489 53.7602L348.664 40.6525C342.72 36.4912 335.96 35.0405 329.402 35.3455L330.145 51.3282ZM339.489 53.7602L330.515 67.0069C330.618 67.0765 330.681 67.1285 330.715 67.1588C330.749 67.1886 330.763 67.2049 330.765 67.2077C330.767 67.2103 330.769 67.2119 330.772 67.2171C330.775 67.2225 330.789 67.2452 330.811 67.2931L345.377 60.6722L359.943 54.0514C357.403 48.4629 353.462 43.9002 348.463 40.5135L339.489 53.7602ZM345.377 60.6722L330.736 67.1244C331.196 68.1696 331.835 70.7232 330.74 75.9544L346.401 79.2322L362.062 82.5101C364.039 73.0639 363.995 63.2442 360.018 54.2201L345.377 60.6722ZM346.401 79.2322L330.751 75.9025C329.939 79.7195 328.954 83.9916 327.791 88.7278L343.329 92.5442L358.867 96.3606C360.093 91.3688 361.156 86.7663 362.051 82.562L346.401 79.2322ZM343.329 92.5442L327.807 88.6637C326.924 92.1945 325.574 95.8011 323.694 99.4933L337.953 106.752L352.212 114.011C355.111 108.317 357.345 102.451 358.851 96.4248L343.329 92.5442ZM337.953 106.752L323.694 99.4933C322.033 102.757 319.813 105.925 316.936 108.993L328.609 119.936L340.282 130.879C345.085 125.756 349.094 120.134 352.212 114.011L337.953 106.752ZM328.609 119.936L316.936 108.993C314.994 111.065 312.134 113.08 307.834 114.752L313.633 129.664L319.432 144.576C327.42 141.47 334.544 137 340.282 130.879L328.609 119.936ZM313.633 129.664L307.75 114.785C306.796 115.162 306.211 115.291 305.954 115.332C305.71 115.37 305.862 115.314 306.302 115.381L303.905 131.2L301.508 147.02C307.993 148.002 314.185 146.651 319.516 144.544L313.633 129.664ZM303.905 131.2L305.89 115.324C305.488 115.274 305.173 115.223 304.934 115.178C304.693 115.133 304.555 115.098 304.504 115.085C304.45 115.07 304.523 115.087 304.694 115.153C304.862 115.218 305.183 115.354 305.605 115.591L297.761 129.536L289.917 143.481C293.972 145.763 298.451 146.643 301.92 147.077L303.905 131.2ZM297.761 129.536L305.605 115.591C306.452 116.068 307.394 116.784 308.247 117.793C309.104 118.806 309.681 119.886 310.033 120.883L294.945 126.208L279.857 131.533C281.685 136.713 285.24 140.851 289.917 143.481L297.761 129.536ZM294.945 126.208L279.847 120.911C278.076 125.96 276.393 131.051 274.8 136.186L290.081 140.928L305.362 145.671C306.841 140.906 308.401 136.185 310.043 131.506L294.945 126.208ZM290.081 140.928L274.706 136.498C273.576 140.422 272.058 144.109 270.157 147.584L284.193 155.264L298.229 162.944C301.277 157.374 303.685 151.504 305.456 145.358L290.081 140.928ZM284.193 155.264L275.473 141.849C275.786 141.646 275.658 141.826 274.679 142.028L277.921 157.696L281.163 173.364C285.133 172.543 289.187 171.101 292.913 168.679L284.193 155.264ZM277.921 157.696L274.167 142.143C274.364 142.095 274.685 142.049 275.082 142.07C275.479 142.091 275.801 142.171 276.006 142.244L270.625 157.312L265.244 172.38C270.577 174.285 276.184 174.575 281.675 173.25L277.921 157.696ZM270.625 157.312L275.521 142.08C276.09 142.263 276.982 142.664 277.915 143.457C278.866 144.265 279.527 145.199 279.929 146.037L265.505 152.96L251.081 159.884C254.131 166.238 259.441 170.524 265.729 172.545L270.625 157.312ZM265.505 152.96L279.574 145.34C279.67 145.517 279.748 145.72 279.796 145.917C279.844 146.109 279.841 146.209 279.841 146.176H263.841H247.841C247.841 151.141 248.98 156.046 251.436 160.581L265.505 152.96ZM263.841 146.176H279.841C279.841 145.253 280.106 143.044 281.425 139.157L266.273 134.016L251.121 128.876C249.197 134.546 247.841 140.443 247.841 146.176H263.841ZM266.273 134.016L281.434 139.131C283.791 132.143 285.644 127.007 287.017 123.574L272.161 117.632L257.305 111.69C255.606 115.938 253.534 121.724 251.112 128.902L266.273 134.016ZM272.161 117.632L287.129 123.287C288.584 119.435 289.504 117.008 289.911 115.952L274.977 110.208L260.043 104.465C259.596 105.627 258.64 108.15 257.193 111.978L272.161 117.632ZM274.977 110.208L290.045 115.59C290.512 114.282 290.976 112.937 291.436 111.556L276.257 106.496L261.078 101.437C260.685 102.616 260.295 103.746 259.909 104.827L274.977 110.208ZM276.257 106.496L291.217 112.171C293.171 107.02 294.728 102.494 295.769 98.7465L280.353 94.4642L264.937 90.1819C264.271 92.5782 263.098 96.074 261.297 100.822L276.257 106.496ZM280.353 94.4642L295.69 99.0238C296.595 95.9795 297.395 93.4237 298.092 91.3319L282.913 86.2722L267.734 81.2126C266.895 83.7288 265.989 86.6343 265.016 89.9047L280.353 94.4642ZM282.913 86.2722H298.913V86.1442H282.913H266.913V86.2722H282.913ZM282.913 86.1442L298.515 89.6902C299.119 87.0311 300.11 83.9895 301.587 80.543L286.881 74.2402L272.175 67.9375C270.068 72.8536 268.413 77.748 267.311 82.5983L282.913 86.1442ZM286.881 74.2402L301.526 80.6841C302.421 78.6504 303.108 77.1631 303.607 76.1494C303.856 75.6423 304.014 75.3441 304.091 75.2042C304.215 74.9805 304.056 75.2992 303.661 75.843L290.721 66.4322L277.781 57.0215C276.536 58.7335 275.513 60.7631 274.891 62.0271C274.11 63.616 273.219 65.5634 272.236 67.7964L286.881 74.2402ZM290.721 66.4322L302.035 77.7459C301.976 77.8043 300.884 78.8717 298.672 79.3632L295.201 63.7442L291.73 48.1252C286.446 49.2995 282.367 52.1589 279.407 55.1185L290.721 66.4322ZM295.201 63.7442L298.672 79.3632C299.103 79.2674 299.896 79.1434 301.144 79.0891L300.449 63.1042L299.754 47.1193C297.076 47.2358 294.371 47.5385 291.73 48.1253L295.201 63.7442ZM300.449 63.1042V79.1042H300.833V63.1042V47.1042H300.449V63.1042ZM300.833 63.1042L296.761 78.5774L299.193 79.2174L303.265 63.7442L307.337 48.2711L304.905 47.6311L300.833 63.1042ZM312.993 85.1202L299.101 77.182C299.432 76.6025 299.723 76.3072 299.775 76.2562C299.822 76.2113 299.678 76.3598 299.221 76.6534L307.873 90.1122L316.525 103.571C320.307 101.14 324.195 97.7657 326.885 93.0585L312.993 85.1202ZM307.873 90.1122L293.167 83.8095L292.015 86.4975L306.721 92.8002L321.427 99.103L322.579 96.415L307.873 90.1122ZM306.721 92.8002L291.787 87.0566C290.845 89.5062 289.953 91.9957 289.11 94.5246L304.289 99.5842L319.468 104.644C320.161 102.565 320.89 100.532 321.655 98.5439L306.721 92.8002ZM304.289 99.5842L289.11 94.5246C288.473 96.4346 287.768 98.304 286.994 100.134L301.729 106.368L316.464 112.602C317.568 109.995 318.569 107.342 319.468 104.644L304.289 99.5842ZM301.729 106.368L290.415 117.682C290.472 117.738 290.416 117.689 290.291 117.531C290.168 117.375 289.932 117.056 289.663 116.571L303.649 108.8L317.636 101.03C316.274 98.58 314.585 96.597 313.043 95.0545L301.729 106.368ZM303.649 108.8L314.185 120.841C320.567 115.257 325.973 108.268 330.576 100.264L316.705 92.2882L302.835 84.3127C299.586 89.9623 296.288 93.9804 293.113 96.759L303.649 108.8ZM316.705 92.2882L330.751 99.9499C333.069 95.7007 334.729 91.1155 335.468 86.2371L319.649 83.8402L303.83 81.4434C303.715 82.197 303.413 83.2438 302.659 84.6266L316.705 92.2882ZM319.649 83.8402L335.391 86.7024C335.698 85.0157 335.966 83.2323 336.088 81.5242C336.164 80.4704 336.424 77.042 335.212 73.4046L320.033 78.4642L304.854 83.5239C304.539 82.5799 304.384 81.7909 304.303 81.2703C304.219 80.7335 304.187 80.306 304.173 80.0313C304.159 79.749 304.16 79.5411 304.162 79.427C304.165 79.3094 304.17 79.2452 304.17 79.2443C304.17 79.2416 304.167 79.2799 304.158 79.3646C304.149 79.4484 304.134 79.5655 304.113 79.7191C304.07 80.0307 304.004 80.4459 303.907 80.9781L319.649 83.8402ZM320.033 78.4642L335.212 73.4046C334.548 71.4138 333.169 68.358 330.224 65.7075C326.945 62.7558 322.828 61.3122 318.753 61.3122V77.3122V93.3122C315.275 93.3122 311.671 92.0607 308.818 89.4929C306.299 87.2265 305.262 84.7467 304.854 83.5239L320.033 78.4642ZM318.753 77.3122V61.3122C314.661 61.3122 311.365 62.667 309.151 63.9323L317.089 77.8242L325.027 91.7162C324.007 92.2989 321.821 93.3122 318.753 93.3122V77.3122ZM317.089 77.8242L309.934 63.5134C308.161 64.3995 306.255 65.6473 304.495 67.4065L315.809 78.7202L327.123 90.034C326.046 91.1105 324.993 91.761 324.244 92.135L317.089 77.8242ZM315.809 78.7202L304.495 67.4066C304.389 67.5126 303.905 67.9936 303.381 68.6213C303.341 68.6694 302.248 69.9217 301.336 71.7448C301.056 72.3053 300.595 73.3053 300.229 74.6231C299.906 75.7863 299.328 78.3338 299.862 81.5394C300.489 85.3027 302.613 89.4522 306.771 92.2242C310.378 94.6296 313.917 94.9122 315.649 94.9122C318.859 94.9122 321.237 93.911 321.603 93.7648C322.424 93.4364 323.044 93.1084 323.341 92.9465C323.963 92.6073 324.433 92.2967 324.612 92.177C325.032 91.8975 325.377 91.6401 325.537 91.5202L315.937 78.7202L306.337 65.9203C306.354 65.9072 306.403 65.8712 306.474 65.8197C306.537 65.7742 306.675 65.6761 306.862 65.5515C306.993 65.4638 307.425 65.1772 308.017 64.854C308.299 64.7001 308.907 64.3781 309.718 64.0536C310.074 63.9115 312.444 62.9122 315.649 62.9122C317.379 62.9122 320.915 63.1944 324.521 65.5988C328.678 68.3698 330.8 72.5178 331.427 76.2791C331.961 79.4826 331.383 82.0277 331.061 83.1879C330.696 84.5027 330.236 85.4992 329.958 86.0557C329.054 87.8628 327.978 89.091 327.965 89.1071C327.681 89.4478 327.449 89.6948 327.359 89.7902C327.247 89.9089 327.162 89.9945 327.123 90.0339L315.809 78.7202ZM315.937 78.7202L303.723 68.3852C302.342 70.0173 300.789 72.0879 299.578 74.5088L313.889 81.6642L328.2 88.8197C328.094 89.0322 328.005 89.1862 327.949 89.279C327.892 89.3726 327.858 89.4219 327.855 89.4253C327.853 89.4292 327.874 89.399 327.925 89.3334C327.975 89.2682 328.049 89.1758 328.151 89.0553L315.937 78.7202ZM313.889 81.6642L299.902 73.894C297.943 77.4216 297.345 81.0663 297.091 83.3533L312.993 85.1202L328.895 86.8872C328.92 86.6669 328.922 86.7768 328.833 87.1196C328.754 87.4244 328.505 88.302 327.876 89.4345L313.889 81.6642ZM392.339 97.1522L399.188 111.612L399.397 111.513L399.602 111.409L392.339 97.1522ZM387.603 98.9442L391.885 114.361L391.885 114.361L387.603 98.9442ZM382.227 100.224L385.46 115.894L385.475 115.891L385.49 115.888L382.227 100.224ZM370.579 102.144L369.439 86.1849L349.514 87.6081L355.254 106.742L370.579 102.144ZM374.419 105.216L367.054 119.42L369.297 120.583L371.789 120.999L374.419 105.216ZM379.411 104.576L385.107 119.528L385.289 119.459L385.469 119.385L379.411 104.576ZM385.171 102.528L389.83 117.835L390.031 117.774L390.231 117.707L385.171 102.528ZM391.059 101.376L390.364 85.3913L390.348 85.392L390.332 85.3927L391.059 101.376ZM396.563 103.552L411.184 97.054L409.8 93.9395L407.266 91.6595L396.563 103.552ZM398.227 106.24L406.459 92.5204L406.459 92.5204L398.227 106.24ZM402.323 109.952L387.732 116.518L387.866 116.816L388.012 117.108L402.323 109.952ZM401.683 114.816L389.391 104.573L389.219 104.78L389.053 104.993L401.683 114.816ZM396.051 118.784L402.413 133.465L402.413 133.465L396.051 118.784ZM387.091 121.472L390.229 137.162L390.229 137.162L387.091 121.472ZM376.851 122.88L375.654 106.925L375.632 106.927L375.61 106.928L376.851 122.88ZM359.315 121.088L365.842 106.48L365.155 106.173L364.441 105.932L359.315 121.088ZM348.051 109.44L332.68 113.881L332.69 113.918L332.701 113.955L348.051 109.44ZM351.763 82.5602L366.308 89.2267L366.341 89.1548L366.373 89.0827L351.763 82.5602ZM361.875 67.2002L374.104 77.5182L374.117 77.5022L374.131 77.4862L361.875 67.2002ZM375.315 56.8322L381.648 71.5254L381.659 71.5206L381.671 71.5158L375.315 56.8322ZM393.235 53.3762L392.797 69.3702L392.811 69.3706L392.825 69.371L393.235 53.3762ZM407.059 62.0802L421.765 55.7775L421.697 55.6177L421.625 55.4594L407.059 62.0802ZM407.827 74.6242L423.531 77.6884L423.609 77.2894L423.666 76.887L407.827 74.6242ZM402.451 89.4722L415.019 99.3742L415.09 99.2833L415.161 99.1914L402.451 89.4722ZM384.915 76.9282L400.24 72.3307L397.501 63.1994L388.166 61.2621L384.915 76.9282ZM374.291 84.6082L388.751 91.4576L388.897 91.1496L389.029 90.8357L374.291 84.6082ZM372.499 89.7282L356.934 86.0223L352.769 103.517L370.63 105.619L372.499 89.7282ZM381.715 84.8642L393.58 95.5989L393.829 95.3229L394.066 95.0356L381.715 84.8642ZM384.403 80.5122L399.198 86.6042L399.258 86.4584L399.315 86.3114L384.403 80.5122ZM392.339 97.1522L385.49 82.6924C384.594 83.1166 383.874 83.3743 383.321 83.528L387.603 98.9442L391.885 114.361C394.404 113.661 396.841 112.724 399.188 111.612L392.339 97.1522ZM387.603 98.9442L383.321 83.528C382.207 83.8375 380.768 84.1846 378.964 84.5606L382.227 100.224L385.49 115.888C387.782 115.411 389.928 114.904 391.885 114.361L387.603 98.9442ZM382.227 100.224L378.994 84.5544C373.658 85.6554 370.68 86.0963 369.439 86.1849L370.579 102.144L371.719 118.104C375.257 117.851 380.044 117.012 385.46 115.894L382.227 100.224ZM370.579 102.144L355.254 106.742C356.818 111.957 360.398 114.976 361.736 116.046C363.525 117.477 365.442 118.585 367.054 119.42L374.419 105.216L381.784 91.0122C381.092 90.6532 381.217 90.6513 381.726 91.0583C381.999 91.2765 382.629 91.8077 383.346 92.6844C384.037 93.5288 385.186 95.1515 385.904 97.5467L370.579 102.144ZM374.419 105.216L371.789 120.999C376.705 121.818 381.273 120.989 385.107 119.528L379.411 104.576L373.715 89.6244C373.965 89.5291 375.205 89.1265 377.049 89.4339L374.419 105.216ZM379.411 104.576L385.469 119.385C386.883 118.807 388.335 118.29 389.83 117.835L385.171 102.528L380.512 87.2215C378.081 87.9614 375.694 88.8098 373.353 89.7675L379.411 104.576ZM385.171 102.528L390.231 117.707C391.082 117.423 391.583 117.369 391.786 117.36L391.059 101.376L390.332 85.3927C386.781 85.5542 383.356 86.2677 380.111 87.3493L385.171 102.528ZM391.059 101.376L391.754 117.361C390.48 117.417 389.188 117.196 388.024 116.736C386.905 116.293 386.195 115.746 385.86 115.445L396.563 103.552L407.266 91.6595C403.009 87.8281 397.219 85.0933 390.364 85.3913L391.059 101.376ZM396.563 103.552L381.942 110.05C382.427 111.142 383.072 112.481 383.887 113.798C384.326 114.508 386.255 117.716 389.995 119.96L398.227 106.24L406.459 92.5204C408.403 93.687 409.583 94.9893 410.063 95.5528C410.622 96.2091 410.961 96.7371 411.095 96.9546C411.356 97.3754 411.382 97.4989 411.184 97.054L396.563 103.552ZM398.227 106.24L389.995 119.96C391.839 121.067 395.103 122.624 399.379 122.624V106.624V90.6242C402.972 90.6242 405.468 91.9257 406.459 92.5204L398.227 106.24ZM399.379 106.624V122.624C395.786 122.624 393.29 121.323 392.299 120.728L400.531 107.008L408.763 93.2884C406.919 92.1817 403.655 90.6242 399.379 90.6242V106.624ZM400.531 107.008L392.299 120.728C391.163 120.047 390.33 119.346 389.791 118.844C389.238 118.329 388.828 117.866 388.557 117.537C388.034 116.905 387.728 116.414 387.632 116.255C387.441 115.943 387.474 115.944 387.732 116.518L402.323 109.952L416.914 103.386C416.404 102.254 415.754 100.911 414.966 99.6171C414.648 99.0944 412.667 95.6309 408.763 93.2884L400.531 107.008ZM402.323 109.952L388.012 117.108C387.255 115.593 386.564 113.219 386.94 110.361C387.308 107.563 388.526 105.611 389.391 104.573L401.683 114.816L413.975 125.059C416.12 122.485 418.085 118.955 418.666 114.536C419.256 110.057 418.245 106.018 416.634 102.797L402.323 109.952ZM401.683 114.816L389.053 104.993C389.583 104.312 390.036 103.971 390.164 103.881C390.285 103.795 390.172 103.894 389.689 104.103L396.051 118.784L402.413 133.465C406.434 131.722 410.909 129.016 414.313 124.639L401.683 114.816ZM396.051 118.784L389.689 104.103C388.383 104.669 386.519 105.27 383.953 105.783L387.091 121.472L390.229 137.162C394.49 136.309 398.599 135.118 402.413 133.465L396.051 118.784ZM387.091 121.472L383.953 105.783C381.17 106.34 378.405 106.719 375.654 106.925L376.851 122.88L378.048 138.835C382.124 138.53 386.185 137.97 390.229 137.162L387.091 121.472ZM376.851 122.88L375.61 106.928C372.449 107.174 370.063 107.14 368.334 106.963C367.484 106.876 366.863 106.762 366.437 106.659C366.009 106.555 365.833 106.476 365.842 106.48L359.315 121.088L352.788 135.696C360.439 139.115 369.482 139.502 378.092 138.832L376.851 122.88ZM359.315 121.088L364.441 105.932C364.013 105.787 363.786 105.662 363.695 105.607C363.611 105.555 363.613 105.545 363.649 105.582C363.685 105.619 363.685 105.632 363.652 105.573C363.615 105.508 363.515 105.313 363.401 104.926L348.051 109.44L332.701 113.955C335.901 124.834 343.523 132.637 354.189 136.245L359.315 121.088ZM348.051 109.44L363.422 105C362.631 102.26 362.564 97.3948 366.308 89.2267L351.763 82.5602L337.218 75.8938C331.575 88.2056 329.034 101.26 332.68 113.881L348.051 109.44ZM351.763 82.5602L366.373 89.0827C367.718 86.0711 370.137 82.2198 374.104 77.5182L361.875 67.2002L349.646 56.8823C344.397 63.1034 340.075 69.492 337.153 76.0378L351.763 82.5602ZM361.875 67.2002L374.131 77.4862C376.791 74.3168 379.325 72.5267 381.648 71.5254L375.315 56.8322L368.982 42.1391C361.406 45.4045 354.981 50.5263 349.619 56.9143L361.875 67.2002ZM375.315 56.8322L381.671 71.5158C385.245 69.9685 388.9 69.2635 392.797 69.3702L393.235 53.3762L393.673 37.3822C385.111 37.1477 376.819 38.7467 368.959 42.1487L375.315 56.8322ZM393.235 53.3762L392.825 69.371C393.381 69.3852 393.624 69.4499 393.633 69.4525C393.636 69.4534 393.587 69.44 393.497 69.4011C393.407 69.3618 393.29 69.3029 393.158 69.22C392.874 69.0414 392.649 68.8321 392.504 68.6593C392.369 68.4985 392.389 68.4721 392.493 68.7011L407.059 62.0802L421.625 55.4594C419.232 50.1956 415.507 45.4768 410.208 42.1405C404.98 38.8485 399.21 37.5242 393.645 37.3815L393.235 53.3762ZM407.059 62.0802L392.353 68.383C392.094 67.7783 392.194 67.674 392.241 68.434C392.287 69.1797 392.261 70.4494 391.988 72.3615L407.827 74.6242L423.666 76.887C424.601 70.3412 424.738 62.7133 421.765 55.7775L407.059 62.0802ZM407.827 74.6242L392.123 71.5601C391.547 74.512 390.951 76.6556 390.415 78.1372C389.852 79.6924 389.527 80.0327 389.741 79.753L402.451 89.4722L415.161 99.1914C419.718 93.2322 422.06 85.2246 423.531 77.6884L407.827 74.6242ZM402.451 89.4722L389.883 79.5703C389.564 79.9758 388.335 81.2357 385.076 82.8956L392.339 97.1522L399.602 111.409C405.389 108.461 410.901 104.601 415.019 99.3742L402.451 89.4722ZM384.915 76.9282L388.166 61.2621C381.787 59.9382 375.134 61.0997 369.493 65.1775C364.444 68.828 361.437 73.9208 359.553 78.3808L374.291 84.6082L389.029 90.8357C389.705 89.2371 389.749 90.0205 388.241 91.111C387.389 91.7265 386.235 92.29 384.861 92.5663C383.509 92.8382 382.385 92.7441 381.664 92.5944L384.915 76.9282ZM374.291 84.6082L359.831 77.7589C358.574 80.4133 357.612 83.176 356.934 86.0223L372.499 89.7282L388.064 93.4342C388.24 92.6965 388.472 92.0458 388.751 91.4576L374.291 84.6082ZM372.499 89.7282L370.63 105.619C381.312 106.875 389.144 100.501 393.58 95.5989L381.715 84.8642L369.85 74.1296C369.029 75.0373 368.885 74.9486 369.511 74.6181C370.286 74.2088 372.033 73.563 374.368 73.8378L372.499 89.7282ZM381.715 84.8642L394.066 95.0356C396.08 92.5899 397.888 89.7865 399.198 86.6042L384.403 80.5122L369.608 74.4203C369.724 74.1393 369.739 74.2373 369.364 74.6929L381.715 84.8642ZM384.403 80.5122L399.315 86.3114C400.247 83.9162 402.084 78.4751 400.24 72.3307L384.915 76.9282L369.59 81.5258C368.859 79.089 369.007 77.1308 369.14 76.2015C369.212 75.6932 369.306 75.3161 369.369 75.0923C369.432 74.8652 369.482 74.7351 369.491 74.7131L384.403 80.5122ZM422.729 63.1042L407.817 57.3051L407.523 58.0603L407.307 58.8413L422.729 63.1042ZM427.721 56.1922L437.07 69.1768L437.116 69.1438L437.161 69.1105L427.721 56.1922ZM433.993 53.2482L436.734 69.0116L436.996 68.9661L437.256 68.9119L433.993 53.2482ZM438.985 53.8882L430.11 67.201L430.306 67.3315L430.505 67.4562L438.985 53.8882ZM440.393 57.8562L424.828 54.1503L411.735 109.142L451.707 69.1699L440.393 57.8562ZM447.433 53.3762L453.931 67.9972L453.931 67.9972L447.433 53.3762ZM454.729 50.5602L450.333 35.1759L450.333 35.1759L454.729 50.5602ZM459.337 49.7922L460.305 33.8215L459.821 33.7922H459.337V49.7922ZM461.769 54.4002L446.974 48.3082L439.401 66.7002L458.988 70.1568L461.769 54.4002ZM464.969 57.2162L450.223 63.4251L450.223 63.4252L464.969 57.2162ZM461.769 68.3522L450.195 57.3046L450.195 57.3046L461.769 68.3522ZM454.473 72.1922L451.002 56.5732L450.955 56.5837L450.908 56.5945L454.473 72.1922ZM446.921 76.9282L434.595 66.7272L434.576 66.7497L434.557 66.7724L446.921 76.9282ZM441.673 85.8882L426.967 79.5855L426.951 79.6231L426.935 79.6608L441.673 85.8882ZM434.761 111.616L419.027 108.711L419.007 108.821L418.988 108.931L434.761 111.616ZM426.441 121.728L418.608 107.777L418.542 107.814L418.475 107.852L426.441 121.728ZM413.769 124.032L418.21 108.661L418.107 108.631L418.004 108.603L413.769 124.032ZM408.009 114.432L423.932 115.998L423.973 115.588L423.992 115.176L408.009 114.432ZM411.337 99.8402L426.494 104.964L426.505 104.932L426.516 104.9L411.337 99.8402ZM416.073 86.0162L431.122 91.4506L431.145 91.3854L431.168 91.32L416.073 86.0162ZM418.377 78.8482L402.955 74.5853L402.929 74.6807L402.904 74.7764L418.377 78.8482ZM422.729 63.1042L437.641 68.9034C437.822 68.4378 437.923 68.3309 437.844 68.4401C437.803 68.4969 437.719 68.6033 437.586 68.7386C437.451 68.8749 437.279 69.0262 437.07 69.1768L427.721 56.1922L418.372 43.2077C413.161 46.9599 409.849 52.0809 407.817 57.3051L422.729 63.1042ZM427.721 56.1922L437.161 69.1105C437.593 68.7949 437.79 68.706 437.752 68.724C437.707 68.7447 437.359 68.9031 436.734 69.0116L433.993 53.2482L431.252 37.4849C426.128 38.3759 421.773 40.7217 418.281 43.274L427.721 56.1922ZM433.993 53.2482L437.256 68.9119C436.66 69.0361 433.531 69.4818 430.11 67.201L438.985 53.8882L447.86 40.5754C441.879 36.588 435.422 36.607 430.73 37.5846L433.993 53.2482ZM438.985 53.8882L430.505 67.4562C428.597 66.2636 426.43 64.1068 425.282 60.8708C424.208 57.8432 424.546 55.3348 424.828 54.1503L440.393 57.8562L455.958 61.5622C456.667 58.5856 456.983 54.52 455.44 50.1697C453.822 45.611 450.738 42.3662 447.465 40.3203L438.985 53.8882ZM440.393 57.8562L451.707 69.1699C451.539 69.3374 451.57 69.2664 451.959 69.0188C452.343 68.7745 452.975 68.422 453.931 67.9972L447.433 53.3762L440.935 38.7553C436.829 40.5799 432.577 43.0453 429.079 46.5425L440.393 57.8562ZM447.433 53.3762L453.931 67.9972C456.77 66.7356 458.404 66.1504 459.125 65.9446L454.729 50.5602L450.333 35.1759C447.47 35.994 444.24 37.2862 440.935 38.7553L447.433 53.3762ZM454.729 50.5602L459.125 65.9446C459.332 65.8854 459.497 65.8435 459.623 65.8145C459.749 65.7855 459.825 65.7716 459.855 65.7665C459.886 65.7614 459.859 65.7672 459.778 65.7745C459.697 65.7819 459.548 65.7922 459.337 65.7922V49.7922V33.7922C456.062 33.7922 452.967 34.4236 450.333 35.1759L454.729 50.5602ZM459.337 49.7922L458.369 65.7629C457.824 65.7299 451.445 65.2446 447.907 58.5404C446.322 55.5377 446.206 52.7513 446.349 51.1008C446.485 49.5235 446.886 48.5231 446.974 48.3082L461.769 54.4002L476.564 60.4922C477.601 57.9723 480.087 50.9548 476.207 43.6041C471.858 35.3639 463.666 34.0253 460.305 33.8215L459.337 49.7922ZM461.769 54.4002L458.988 70.1568C456.934 69.7943 454.841 68.8511 453.087 67.3077C451.429 65.8488 450.6 64.321 450.223 63.4251L464.969 57.2162L479.715 51.0073C477.398 45.5042 472.453 40.0383 464.55 38.6437L461.769 54.4002ZM464.969 57.2162L450.223 63.4252C449.821 62.4718 449.608 61.4779 449.563 60.5373C449.52 59.6219 449.643 58.9364 449.743 58.5535L465.225 62.5922L480.707 66.631C481.965 61.8081 481.966 56.353 479.715 51.0073L464.969 57.2162ZM465.225 62.5922L449.743 58.5535C450.083 57.2503 450.623 56.8565 450.195 57.3046L461.769 68.3522L473.343 79.3999C476.499 76.0933 479.343 71.8595 480.707 66.631L465.225 62.5922ZM461.769 68.3522L450.195 57.3046C450.565 56.9178 450.923 56.6808 451.149 56.5616C451.356 56.4528 451.349 56.4963 451.002 56.5732L454.473 72.1922L457.944 87.8112C463.444 86.5889 468.935 84.0179 473.343 79.3998L461.769 68.3522ZM454.473 72.1922L450.908 56.5945C444.312 58.1022 438.772 61.6791 434.595 66.7272L446.921 76.9282L459.247 87.1293C459.271 87.1004 459.145 87.2552 458.846 87.4433C458.538 87.6361 458.238 87.7444 458.038 87.79L454.473 72.1922ZM446.921 76.9282L434.557 66.7724C431.424 70.5869 428.95 74.9572 426.967 79.5855L441.673 85.8882L456.379 92.191C457.468 89.6512 458.493 88.0483 459.285 87.0841L446.921 76.9282ZM441.673 85.8882L426.935 79.6608C423.715 87.2804 421.159 97.1633 419.027 108.711L434.761 111.616L450.495 114.521C452.459 103.882 454.511 96.6134 456.411 92.1157L441.673 85.8882ZM434.761 111.616L418.988 108.931C419.059 108.514 419.19 108.098 419.367 107.72C419.541 107.348 419.717 107.104 419.814 106.986C419.983 106.78 419.771 107.124 418.608 107.777L426.441 121.728L434.274 135.68C441.694 131.514 448.769 124.674 450.534 114.301L434.761 111.616ZM426.441 121.728L418.475 107.852C417.392 108.474 416.903 108.556 416.955 108.546C416.992 108.54 417.148 108.516 417.398 108.527C417.652 108.537 417.932 108.581 418.21 108.661L413.769 124.032L409.328 139.404C418.574 142.075 427.325 139.67 434.407 135.604L426.441 121.728ZM413.769 124.032L418.004 108.603C418.917 108.854 421.199 109.862 422.785 112.504C424.177 114.824 423.881 116.52 423.932 115.998L408.009 114.432L392.086 112.866C391.625 117.549 392.033 123.449 395.345 128.968C398.851 134.811 404.269 138.016 409.534 139.461L413.769 124.032ZM408.009 114.432L423.992 115.176C424.06 113.705 424.627 110.488 426.494 104.964L411.337 99.8402L396.18 94.7166C393.951 101.309 392.299 107.821 392.026 113.689L408.009 114.432ZM411.337 99.8402L426.516 104.9C428.554 98.785 430.082 94.3298 431.122 91.4506L416.073 86.0162L401.024 80.5819C399.845 83.8467 398.216 88.6075 396.158 94.7806L411.337 99.8402ZM416.073 86.0162L431.168 91.32C432.31 88.072 433.253 85.1876 433.85 82.9201L418.377 78.8482L402.904 74.7764C402.647 75.7515 402.055 77.6458 400.978 80.7125L416.073 86.0162ZM418.377 78.8482L433.799 83.1111L438.151 67.3671L422.729 63.1042L407.307 58.8413L402.955 74.5853L418.377 78.8482Z" fill="black" mask="url(#path-1-outside-1_1_3)"/>
</g>
<defs>
<filter id="filter0_d_1_3" x="0" y="0" width="485.553" height="182.065" filterUnits="userSpaceOnUse" color-interpolation-filters="sRGB">
<feFlood flood-opacity="0" result="BackgroundImageFix"/>
<feColorMatrix in="SourceAlpha" type="matrix" values="0 0 0 0 0 0 0 0 0 0 0 0 0 0 0 0 0 0 127 0" result="hardAlpha"/>
<feOffset dy="4"/>
<feGaussianBlur stdDeviation="2"/>
<feComposite in2="hardAlpha" operator="out"/>
<feColorMatrix type="matrix" values="0 0 0 0 0 0 0 0 0 0 0 0 0 0 0 0 0 0 0.25 0"/>
<feBlend mode="normal" in2="BackgroundImageFix" result="effect1_dropShadow_1_3"/>
<feBlend mode="normal" in="SourceGraphic" in2="effect1_dropShadow_1_3" result="shape"/>
</filter>
<radialGradient id="paint0_radial_1_3" cx="0" cy="0" r="1" gradientUnits="userSpaceOnUse" gradientTransform="translate(241.792 48.0962) rotate(90) scale(144 1198.59)">
<stop stop-color="#FFBB00"/>
<stop offset="1" stop-color="#FF9500" stop-opacity="0"/>
</radialGradient>
</defs>
</svg>
